<?xml version="1.0" encoding="UTF-8"?> <svg xmlns="http://www.w3.org/2000/svg" xmlns:xlink="http://www.w3.org/1999/xlink" xmlns:svgjs="http://svgjs.com/svgjs" width="512" height="512" x="0" y="0" viewBox="0 0 512 512" style="enable-background:new 0 0 512 512" xml:space="preserve"> <g> <path d="M448.8 0H63.2c-8.284 0-15 6.716-15 15v482a15 15 0 0 0 21.709 13.416L256 417.371l186.092 93.045a15.003 15.003 0 0 0 14.595-.656 15.002 15.002 0 0 0 7.114-12.76V15C463.8 6.716 457.083 0 448.8 0zm-85.929 192.183L320.32 233.66l9.906 57.751c.246 1.078.376 2.199.376 3.352 0 8.274-6.7 14.984-14.972 15h-.05c-2.388 0-4.783-.569-6.978-1.723L256 280.392l-52.6 27.648a14.994 14.994 0 0 1-15.797-1.142 15.001 15.001 0 0 1-5.966-14.671l10.048-58.566-42.556-41.477a14.999 14.999 0 0 1 8.313-25.586l58.809-8.546 26.296-53.289a15 15 0 0 1 26.902-.001l26.301 53.29 58.806 8.546a14.998 14.998 0 0 1 12.109 10.208 14.998 14.998 0 0 1-3.794 15.377z" fill="#ffffff" data-original="#000000"></path> </g> </svg> 