<?xml version="1.0" encoding="UTF-8"?> <svg xmlns="http://www.w3.org/2000/svg" width="161" height="50" viewBox="0 0 161 50" fill="none"> <rect width="161" height="50" rx="10" fill="#F59E0B" fill-opacity="0.1"></rect> <g clip-path="url(#clip0_509_2606)"> <path d="M41.0832 28.667C40.84 28.667 40.6069 28.7636 40.435 28.9355C40.2631 29.1074 40.1665 29.3405 40.1665 29.5837V31.417C40.1665 32.1463 39.8768 32.8458 39.361 33.3615C38.8453 33.8773 38.1458 34.167 37.4165 34.167H35.5832C35.3401 34.167 35.1069 34.2636 34.935 34.4355C34.7631 34.6074 34.6665 34.8405 34.6665 35.0836C34.6665 35.3268 34.7631 35.5599 34.935 35.7318C35.1069 35.9037 35.3401 36.0003 35.5832 36.0003H37.4165C38.6316 35.9989 39.7966 35.5155 40.6558 34.6563C41.515 33.7971 41.9984 32.6321 41.9998 31.417V29.5837C41.9998 29.3405 41.9032 29.1074 41.7313 28.9355C41.5594 28.7636 41.3263 28.667 41.0832 28.667Z" fill="#F59E0B"></path> <path d="M20.9167 21.3333C21.1598 21.3333 21.3929 21.2368 21.5648 21.0648C21.7368 20.8929 21.8333 20.6598 21.8333 20.4167V18.5833C21.8333 17.854 22.1231 17.1545 22.6388 16.6388C23.1545 16.1231 23.854 15.8333 24.5833 15.8333H26.4167C26.6598 15.8333 26.8929 15.7368 27.0648 15.5648C27.2368 15.3929 27.3333 15.1598 27.3333 14.9167C27.3333 14.6736 27.2368 14.4404 27.0648 14.2685C26.8929 14.0966 26.6598 14 26.4167 14H24.5833C23.3682 14.0015 22.2033 14.4848 21.344 15.344C20.4848 16.2033 20.0015 17.3682 20 18.5833V20.4167C20 20.6598 20.0966 20.8929 20.2685 21.0648C20.4404 21.2368 20.6736 21.3333 20.9167 21.3333Z" fill="#F59E0B"></path> <path d="M26.4167 34.167H24.5833C23.854 34.167 23.1545 33.8773 22.6388 33.3615C22.1231 32.8458 21.8333 32.1463 21.8333 31.417V29.5837C21.8333 29.3405 21.7368 29.1074 21.5648 28.9355C21.3929 28.7636 21.1598 28.667 20.9167 28.667C20.6736 28.667 20.4404 28.7636 20.2685 28.9355C20.0966 29.1074 20 29.3405 20 29.5837V31.417C20.0015 32.6321 20.4848 33.7971 21.344 34.6563C22.2033 35.5155 23.3682 35.9989 24.5833 36.0003H26.4167C26.6598 36.0003 26.8929 35.9037 27.0648 35.7318C27.2368 35.5599 27.3333 35.3268 27.3333 35.0836C27.3333 34.8405 27.2368 34.6074 27.0648 34.4355C26.8929 34.2636 26.6598 34.167 26.4167 34.167Z" fill="#F59E0B"></path> <path d="M37.4165 14H35.5832C35.3401 14 35.1069 14.0966 34.935 14.2685C34.7631 14.4404 34.6665 14.6736 34.6665 14.9167C34.6665 15.1598 34.7631 15.3929 34.935 15.5648C35.1069 15.7368 35.3401 15.8333 35.5832 15.8333H37.4165C38.1458 15.8333 38.8453 16.1231 39.361 16.6388C39.8768 17.1545 40.1665 17.854 40.1665 18.5833V20.4167C40.1665 20.6598 40.2631 20.8929 40.435 21.0648C40.6069 21.2368 40.84 21.3333 41.0832 21.3333C41.3263 21.3333 41.5594 21.2368 41.7313 21.0648C41.9032 20.8929 41.9998 20.6598 41.9998 20.4167V18.5833C41.9984 17.3682 41.515 16.2033 40.6558 15.344C39.7966 14.4848 38.6316 14.0015 37.4165 14V14Z" fill="#F59E0B"></path> <path d="M31.0002 24.0833C31.7254 24.0833 32.4343 23.8683 33.0373 23.4654C33.6402 23.0625 34.1102 22.4898 34.3877 21.8198C34.6652 21.1498 34.7379 20.4126 34.5964 19.7013C34.4549 18.9901 34.1057 18.3367 33.5929 17.8239C33.0801 17.3112 32.4268 16.9619 31.7155 16.8205C31.0042 16.679 30.267 16.7516 29.597 17.0291C28.927 17.3066 28.3543 17.7766 27.9514 18.3796C27.5485 18.9826 27.3335 19.6915 27.3335 20.4167C27.3335 21.3891 27.7198 22.3218 28.4074 23.0094C29.0951 23.697 30.0277 24.0833 31.0002 24.0833ZM31.0002 18.5833C31.3628 18.5833 31.7172 18.6909 32.0187 18.8923C32.3202 19.0938 32.5552 19.3801 32.6939 19.7151C32.8327 20.0501 32.869 20.4187 32.7983 20.7743C32.7275 21.13 32.5529 21.4566 32.2965 21.713C32.0401 21.9694 31.7135 22.144 31.3578 22.2148C31.0022 22.2855 30.6336 22.2492 30.2986 22.1104C29.9636 21.9717 29.6773 21.7367 29.4758 21.4352C29.2744 21.1337 29.1668 20.7793 29.1668 20.4167C29.1668 19.9304 29.36 19.4641 29.7038 19.1203C30.0476 18.7765 30.5139 18.5833 31.0002 18.5833Z" fill="#F59E0B"></path> <path d="M36.5002 32.3337C36.7433 32.3337 36.9764 32.2371 37.1483 32.0652C37.3203 31.8933 37.4168 31.6601 37.4168 31.417C37.4154 29.9587 36.8354 28.5606 35.8043 27.5295C34.7732 26.4984 33.3751 25.9184 31.9168 25.917H30.0835C28.6253 25.9184 27.2272 26.4984 26.196 27.5295C25.1649 28.5606 24.585 29.9587 24.5835 31.417C24.5835 31.6601 24.6801 31.8933 24.852 32.0652C25.0239 32.2371 25.257 32.3337 25.5002 32.3337C25.7433 32.3337 25.9764 32.2371 26.1483 32.0652C26.3203 31.8933 26.4168 31.6601 26.4168 31.417C26.4168 30.4445 26.8031 29.5119 27.4908 28.8243C28.1784 28.1366 29.111 27.7503 30.0835 27.7503H31.9168C32.8893 27.7503 33.8219 28.1366 34.5096 28.8243C35.1972 29.5119 35.5835 30.4445 35.5835 31.417C35.5835 31.6601 35.6801 31.8933 35.852 32.0652C36.0239 32.2371 36.257 32.3337 36.5002 32.3337Z" fill="#F59E0B"></path> </g> <path d="M57.071 20.3906H58.7969C59.6065 20.3906 60.3256 20.5717 60.9542 20.9339C61.5827 21.2962 62.0763 21.8004 62.435 22.4467C62.7937 23.093 62.973 23.8423 62.973 24.6946C62.973 25.5469 62.7937 26.2979 62.435 26.9478C62.0763 27.5977 61.5827 28.1055 60.9542 28.4712C60.3256 28.837 59.6065 29.0199 58.7969 29.0199H57.071C56.2614 29.0199 55.5423 28.8388 54.9137 28.4766C54.2852 28.1143 53.7915 27.6101 53.4329 26.9638C53.0742 26.3175 52.8949 25.5682 52.8949 24.7159C52.8949 23.8636 53.0742 23.1126 53.4329 22.4627C53.7915 21.8129 54.2852 21.305 54.9137 20.9393C55.5423 20.5735 56.2614 20.3906 57.071 20.3906ZM57.071 21.5625C56.4531 21.5625 55.9311 21.6921 55.505 21.9513C55.0824 22.2106 54.761 22.5763 54.5408 23.0487C54.3242 23.521 54.2159 24.0767 54.2159 24.7159C54.2159 25.348 54.3242 25.8984 54.5408 26.3672C54.761 26.8359 55.0824 27.1999 55.505 27.4592C55.9311 27.7184 56.4531 27.848 57.071 27.848H58.7969C59.4148 27.848 59.935 27.7184 60.3576 27.4592C60.7837 27.1999 61.1051 26.8342 61.3217 26.3619C61.5419 25.8896 61.652 25.3338 61.652 24.6946C61.652 24.0625 61.5419 23.5121 61.3217 23.0433C61.1051 22.5746 60.7837 22.2106 60.3576 21.9513C59.935 21.6921 59.4148 21.5625 58.7969 21.5625H57.071ZM58.6051 18.8991V30.4474H57.2841V18.8991H58.6051ZM68.3397 30.1705C67.601 30.1705 66.9529 29.9947 66.3954 29.6431C65.8414 29.2915 65.4082 28.7997 65.0957 28.1676C64.7868 27.5355 64.6323 26.7969 64.6323 25.9517C64.6323 25.0994 64.7868 24.3555 65.0957 23.7198C65.4082 23.0842 65.8414 22.5906 66.3954 22.239C66.9529 21.8874 67.601 21.7116 68.3397 21.7116C69.0783 21.7116 69.7246 21.8874 70.2786 22.239C70.8361 22.5906 71.2694 23.0842 71.5783 23.7198C71.8908 24.3555 72.0471 25.0994 72.0471 25.9517C72.0471 26.7969 71.8908 27.5355 71.5783 28.1676C71.2694 28.7997 70.8361 29.2915 70.2786 29.6431C69.7246 29.9947 69.0783 30.1705 68.3397 30.1705ZM68.3397 29.0412C68.9007 29.0412 69.3624 28.8974 69.7246 28.6097C70.0868 28.3221 70.3549 27.9439 70.5289 27.4751C70.7029 27.0064 70.79 26.4986 70.79 25.9517C70.79 25.4048 70.7029 24.8952 70.5289 24.4229C70.3549 23.9506 70.0868 23.5689 69.7246 23.2777C69.3624 22.9865 68.9007 22.8409 68.3397 22.8409C67.7786 22.8409 67.3169 22.9865 66.9547 23.2777C66.5925 23.5689 66.3244 23.9506 66.1504 24.4229C65.9764 24.8952 65.8894 25.4048 65.8894 25.9517C65.8894 26.4986 65.9764 27.0064 66.1504 27.4751C66.3244 27.9439 66.5925 28.3221 66.9547 28.6097C67.3169 28.8974 67.7786 29.0412 68.3397 29.0412ZM72.8967 22.9901V21.8182H79.5444V22.9901H76.8597V30H75.6026V22.9901H72.8967ZM84.2772 30.1705C83.5385 30.1705 82.8904 29.9947 82.3329 29.6431C81.7789 29.2915 81.3457 28.7997 81.0332 28.1676C80.7243 27.5355 80.5698 26.7969 80.5698 25.9517C80.5698 25.0994 80.7243 24.3555 81.0332 23.7198C81.3457 23.0842 81.7789 22.5906 82.3329 22.239C82.8904 21.8874 83.5385 21.7116 84.2772 21.7116C85.0158 21.7116 85.6621 21.8874 86.2161 22.239C86.7736 22.5906 87.2069 23.0842 87.5158 23.7198C87.8283 24.3555 87.9846 25.0994 87.9846 25.9517C87.9846 26.7969 87.8283 27.5355 87.5158 28.1676C87.2069 28.7997 86.7736 29.2915 86.2161 29.6431C85.6621 29.9947 85.0158 30.1705 84.2772 30.1705ZM84.2772 29.0412C84.8382 29.0412 85.2999 28.8974 85.6621 28.6097C86.0243 28.3221 86.2924 27.9439 86.4664 27.4751C86.6404 27.0064 86.7275 26.4986 86.7275 25.9517C86.7275 25.4048 86.6404 24.8952 86.4664 24.4229C86.2924 23.9506 86.0243 23.5689 85.6621 23.2777C85.2999 22.9865 84.8382 22.8409 84.2772 22.8409C83.7161 22.8409 83.2544 22.9865 82.8922 23.2777C82.53 23.5689 82.2619 23.9506 82.0879 24.4229C81.9139 24.8952 81.8269 25.4048 81.8269 25.9517C81.8269 26.4986 81.9139 27.0064 82.0879 27.4751C82.2619 27.9439 82.53 28.3221 82.8922 28.6097C83.2544 28.8974 83.7161 29.0412 84.2772 29.0412ZM94.9532 21.8182V22.9901H91.1606V30H89.9035V21.8182H94.9532ZM96.7883 33.0682V21.8182H98.0028V23.1179H98.1519C98.2442 22.9759 98.3721 22.7947 98.5354 22.5746C98.7023 22.3509 98.9403 22.152 99.2492 21.978C99.5617 21.8004 99.9843 21.7116 100.517 21.7116C101.206 21.7116 101.813 21.8839 102.339 22.2283C102.864 22.5728 103.274 23.0611 103.569 23.6932C103.864 24.3253 104.011 25.071 104.011 25.9304C104.011 26.7969 103.864 27.5479 103.569 28.1836C103.274 28.8157 102.866 29.3058 102.344 29.6538C101.822 29.9982 101.22 30.1705 100.538 30.1705C100.013 30.1705 99.5919 30.0835 99.2758 29.9094C98.9598 29.7319 98.7165 29.5312 98.5461 29.3075C98.3756 29.0803 98.2442 28.892 98.1519 28.7429H98.0454V33.0682H96.7883ZM98.0241 25.9091C98.0241 26.527 98.1146 27.0721 98.2957 27.5444C98.4768 28.0131 98.7414 28.3807 99.0894 28.647C99.4374 28.9098 99.8635 29.0412 100.368 29.0412C100.893 29.0412 101.332 28.9027 101.684 28.6257C102.039 28.3452 102.305 27.9687 102.483 27.4964C102.664 27.0206 102.754 26.4915 102.754 25.9091C102.754 25.3338 102.665 24.8153 102.488 24.3537C102.314 23.8885 102.049 23.521 101.694 23.2511C101.343 22.9776 100.9 22.8409 100.368 22.8409C99.8564 22.8409 99.4268 22.9705 99.0787 23.2298C98.7307 23.4854 98.468 23.8441 98.2904 24.3058C98.1128 24.7638 98.0241 25.2983 98.0241 25.9091ZM108.337 30.1918C107.818 30.1918 107.348 30.0941 106.925 29.8988C106.502 29.6999 106.167 29.4141 105.918 29.0412C105.67 28.6648 105.545 28.2102 105.545 27.6776C105.545 27.2088 105.638 26.8288 105.822 26.5376C106.007 26.2429 106.254 26.0121 106.563 25.8452C106.872 25.6783 107.213 25.554 107.585 25.4723C107.962 25.3871 108.34 25.3196 108.72 25.2699C109.217 25.206 109.62 25.158 109.929 25.1261C110.242 25.0906 110.469 25.032 110.611 24.9503C110.757 24.8686 110.829 24.7266 110.829 24.5241V24.4815C110.829 23.956 110.686 23.5476 110.398 23.2564C110.114 22.9652 109.682 22.8196 109.104 22.8196C108.503 22.8196 108.033 22.951 107.692 23.2138C107.351 23.4766 107.111 23.7571 106.973 24.0554L105.78 23.6293C105.993 23.1321 106.277 22.745 106.632 22.468C106.991 22.1875 107.381 21.9922 107.804 21.8821C108.23 21.7685 108.649 21.7116 109.061 21.7116C109.324 21.7116 109.626 21.7436 109.967 21.8075C110.311 21.8679 110.643 21.994 110.963 22.1857C111.286 22.3775 111.554 22.6669 111.767 23.054C111.98 23.4411 112.087 23.9595 112.087 24.6094V30H110.829V28.892H110.766C110.68 29.0696 110.538 29.2596 110.339 29.462C110.141 29.6644 109.876 29.8366 109.546 29.9787C109.215 30.1207 108.812 30.1918 108.337 30.1918ZM108.528 29.0625C109.025 29.0625 109.445 28.9648 109.785 28.7695C110.13 28.5742 110.389 28.3221 110.563 28.0131C110.741 27.7042 110.829 27.3793 110.829 27.0384V25.8878C110.776 25.9517 110.659 26.0103 110.478 26.0636C110.3 26.1133 110.094 26.1577 109.86 26.1967C109.629 26.2322 109.404 26.2642 109.184 26.2926C108.967 26.3175 108.791 26.3388 108.656 26.3565C108.329 26.3991 108.024 26.4684 107.74 26.5643C107.459 26.6566 107.232 26.7969 107.058 26.9851C106.888 27.1697 106.802 27.4219 106.802 27.7415C106.802 28.1783 106.964 28.5085 107.287 28.7322C107.614 28.9524 108.028 29.0625 108.528 29.0625ZM117.705 32.7912V19.0909H118.962V32.7912H117.705ZM117.705 30.1705C117.151 30.1705 116.647 30.071 116.192 29.8722C115.738 29.6697 115.347 29.3839 115.02 29.0146C114.694 28.6417 114.441 28.196 114.264 27.6776C114.086 27.1591 113.998 26.5838 113.998 25.9517C113.998 25.3125 114.086 24.7337 114.264 24.2152C114.441 23.6932 114.694 23.2457 115.02 22.8729C115.347 22.5 115.738 22.2141 116.192 22.0153C116.647 21.8129 117.151 21.7116 117.705 21.7116H118.088V30.1705H117.705ZM117.705 29.0412H117.918V22.8409H117.705C117.286 22.8409 116.922 22.9261 116.613 23.0966C116.304 23.2635 116.048 23.4925 115.846 23.7837C115.647 24.0714 115.498 24.4016 115.398 24.7745C115.303 25.1474 115.255 25.5398 115.255 25.9517C115.255 26.4986 115.342 27.0064 115.516 27.4751C115.69 27.9439 115.958 28.3221 116.32 28.6097C116.682 28.8974 117.144 29.0412 117.705 29.0412ZM118.962 30.1705H118.578V21.7116H118.962C119.516 21.7116 120.02 21.8129 120.475 22.0153C120.929 22.2141 121.32 22.5 121.647 22.8729C121.973 23.2457 122.225 23.6932 122.403 24.2152C122.581 24.7337 122.669 25.3125 122.669 25.9517C122.669 26.5838 122.581 27.1591 122.403 27.6776C122.225 28.196 121.973 28.6417 121.647 29.0146C121.32 29.3839 120.929 29.6697 120.475 29.8722C120.02 30.071 119.516 30.1705 118.962 30.1705ZM118.962 29.0412C119.385 29.0412 119.749 28.9595 120.054 28.7962C120.363 28.6293 120.617 28.402 120.816 28.1143C121.018 27.8232 121.167 27.4929 121.263 27.1236C121.363 26.7507 121.412 26.3601 121.412 25.9517C121.412 25.4048 121.325 24.8952 121.151 24.4229C120.977 23.9506 120.709 23.5689 120.347 23.2777C119.985 22.9865 119.523 22.8409 118.962 22.8409H118.749V29.0412H118.962ZM125.848 28.1463L129.79 21.8182H131.239V30H129.982V23.6719L126.061 30H124.591V21.8182H125.848V28.1463ZM138.463 30V22.9688H136.29C135.8 22.9688 135.414 23.0824 135.134 23.3097C134.853 23.5369 134.713 23.8494 134.713 24.2472C134.713 24.6378 134.839 24.945 135.091 25.1687C135.347 25.3924 135.697 25.5043 136.141 25.5043H138.783V26.6761H136.141C135.587 26.6761 135.109 26.5785 134.708 26.3832C134.306 26.1879 133.998 25.9091 133.781 25.5469C133.564 25.1811 133.456 24.7479 133.456 24.2472C133.456 23.7429 133.57 23.3097 133.797 22.9474C134.024 22.5852 134.349 22.3065 134.772 22.1112C135.198 21.9158 135.704 21.8182 136.29 21.8182H139.656V30H138.463ZM133.009 30L135.331 25.9304H136.695L134.372 30H133.009Z" fill="#F59E0B"></path> <defs> <clipPath id="clip0_509_2606"> <rect width="22" height="22" fill="white" transform="translate(20 14)"></rect> </clipPath> </defs> </svg> 