<?xml version="1.0" encoding="UTF-8"?> <svg xmlns="http://www.w3.org/2000/svg" width="133" height="50" viewBox="0 0 133 50" fill="none"> <rect width="133" height="50" rx="10" fill="#2E49D8" fill-opacity="0.1"></rect> <g clip-path="url(#clip0_509_2609)"> <path d="M41.5738 27.4984C41.384 27.2678 41.1404 27.0874 40.8645 26.9729C40.5887 26.8585 40.2889 26.8135 39.9916 26.842C38.3945 26.9683 36.8442 27.4421 35.4494 28.2303C34.0546 29.0186 32.8489 30.1021 31.9167 31.4052V26.7513C33.1969 26.5338 34.359 25.8708 35.1977 24.8795C36.0363 23.8881 36.4976 22.6323 36.5001 21.3338C36.5001 18.7735 34.719 16.6111 32.9764 14.8337C32.4481 14.3175 31.7387 14.0284 31.0001 14.0284C30.2614 14.0284 29.552 14.3175 29.0237 14.8337C27.2811 16.6111 25.5001 18.7735 25.5001 21.3338C25.5025 22.6323 25.9638 23.8881 26.8025 24.8795C27.6411 25.8708 28.8032 26.5338 30.0834 26.7513V31.4052C29.1512 30.1021 27.9455 29.0186 26.5507 28.2303C25.1559 27.4421 23.6056 26.9683 22.0085 26.842C21.7112 26.8137 21.4115 26.8587 21.1357 26.9732C20.8598 27.0876 20.6162 27.2679 20.4263 27.4984C20.2376 27.7224 20.1062 27.989 20.0434 28.2752C19.9806 28.5614 19.9884 28.8585 20.0661 29.141C21.9351 35.8675 30.6251 36.0004 30.9946 36.0004H31.0056C31.3722 36.0004 40.0659 35.8675 41.935 29.141C42.0122 28.8584 42.0196 28.5613 41.9567 28.2752C41.8938 27.9891 41.7624 27.7225 41.5738 27.4984V27.4984ZM27.3334 21.3338C27.3334 18.9009 30.3749 16.0913 30.3932 16.0758C30.0586 16.9338 27.9686 22.1588 30.0834 22.2504C30.3265 22.2504 30.5597 22.1539 30.7316 21.9819C30.9035 21.81 31.0001 21.5769 31.0001 21.3338C31.0693 19.7034 31.4609 18.1029 32.1523 16.6248C33.4641 18.0273 34.6667 19.6416 34.6667 21.3338C34.6667 22.3062 34.2804 23.2389 33.5928 23.9265C32.9051 24.6141 31.9725 25.0004 31.0001 25.0004C30.0276 25.0004 29.095 24.6141 28.4073 23.9265C27.7197 23.2389 27.3334 22.3062 27.3334 21.3338V21.3338ZM21.8389 28.6671C23.4905 28.8009 25.0775 29.3683 26.4395 30.312C27.8015 31.2557 28.8903 32.5422 29.5957 34.0415C27.3068 33.7244 22.9334 32.6088 21.8389 28.6671ZM32.4163 34.0397C33.1275 32.5446 34.2166 31.2609 35.5758 30.3156C36.9351 29.3703 38.5175 28.7961 40.1667 28.6497C39.0722 32.5932 34.7089 33.7189 32.4163 34.0397Z" fill="#2E49D8"></path> </g> <path d="M59.7344 30L55.9844 24.9929H54.642V30H53.321V19.0909H54.642V23.821H55.2173L59.5852 19.0909H61.1619L56.7514 23.8849L61.3111 30H59.7344ZM62.8478 33.0682V21.8182H64.0623V23.1179H64.2115C64.3038 22.9759 64.4316 22.7947 64.595 22.5746C64.7619 22.3509 64.9998 22.152 65.3088 21.978C65.6213 21.8004 66.0439 21.7116 66.5765 21.7116C67.2654 21.7116 67.8727 21.8839 68.3983 22.2283C68.9238 22.5728 69.334 23.0611 69.6287 23.6932C69.9235 24.3253 70.0708 25.071 70.0708 25.9304C70.0708 26.7969 69.9235 27.5479 69.6287 28.1836C69.334 28.8157 68.9256 29.3058 68.4036 29.6538C67.8816 29.9982 67.2797 30.1705 66.5978 30.1705C66.0723 30.1705 65.6515 30.0835 65.3354 29.9094C65.0194 29.7319 64.7761 29.5312 64.6056 29.3075C64.4352 29.0803 64.3038 28.892 64.2115 28.7429H64.1049V33.0682H62.8478ZM64.0836 25.9091C64.0836 26.527 64.1742 27.0721 64.3553 27.5444C64.5364 28.0131 64.801 28.3807 65.149 28.647C65.497 28.9098 65.9231 29.0412 66.4274 29.0412C66.9529 29.0412 67.3915 28.9027 67.7431 28.6257C68.0982 28.3452 68.3645 27.9687 68.5421 27.4964C68.7232 27.0206 68.8137 26.4915 68.8137 25.9091C68.8137 25.3338 68.725 24.8153 68.5474 24.3537C68.3734 23.8885 68.1088 23.521 67.7537 23.2511C67.4022 22.9776 66.96 22.8409 66.4274 22.8409C65.916 22.8409 65.4863 22.9705 65.1383 23.2298C64.7903 23.4854 64.5275 23.8441 64.35 24.3058C64.1724 24.7638 64.0836 25.2983 64.0836 25.9091ZM74.3961 30.1918C73.8777 30.1918 73.4071 30.0941 72.9846 29.8988C72.562 29.6999 72.2264 29.4141 71.9778 29.0412C71.7292 28.6648 71.6049 28.2102 71.6049 27.6776C71.6049 27.2088 71.6973 26.8288 71.8819 26.5376C72.0666 26.2429 72.3134 26.0121 72.6223 25.8452C72.9313 25.6783 73.2722 25.554 73.6451 25.4723C74.0215 25.3871 74.3997 25.3196 74.7797 25.2699C75.2768 25.206 75.6799 25.158 75.9888 25.1261C76.3013 25.0906 76.5286 25.032 76.6706 24.9503C76.8162 24.8686 76.889 24.7266 76.889 24.5241V24.4815C76.889 23.956 76.7452 23.5476 76.4576 23.2564C76.1735 22.9652 75.742 22.8196 75.1632 22.8196C74.563 22.8196 74.0925 22.951 73.7516 23.2138C73.4107 23.4766 73.171 23.7571 73.0325 24.0554L71.8393 23.6293C72.0524 23.1321 72.3365 22.745 72.6916 22.468C73.0502 22.1875 73.4409 21.9922 73.8635 21.8821C74.2896 21.7685 74.7086 21.7116 75.1206 21.7116C75.3833 21.7116 75.6852 21.7436 76.0261 21.8075C76.3706 21.8679 76.7026 21.994 77.0222 22.1857C77.3453 22.3775 77.6135 22.6669 77.8265 23.054C78.0396 23.4411 78.1461 23.9595 78.1461 24.6094V30H76.889V28.892H76.8251C76.7399 29.0696 76.5978 29.2596 76.399 29.462C76.2001 29.6644 75.9355 29.8366 75.6053 29.9787C75.275 30.1207 74.872 30.1918 74.3961 30.1918ZM74.5879 29.0625C75.085 29.0625 75.5041 28.9648 75.845 28.7695C76.1895 28.5742 76.4487 28.3221 76.6227 28.0131C76.8002 27.7042 76.889 27.3793 76.889 27.0384V25.8878C76.8358 25.9517 76.7186 26.0103 76.5375 26.0636C76.3599 26.1133 76.1539 26.1577 75.9196 26.1967C75.6887 26.2322 75.4632 26.2642 75.2431 26.2926C75.0265 26.3175 74.8507 26.3388 74.7157 26.3565C74.389 26.3991 74.0836 26.4684 73.7995 26.5643C73.519 26.6566 73.2917 26.7969 73.1177 26.9851C72.9473 27.1697 72.862 27.4219 72.862 27.7415C72.862 28.1783 73.0236 28.5085 73.3468 28.7322C73.6735 28.9524 74.0872 29.0625 74.5879 29.0625ZM83.7645 30.1705C82.9974 30.1705 82.3369 29.9893 81.7829 29.6271C81.229 29.2649 80.8028 28.766 80.5045 28.1303C80.2062 27.4947 80.0571 26.7685 80.0571 25.9517C80.0571 25.1207 80.2098 24.3874 80.5152 23.7518C80.8241 23.1126 81.2538 22.6136 81.8042 22.255C82.3582 21.8928 83.0045 21.7116 83.7432 21.7116C84.3184 21.7116 84.8369 21.8182 85.2986 22.0312C85.7602 22.2443 86.1384 22.5426 86.4332 22.9261C86.7279 23.3097 86.9108 23.7571 86.9818 24.2685H85.7247C85.6288 23.8956 85.4157 23.5653 85.0855 23.2777C84.7588 22.9865 84.3184 22.8409 83.7645 22.8409C83.2744 22.8409 82.8447 22.9687 82.4754 23.2244C82.1096 23.4766 81.8238 23.8335 81.6178 24.2951C81.4154 24.7532 81.3142 25.2912 81.3142 25.9091C81.3142 26.5412 81.4136 27.0916 81.6125 27.5604C81.8149 28.0291 82.099 28.3931 82.4648 28.6523C82.8341 28.9116 83.2673 29.0412 83.7645 29.0412C84.0912 29.0412 84.3877 28.9844 84.654 28.8707C84.9204 28.7571 85.1459 28.5938 85.3305 28.3807C85.5152 28.1676 85.6466 27.9119 85.7247 27.6136H86.9818C86.9108 28.0966 86.735 28.5316 86.4545 28.9187C86.1775 29.3022 85.8099 29.6076 85.3518 29.8349C84.8973 30.0586 84.3682 30.1705 83.7645 30.1705ZM92.1434 30.1705C91.4047 30.1705 90.7567 29.9947 90.1991 29.6431C89.6452 29.2915 89.2119 28.7997 88.8994 28.1676C88.5905 27.5355 88.436 26.7969 88.436 25.9517C88.436 25.0994 88.5905 24.3555 88.8994 23.7198C89.2119 23.0842 89.6452 22.5906 90.1991 22.239C90.7567 21.8874 91.4047 21.7116 92.1434 21.7116C92.882 21.7116 93.5283 21.8874 94.0823 22.239C94.6398 22.5906 95.0731 23.0842 95.382 23.7198C95.6945 24.3555 95.8508 25.0994 95.8508 25.9517C95.8508 26.7969 95.6945 27.5355 95.382 28.1676C95.0731 28.7997 94.6398 29.2915 94.0823 29.6431C93.5283 29.9947 92.882 30.1705 92.1434 30.1705ZM92.1434 29.0412C92.7045 29.0412 93.1661 28.8974 93.5283 28.6097C93.8905 28.3221 94.1586 27.9439 94.3327 27.4751C94.5067 27.0064 94.5937 26.4986 94.5937 25.9517C94.5937 25.4048 94.5067 24.8952 94.3327 24.4229C94.1586 23.9506 93.8905 23.5689 93.5283 23.2777C93.1661 22.9865 92.7045 22.8409 92.1434 22.8409C91.5823 22.8409 91.1206 22.9865 90.7584 23.2777C90.3962 23.5689 90.1281 23.9506 89.9541 24.4229C89.7801 24.8952 89.6931 25.4048 89.6931 25.9517C89.6931 26.4986 89.7801 27.0064 89.9541 27.4751C90.1281 27.9439 90.3962 28.3221 90.7584 28.6097C91.1206 28.8974 91.5823 29.0412 92.1434 29.0412ZM96.7004 22.9901V21.8182H103.348V22.9901H100.663V30H99.4063V22.9901H96.7004ZM107.165 30.1918C106.646 30.1918 106.176 30.0941 105.753 29.8988C105.331 29.6999 104.995 29.4141 104.746 29.0412C104.498 28.6648 104.373 28.2102 104.373 27.6776C104.373 27.2088 104.466 26.8288 104.65 26.5376C104.835 26.2429 105.082 26.0121 105.391 25.8452C105.7 25.6783 106.041 25.554 106.414 25.4723C106.79 25.3871 107.168 25.3196 107.548 25.2699C108.045 25.206 108.448 25.158 108.757 25.1261C109.07 25.0906 109.297 25.032 109.439 24.9503C109.585 24.8686 109.658 24.7266 109.658 24.5241V24.4815C109.658 23.956 109.514 23.5476 109.226 23.2564C108.942 22.9652 108.511 22.8196 107.932 22.8196C107.332 22.8196 106.861 22.951 106.52 23.2138C106.179 23.4766 105.94 23.7571 105.801 24.0554L104.608 23.6293C104.821 23.1321 105.105 22.745 105.46 22.468C105.819 22.1875 106.209 21.9922 106.632 21.8821C107.058 21.7685 107.477 21.7116 107.889 21.7116C108.152 21.7116 108.454 21.7436 108.795 21.8075C109.139 21.8679 109.471 21.994 109.791 22.1857C110.114 22.3775 110.382 22.6669 110.595 23.054C110.808 23.4411 110.915 23.9595 110.915 24.6094V30H109.658V28.892H109.594C109.508 29.0696 109.366 29.2596 109.168 29.462C108.969 29.6644 108.704 29.8366 108.374 29.9787C108.044 30.1207 107.641 30.1918 107.165 30.1918ZM107.356 29.0625C107.854 29.0625 108.273 28.9648 108.614 28.7695C108.958 28.5742 109.217 28.3221 109.391 28.0131C109.569 27.7042 109.658 27.3793 109.658 27.0384V25.8878C109.604 25.9517 109.487 26.0103 109.306 26.0636C109.128 26.1133 108.922 26.1577 108.688 26.1967C108.457 26.2322 108.232 26.2642 108.012 26.2926C107.795 26.3175 107.619 26.3388 107.484 26.3565C107.158 26.3991 106.852 26.4684 106.568 26.5643C106.288 26.6566 106.06 26.7969 105.886 26.9851C105.716 27.1697 105.631 27.4219 105.631 27.7415C105.631 28.1783 105.792 28.5085 106.115 28.7322C106.442 28.9524 106.856 29.0625 107.356 29.0625Z" fill="#2E49D8"></path> <defs> <clipPath id="clip0_509_2609"> <rect width="22" height="22" fill="white" transform="translate(20 14)"></rect> </clipPath> </defs> </svg> 