<?xml version="1.0" encoding="UTF-8"?> <svg xmlns="http://www.w3.org/2000/svg" width="601" height="447" viewBox="0 0 601 447" fill="none"> <rect width="600.681" height="446.34" fill="#0A234D"></rect> <path fill-rule="evenodd" clip-rule="evenodd" d="M316.151 64.0481C314.984 69.0224 311.578 73.1343 307.055 75.263C311.955 75.8774 315.852 79.7144 316.558 84.5849C318.303 79.99 322.031 76.3717 326.697 74.7747C324.115 70.3928 320.484 66.7024 316.151 64.0481ZM311.418 61.6808C310.711 67.3581 305.869 71.7516 300 71.7516C294.131 71.7516 289.289 67.3581 288.582 61.6808C290.348 60.9799 292.194 60.4368 294.102 60.0688C294.106 63.2208 296.663 65.7746 299.816 65.7746C302.971 65.7746 305.53 63.2164 305.53 60.0607C305.53 60.0405 305.529 60.0202 305.529 60C307.568 60.3676 309.538 60.9348 311.418 61.6808ZM283.849 64.0481C285.019 69.0359 288.44 73.1566 292.981 75.2802C288.265 75.9294 284.502 79.5686 283.668 84.2236C281.827 79.7011 278.049 76.1738 273.363 74.6726C275.942 70.3355 279.549 66.6818 283.849 64.0481ZM271.107 101.635C276.104 100.381 279.804 95.8591 279.804 90.4734C279.804 85.0878 276.104 80.5663 271.107 79.3123C270.432 81.0574 269.911 82.8788 269.56 84.7602C272.015 85.4011 273.827 87.6336 273.827 90.2891C273.827 92.9675 271.984 95.2155 269.497 95.8342C269.847 97.8407 270.39 99.7808 271.107 101.635ZM273.363 106.274C275.927 110.587 279.509 114.224 283.777 116.854C284.924 111.479 288.675 107.067 293.647 105.004C288.79 104.634 284.816 101.11 283.767 96.4757C281.964 101.117 278.134 104.746 273.363 106.274ZM311.456 119.251C310.911 113.403 305.99 108.827 300 108.827C294.01 108.827 289.089 113.403 288.544 119.251C290.336 119.965 292.21 120.516 294.149 120.887C294.118 120.645 294.102 120.399 294.102 120.149C294.102 116.993 296.66 114.435 299.816 114.435C302.971 114.435 305.53 116.993 305.53 120.149C305.53 120.423 305.51 120.693 305.473 120.957C307.546 120.587 309.548 120.011 311.456 119.251ZM316.223 116.854C320.525 114.203 324.129 110.53 326.697 106.172C321.954 104.549 318.18 100.836 316.473 96.1328C315.538 100.981 311.418 104.696 306.377 105.015C311.337 107.082 315.078 111.487 316.223 116.854ZM328.928 79.4016C324.101 80.7695 320.565 85.2085 320.565 90.4734C320.565 95.7384 324.101 100.177 328.928 101.545C329.627 99.7185 330.159 97.8085 330.503 95.8343C328.016 95.2156 326.173 92.9676 326.173 90.2891C326.173 87.6335 327.985 85.401 330.44 84.7601C330.095 82.9109 329.585 81.1194 328.928 79.4016Z" fill="url(#paint0_linear_234_1965)"></path> <path fill-rule="evenodd" clip-rule="evenodd" d="M316.151 64.0481C314.984 69.0224 311.578 73.1343 307.055 75.263C311.955 75.8774 315.852 79.7144 316.558 84.5849C318.303 79.99 322.031 76.3717 326.697 74.7747C324.115 70.3928 320.484 66.7024 316.151 64.0481ZM311.418 61.6808C310.711 67.3581 305.869 71.7516 300 71.7516C294.131 71.7516 289.289 67.3581 288.582 61.6808C290.348 60.9799 292.194 60.4368 294.102 60.0688C294.106 63.2208 296.663 65.7746 299.816 65.7746C302.971 65.7746 305.53 63.2164 305.53 60.0607C305.53 60.0405 305.529 60.0202 305.529 60C307.568 60.3676 309.538 60.9348 311.418 61.6808ZM283.849 64.0481C285.019 69.0359 288.44 73.1566 292.981 75.2802C288.265 75.9294 284.502 79.5686 283.668 84.2236C281.827 79.7011 278.049 76.1738 273.363 74.6726C275.942 70.3355 279.549 66.6818 283.849 64.0481ZM271.107 101.635C276.104 100.381 279.804 95.8591 279.804 90.4734C279.804 85.0878 276.104 80.5663 271.107 79.3123C270.432 81.0574 269.911 82.8788 269.56 84.7602C272.015 85.4011 273.827 87.6336 273.827 90.2891C273.827 92.9675 271.984 95.2155 269.497 95.8342C269.847 97.8407 270.39 99.7808 271.107 101.635ZM273.363 106.274C275.927 110.587 279.509 114.224 283.777 116.854C284.924 111.479 288.675 107.067 293.647 105.004C288.79 104.634 284.816 101.11 283.767 96.4757C281.964 101.117 278.134 104.746 273.363 106.274ZM311.456 119.251C310.911 113.403 305.99 108.827 300 108.827C294.01 108.827 289.089 113.403 288.544 119.251C290.336 119.965 292.21 120.516 294.149 120.887C294.118 120.645 294.102 120.399 294.102 120.149C294.102 116.993 296.66 114.435 299.816 114.435C302.971 114.435 305.53 116.993 305.53 120.149C305.53 120.423 305.51 120.693 305.473 120.957C307.546 120.587 309.548 120.011 311.456 119.251ZM316.223 116.854C320.525 114.203 324.129 110.53 326.697 106.172C321.954 104.549 318.18 100.836 316.473 96.1328C315.538 100.981 311.418 104.696 306.377 105.015C311.337 107.082 315.078 111.487 316.223 116.854ZM328.928 79.4016C324.101 80.7695 320.565 85.2085 320.565 90.4734C320.565 95.7384 324.101 100.177 328.928 101.545C329.627 99.7185 330.159 97.8085 330.503 95.8343C328.016 95.2156 326.173 92.9676 326.173 90.2891C326.173 87.6335 327.985 85.401 330.44 84.7601C330.095 82.9109 329.585 81.1194 328.928 79.4016Z" fill="url(#paint1_radial_234_1965)"></path> <path fill-rule="evenodd" clip-rule="evenodd" d="M316.151 64.0481C314.984 69.0224 311.578 73.1343 307.055 75.263C311.955 75.8774 315.852 79.7144 316.558 84.5849C318.303 79.99 322.031 76.3717 326.697 74.7747C324.115 70.3928 320.484 66.7024 316.151 64.0481ZM311.418 61.6808C310.711 67.3581 305.869 71.7516 300 71.7516C294.131 71.7516 289.289 67.3581 288.582 61.6808C290.348 60.9799 292.194 60.4368 294.102 60.0688C294.106 63.2208 296.663 65.7746 299.816 65.7746C302.971 65.7746 305.53 63.2164 305.53 60.0607C305.53 60.0405 305.529 60.0202 305.529 60C307.568 60.3676 309.538 60.9348 311.418 61.6808ZM283.849 64.0481C285.019 69.0359 288.44 73.1566 292.981 75.2802C288.265 75.9294 284.502 79.5686 283.668 84.2236C281.827 79.7011 278.049 76.1738 273.363 74.6726C275.942 70.3355 279.549 66.6818 283.849 64.0481ZM271.107 101.635C276.104 100.381 279.804 95.8591 279.804 90.4734C279.804 85.0878 276.104 80.5663 271.107 79.3123C270.432 81.0574 269.911 82.8788 269.56 84.7602C272.015 85.4011 273.827 87.6336 273.827 90.2891C273.827 92.9675 271.984 95.2155 269.497 95.8342C269.847 97.8407 270.39 99.7808 271.107 101.635ZM273.363 106.274C275.927 110.587 279.509 114.224 283.777 116.854C284.924 111.479 288.675 107.067 293.647 105.004C288.79 104.634 284.816 101.11 283.767 96.4757C281.964 101.117 278.134 104.746 273.363 106.274ZM311.456 119.251C310.911 113.403 305.99 108.827 300 108.827C294.01 108.827 289.089 113.403 288.544 119.251C290.336 119.965 292.21 120.516 294.149 120.887C294.118 120.645 294.102 120.399 294.102 120.149C294.102 116.993 296.66 114.435 299.816 114.435C302.971 114.435 305.53 116.993 305.53 120.149C305.53 120.423 305.51 120.693 305.473 120.957C307.546 120.587 309.548 120.011 311.456 119.251ZM316.223 116.854C320.525 114.203 324.129 110.53 326.697 106.172C321.954 104.549 318.18 100.836 316.473 96.1328C315.538 100.981 311.418 104.696 306.377 105.015C311.337 107.082 315.078 111.487 316.223 116.854ZM328.928 79.4016C324.101 80.7695 320.565 85.2085 320.565 90.4734C320.565 95.7384 324.101 100.177 328.928 101.545C329.627 99.7185 330.159 97.8085 330.503 95.8343C328.016 95.2156 326.173 92.9676 326.173 90.2891C326.173 87.6335 327.985 85.401 330.44 84.7601C330.095 82.9109 329.585 81.1194 328.928 79.4016Z" fill="url(#paint2_radial_234_1965)"></path> <path d="M303.481 88.2324C302.902 88.2324 302.612 88.6021 302.612 89.3414V95.5658C302.612 95.7317 302.553 95.8751 302.434 95.9958C302.315 96.1165 302.174 96.1769 302.011 96.1769H298.091C297.927 96.1769 297.786 96.1165 297.667 95.9958C297.549 95.8751 297.489 95.7317 297.489 95.5658V89.3414C297.489 88.6021 297.192 88.2324 296.598 88.2324C296.004 88.2324 295.707 88.6021 295.707 89.3414V95.5658C295.707 95.7317 295.648 95.8751 295.529 95.9958C295.41 96.1165 295.269 96.1769 295.106 96.1769H291.097C290.933 96.1769 290.792 96.1165 290.673 95.9958C290.555 95.8751 290.495 95.7317 290.495 95.5658V85.0184C290.495 84.8524 290.555 84.709 290.673 84.5883C290.792 84.4676 290.933 84.4072 291.097 84.4072H294.772C294.935 84.4072 295.076 84.4676 295.195 84.5883C295.314 84.709 295.373 84.8524 295.373 85.0184V85.7653C295.507 85.5993 295.67 85.4258 295.863 85.2447C296.071 85.0636 296.301 84.8976 296.554 84.7468C296.821 84.5959 297.111 84.4676 297.422 84.362C297.749 84.2564 298.098 84.196 298.469 84.1809C300.222 84.1205 301.395 84.7392 301.989 86.0369C302.33 85.5088 302.813 85.0712 303.437 84.7241C304.06 84.362 304.714 84.1809 305.397 84.1809C305.961 84.1809 306.488 84.279 306.978 84.4751C307.483 84.6562 307.921 84.9505 308.292 85.3579C308.664 85.7653 308.953 86.2934 309.161 86.9422C309.384 87.576 309.495 88.338 309.495 89.2283V95.5658C309.495 95.7317 309.436 95.8751 309.317 95.9958C309.198 96.1165 309.057 96.1769 308.894 96.1769H304.973C304.81 96.1769 304.669 96.1165 304.55 95.9958C304.431 95.8751 304.372 95.7317 304.372 95.5658V89.3414C304.372 88.6021 304.075 88.2324 303.481 88.2324Z" fill="white"></path> <rect x="85.5" y="151.457" width="429" height="41.3477" rx="16.5" fill="#D9D9D9"></rect> <rect x="85.5" y="151.457" width="429" height="41.3477" rx="16.5" fill="url(#paint3_linear_234_1965)"></rect> <rect x="95" y="160.957" width="410" height="22.3477" rx="11.1738" fill="url(#paint4_linear_234_1965)" fill-opacity="0.2"></rect> <rect x="85.5" y="151.457" width="429" height="41.3477" rx="16.5" stroke="#3D4B64"></rect> <rect x="85.5" y="209.805" width="429" height="41.3477" rx="16.5" fill="#D9D9D9"></rect> <rect x="85.5" y="209.805" width="429" height="41.3477" rx="16.5" fill="url(#paint5_linear_234_1965)"></rect> <rect x="95" y="219.305" width="410" height="22.3477" rx="11.1738" fill="url(#paint6_linear_234_1965)" fill-opacity="0.2"></rect> <rect x="85.5" y="209.805" width="429" height="41.3477" rx="16.5" stroke="#3D4B64"></rect> <rect x="85.5" y="268.152" width="429" height="41.3477" rx="16.5" fill="#D9D9D9"></rect> <rect x="85.5" y="268.152" width="429" height="41.3477" rx="16.5" fill="url(#paint7_linear_234_1965)"></rect> <rect x="95" y="277.652" width="410" height="22.3477" rx="11.1738" fill="url(#paint8_linear_234_1965)" fill-opacity="0.2"></rect> <rect x="85.5" y="268.152" width="429" height="41.3477" rx="16.5" stroke="#3D4B64"></rect> <rect x="150.5" y="326.5" width="299" height="59" rx="16.5" fill="url(#paint9_linear_234_1965)"></rect> <rect x="160" y="336" width="280" height="40" rx="20" fill="url(#paint10_linear_234_1965)" fill-opacity="0.2"></rect> <rect x="150.5" y="326.5" width="299" height="59" rx="16.5" stroke="#3D4B64"></rect> <defs> <linearGradient id="paint0_linear_234_1965" x1="279.818" y1="67.1885" x2="321.29" y2="115.664" gradientUnits="userSpaceOnUse"> <stop stop-color="#03E5FD"></stop> <stop offset="1" stop-color="#EA84F4"></stop> </linearGradient> <radialGradient id="paint1_radial_234_1965" cx="0" cy="0" r="1" gradientUnits="userSpaceOnUse" gradientTransform="translate(272.446 104.421) rotate(30.9691) scale(32.1353 32.1615)"> <stop stop-color="#8353FF"></stop> <stop offset="1" stop-color="#8353FF" stop-opacity="0"></stop> </radialGradient> <radialGradient id="paint2_radial_234_1965" cx="0" cy="0" r="1" gradientUnits="userSpaceOnUse" gradientTransform="translate(316.314 99.0757) rotate(126.707) scale(27.2934 27.3156)"> <stop stop-color="#F4D2B2"></stop> <stop offset="1" stop-color="#8353FF" stop-opacity="0"></stop> </radialGradient> <linearGradient id="paint3_linear_234_1965" x1="507.618" y1="150.957" x2="200.457" y2="353.403" gradientUnits="userSpaceOnUse"> <stop stop-color="#081A39"></stop> <stop offset="0.484375" stop-color="#162A4B"></stop> <stop offset="1" stop-color="#0D1D37"></stop> </linearGradient> <linearGradient id="paint4_linear_234_1965" x1="95" y1="172.663" x2="505" y2="172.663" gradientUnits="userSpaceOnUse"> <stop stop-color="#D9D9D9"></stop> <stop offset="1" stop-color="#D9D9D9" stop-opacity="0"></stop> </linearGradient> <linearGradient id="paint5_linear_234_1965" x1="507.618" y1="209.305" x2="200.457" y2="411.75" gradientUnits="userSpaceOnUse"> <stop stop-color="#081A39"></stop> <stop offset="0.484375" stop-color="#162A4B"></stop> <stop offset="1" stop-color="#0D1D37"></stop> </linearGradient> <linearGradient id="paint6_linear_234_1965" x1="95" y1="231.011" x2="505" y2="231.011" gradientUnits="userSpaceOnUse"> <stop stop-color="#D9D9D9"></stop> <stop offset="1" stop-color="#D9D9D9" stop-opacity="0"></stop> </linearGradient> <linearGradient id="paint7_linear_234_1965" x1="507.618" y1="267.652" x2="200.457" y2="470.098" gradientUnits="userSpaceOnUse"> <stop stop-color="#081A39"></stop> <stop offset="0.484375" stop-color="#162A4B"></stop> <stop offset="1" stop-color="#0D1D37"></stop> </linearGradient> <linearGradient id="paint8_linear_234_1965" x1="95" y1="289.358" x2="505" y2="289.358" gradientUnits="userSpaceOnUse"> <stop stop-color="#D9D9D9"></stop> <stop offset="1" stop-color="#D9D9D9" stop-opacity="0"></stop> </linearGradient> <linearGradient id="paint9_linear_234_1965" x1="444.85" y1="326" x2="166.753" y2="416.255" gradientUnits="userSpaceOnUse"> <stop stop-color="#4266A3"></stop> <stop offset="0.484375" stop-color="#274983"></stop> <stop offset="1" stop-color="#0F326D"></stop> </linearGradient> <linearGradient id="paint10_linear_234_1965" x1="160" y1="356.952" x2="440" y2="356.952" gradientUnits="userSpaceOnUse"> <stop stop-color="#D9D9D9"></stop> <stop offset="1" stop-color="#D9D9D9" stop-opacity="0"></stop> </linearGradient> </defs> </svg> 