<?xml version="1.0" encoding="UTF-8"?> <svg xmlns="http://www.w3.org/2000/svg" width="144" height="50" viewBox="0 0 144 50" fill="none"> <rect width="144" height="50" rx="10" fill="#22C55E" fill-opacity="0.1"></rect> <g clip-path="url(#clip0_509_2595)"> <path d="M36.0417 15.7568C35.0095 15.7729 33.9998 16.061 33.1146 16.5922C32.2294 17.1233 31.5 17.8786 31 18.7818C30.5001 17.8786 29.7707 17.1233 28.8855 16.5922C28.0003 16.061 26.9906 15.7729 25.9584 15.7568C24.3129 15.8283 22.7626 16.5482 21.6462 17.759C20.5297 18.9699 19.9379 20.5735 20 22.2193C20 26.3874 24.3872 30.9396 28.0667 34.026C28.8882 34.7164 29.927 35.0949 31 35.0949C32.0731 35.0949 33.1118 34.7164 33.9334 34.026C37.6129 30.9396 42 26.3874 42 22.2193C42.0621 20.5735 41.4703 18.9699 40.3539 17.759C39.2375 16.5482 37.6872 15.8283 36.0417 15.7568ZM32.7555 32.6235C32.2641 33.0373 31.6424 33.2642 31 33.2642C30.3577 33.2642 29.736 33.0373 29.2446 32.6235C24.5348 28.6718 21.8334 24.8804 21.8334 22.2193C21.7707 21.0595 22.1692 19.9219 22.942 19.0547C23.7147 18.1875 24.799 17.6611 25.9584 17.5902C27.1177 17.6611 28.202 18.1875 28.9748 19.0547C29.7475 19.9219 30.146 21.0595 30.0834 22.2193C30.0834 22.4625 30.18 22.6956 30.3519 22.8675C30.5238 23.0394 30.7569 23.136 31 23.136C31.2432 23.136 31.4763 23.0394 31.6482 22.8675C31.8201 22.6956 31.9167 22.4625 31.9167 22.2193C31.854 21.0595 32.2525 19.9219 33.0253 19.0547C33.798 18.1875 34.8823 17.6611 36.0417 17.5902C37.2011 17.6611 38.2854 18.1875 39.0581 19.0547C39.8309 19.9219 40.2294 21.0595 40.1667 22.2193C40.1667 24.8804 37.4653 28.6718 32.7555 32.6198V32.6235Z" fill="#22C55E"></path> </g> <path d="M56.8153 30.1491C56.1122 30.1491 55.4854 30.0284 54.935 29.7869C54.3881 29.5455 53.9531 29.2099 53.63 28.7802C53.3104 28.3469 53.1364 27.8445 53.108 27.2727H54.4503C54.4787 27.6243 54.5994 27.9279 54.8125 28.1836C55.0256 28.4357 55.3043 28.631 55.6488 28.7695C55.9933 28.908 56.375 28.9773 56.794 28.9773C57.2628 28.9773 57.6783 28.8956 58.0405 28.7322C58.4027 28.5689 58.6868 28.3416 58.8928 28.0504C59.0987 27.7592 59.2017 27.4219 59.2017 27.0384C59.2017 26.6371 59.1023 26.2837 58.9034 25.9783C58.7045 25.6694 58.4134 25.4279 58.0298 25.2539C57.6463 25.0799 57.1776 24.9929 56.6236 24.9929H55.75V23.821H56.6236C57.0568 23.821 57.4368 23.7429 57.7635 23.5866C58.0938 23.4304 58.3512 23.2102 58.5359 22.9261C58.7241 22.642 58.8182 22.3082 58.8182 21.9247C58.8182 21.5554 58.7365 21.234 58.5732 20.9606C58.4098 20.6871 58.179 20.4741 57.8807 20.3214C57.5859 20.1687 57.2379 20.0923 56.8366 20.0923C56.4602 20.0923 56.1051 20.1616 55.7713 20.3001C55.4411 20.435 55.1712 20.6321 54.9616 20.8913C54.7521 21.147 54.6385 21.456 54.6207 21.8182H53.3423C53.3636 21.2464 53.5359 20.7457 53.859 20.3161C54.1822 19.8828 54.6048 19.5455 55.1268 19.304C55.6523 19.0625 56.2294 18.9418 56.858 18.9418C57.5327 18.9418 58.1115 19.0785 58.5945 19.3519C59.0774 19.6218 59.4485 19.9787 59.7077 20.4226C59.967 20.8665 60.0966 21.3459 60.0966 21.8608C60.0966 22.4751 59.935 22.9989 59.6119 23.4322C59.2923 23.8654 58.8572 24.1655 58.3068 24.3324V24.4176C58.9957 24.5312 59.5337 24.8242 59.9208 25.2965C60.3079 25.7653 60.5014 26.3459 60.5014 27.0384C60.5014 27.6314 60.3398 28.1641 60.0167 28.6364C59.6971 29.1051 59.2603 29.4744 58.7063 29.7443C58.1523 30.0142 57.522 30.1491 56.8153 30.1491ZM61.8278 32.3438V28.8281H62.5096C62.6765 28.6541 62.8203 28.4659 62.9411 28.2635C63.0618 28.0611 63.1665 27.8214 63.2553 27.5444C63.3477 27.2638 63.4258 26.9229 63.4897 26.5217C63.5536 26.1168 63.6104 25.6286 63.6602 25.0568L63.9371 21.8182H69.136V28.8281H70.3931V32.3438H69.136V30H63.0849V32.3438H61.8278ZM63.9371 28.8281H67.8789V22.9901H65.109L64.896 25.0568C64.8072 25.9126 64.6971 26.6602 64.5657 27.2994C64.4343 27.9386 64.2248 28.4482 63.9371 28.8281ZM75.3856 30.1705C74.6469 30.1705 73.9988 29.9947 73.4413 29.6431C72.8873 29.2915 72.4541 28.7997 72.1416 28.1676C71.8327 27.5355 71.6782 26.7969 71.6782 25.9517C71.6782 25.0994 71.8327 24.3555 72.1416 23.7198C72.4541 23.0842 72.8873 22.5906 73.4413 22.239C73.9988 21.8874 74.6469 21.7116 75.3856 21.7116C76.1242 21.7116 76.7705 21.8874 77.3245 22.239C77.882 22.5906 78.3153 23.0842 78.6242 23.7198C78.9367 24.3555 79.093 25.0994 79.093 25.9517C79.093 26.7969 78.9367 27.5355 78.6242 28.1676C78.3153 28.7997 77.882 29.2915 77.3245 29.6431C76.7705 29.9947 76.1242 30.1705 75.3856 30.1705ZM75.3856 29.0412C75.9466 29.0412 76.4083 28.8974 76.7705 28.6097C77.1327 28.3221 77.4008 27.9439 77.5748 27.4751C77.7488 27.0064 77.8358 26.4986 77.8358 25.9517C77.8358 25.4048 77.7488 24.8952 77.5748 24.4229C77.4008 23.9506 77.1327 23.5689 76.7705 23.2777C76.4083 22.9865 75.9466 22.8409 75.3856 22.8409C74.8245 22.8409 74.3628 22.9865 74.0006 23.2777C73.6384 23.5689 73.3703 23.9506 73.1963 24.4229C73.0223 24.8952 72.9353 25.4048 72.9353 25.9517C72.9353 26.4986 73.0223 27.0064 73.1963 27.4751C73.3703 27.9439 73.6384 28.3221 74.0006 28.6097C74.3628 28.8974 74.8245 29.0412 75.3856 29.0412ZM81.0119 33.0682V21.8182H82.2264V23.1179H82.3755C82.4679 22.9759 82.5957 22.7947 82.7591 22.5746C82.926 22.3509 83.1639 22.152 83.4728 21.978C83.7853 21.8004 84.2079 21.7116 84.7406 21.7116C85.4295 21.7116 86.0368 21.8839 86.5623 22.2283C87.0879 22.5728 87.498 23.0611 87.7928 23.6932C88.0875 24.3253 88.2349 25.071 88.2349 25.9304C88.2349 26.7969 88.0875 27.5479 87.7928 28.1836C87.498 28.8157 87.0897 29.3058 86.5676 29.6538C86.0456 29.9982 85.4437 30.1705 84.7619 30.1705C84.2363 30.1705 83.8155 30.0835 83.4995 29.9094C83.1834 29.7319 82.9402 29.5312 82.7697 29.3075C82.5993 29.0803 82.4679 28.892 82.3755 28.7429H82.269V33.0682H81.0119ZM82.2477 25.9091C82.2477 26.527 82.3382 27.0721 82.5194 27.5444C82.7005 28.0131 82.965 28.3807 83.313 28.647C83.661 28.9098 84.0872 29.0412 84.5914 29.0412C85.117 29.0412 85.5556 28.9027 85.9071 28.6257C86.2623 28.3452 86.5286 27.9687 86.7061 27.4964C86.8873 27.0206 86.9778 26.4915 86.9778 25.9091C86.9778 25.3338 86.889 24.8153 86.7115 24.3537C86.5375 23.8885 86.2729 23.521 85.9178 23.2511C85.5662 22.9776 85.1241 22.8409 84.5914 22.8409C84.0801 22.8409 83.6504 22.9705 83.3024 23.2298C82.9544 23.4854 82.6916 23.8441 82.514 24.3058C82.3365 24.7638 82.2477 25.2983 82.2477 25.9091ZM93.4764 30.1705C92.7377 30.1705 92.0897 29.9947 91.5321 29.6431C90.9782 29.2915 90.5449 28.7997 90.2324 28.1676C89.9235 27.5355 89.769 26.7969 89.769 25.9517C89.769 25.0994 89.9235 24.3555 90.2324 23.7198C90.5449 23.0842 90.9782 22.5906 91.5321 22.239C92.0897 21.8874 92.7377 21.7116 93.4764 21.7116C94.215 21.7116 94.8613 21.8874 95.4153 22.239C95.9728 22.5906 96.4061 23.0842 96.715 23.7198C97.0275 24.3555 97.1838 25.0994 97.1838 25.9517C97.1838 26.7969 97.0275 27.5355 96.715 28.1676C96.4061 28.7997 95.9728 29.2915 95.4153 29.6431C94.8613 29.9947 94.215 30.1705 93.4764 30.1705ZM93.4764 29.0412C94.0375 29.0412 94.4991 28.8974 94.8613 28.6097C95.2235 28.3221 95.4917 27.9439 95.6657 27.4751C95.8397 27.0064 95.9267 26.4986 95.9267 25.9517C95.9267 25.4048 95.8397 24.8952 95.6657 24.4229C95.4917 23.9506 95.2235 23.5689 94.8613 23.2777C94.4991 22.9865 94.0375 22.8409 93.4764 22.8409C92.9153 22.8409 92.4537 22.9865 92.0914 23.2777C91.7292 23.5689 91.4611 23.9506 91.2871 24.4229C91.1131 24.8952 91.0261 25.4048 91.0261 25.9517C91.0261 26.4986 91.1131 27.0064 91.2871 27.4751C91.4611 27.9439 91.7292 28.3221 92.0914 28.6097C92.4537 28.8974 92.9153 29.0412 93.4764 29.0412ZM99.1027 30V21.8182H102.448C103.329 21.8182 104.028 22.017 104.547 22.4148C105.065 22.8125 105.324 23.3381 105.324 23.9915C105.324 24.4886 105.177 24.8739 104.882 25.1474C104.587 25.4173 104.209 25.6001 103.748 25.696C104.049 25.7386 104.342 25.8452 104.627 26.0156C104.914 26.1861 105.152 26.4205 105.34 26.7188C105.528 27.0135 105.623 27.3757 105.623 27.8054C105.623 28.2244 105.516 28.5991 105.303 28.9293C105.09 29.2596 104.785 29.5206 104.387 29.7124C103.989 29.9041 103.513 30 102.959 30H99.1027ZM100.296 28.8494H102.959C103.392 28.8494 103.732 28.7464 103.977 28.5405C104.222 28.3345 104.344 28.054 104.344 27.6989C104.344 27.2763 104.222 26.9442 103.977 26.7028C103.732 26.4577 103.392 26.3352 102.959 26.3352H100.296V28.8494ZM100.296 25.2486H102.448C102.785 25.2486 103.075 25.2024 103.316 25.1101C103.558 25.0142 103.742 24.8793 103.87 24.7053C104.002 24.5277 104.067 24.3182 104.067 24.0767C104.067 23.7322 103.923 23.4624 103.636 23.267C103.348 23.0682 102.952 22.9688 102.448 22.9688H100.296V25.2486ZM108.612 24.7798H110.956C111.915 24.7798 112.648 25.0231 113.156 25.5096C113.664 25.9961 113.918 26.6122 113.918 27.358C113.918 27.848 113.804 28.2937 113.577 28.695C113.349 29.0927 113.016 29.4105 112.575 29.6484C112.135 29.8828 111.595 30 110.956 30H107.526V21.8182H108.783V28.8281H110.956C111.453 28.8281 111.862 28.6967 112.181 28.4339C112.501 28.1712 112.661 27.8338 112.661 27.4219C112.661 26.9886 112.501 26.6353 112.181 26.3619C111.862 26.0884 111.453 25.9517 110.956 25.9517H108.612V24.7798ZM119.262 30.1705C118.473 30.1705 117.793 29.9964 117.222 29.6484C116.653 29.2969 116.215 28.8068 115.906 28.1783C115.6 27.5462 115.448 26.8111 115.448 25.973C115.448 25.1349 115.6 24.3963 115.906 23.7571C116.215 23.1143 116.644 22.6136 117.195 22.255C117.749 21.8928 118.395 21.7116 119.134 21.7116C119.56 21.7116 119.981 21.7827 120.396 21.9247C120.812 22.0668 121.19 22.2976 121.531 22.6172C121.872 22.9332 122.143 23.3523 122.346 23.8743C122.548 24.3963 122.649 25.0391 122.649 25.8026V26.3352H116.343V25.2486H121.371C121.371 24.7869 121.279 24.375 121.094 24.0128C120.913 23.6506 120.654 23.3647 120.316 23.1552C119.983 22.9457 119.588 22.8409 119.134 22.8409C118.633 22.8409 118.2 22.9652 117.834 23.2138C117.472 23.4588 117.193 23.7784 116.998 24.1726C116.802 24.5668 116.705 24.9893 116.705 25.4403V26.1648C116.705 26.7827 116.811 27.3065 117.024 27.7362C117.241 28.1623 117.541 28.4872 117.925 28.7109C118.308 28.9311 118.754 29.0412 119.262 29.0412C119.592 29.0412 119.89 28.995 120.157 28.9027C120.426 28.8068 120.659 28.6648 120.854 28.4766C121.05 28.2848 121.201 28.0469 121.307 27.7628L122.522 28.1037C122.394 28.5156 122.179 28.8778 121.877 29.1903C121.575 29.4993 121.202 29.7408 120.758 29.9148C120.315 30.0852 119.816 30.1705 119.262 30.1705Z" fill="#22C55E"></path> <defs> <clipPath id="clip0_509_2595"> <rect width="22" height="22" fill="white" transform="translate(20 14)"></rect> </clipPath> </defs> </svg> 