<?xml version="1.0" encoding="UTF-8"?> <svg xmlns="http://www.w3.org/2000/svg" width="227" height="75" viewBox="0 0 227 75" fill="none"> <path d="M1.11812 4.21023V3.27273H7.66357V4.21023H4.91926V12H3.86244V4.21023H1.11812ZM10.9533 12.1364C10.3227 12.1364 9.77863 11.9972 9.32124 11.7188C8.8667 11.4375 8.51585 11.0455 8.26869 10.5426C8.02437 10.0369 7.90221 9.44886 7.90221 8.77841C7.90221 8.10795 8.02437 7.51705 8.26869 7.00568C8.51585 6.49148 8.8596 6.09091 9.29994 5.80398C9.74312 5.5142 10.2602 5.36932 10.8511 5.36932C11.192 5.36932 11.5286 5.42614 11.861 5.53977C12.1934 5.65341 12.496 5.83807 12.7687 6.09375C13.0414 6.34659 13.2587 6.68182 13.4207 7.09943C13.5826 7.51705 13.6636 8.03125 13.6636 8.64205V9.06818H8.61812V8.19886H12.6408C12.6408 7.82955 12.567 7.5 12.4193 7.21023C12.2744 6.92045 12.067 6.69176 11.7971 6.52415C11.5301 6.35653 11.2147 6.27273 10.8511 6.27273C10.4505 6.27273 10.1039 6.37216 9.8113 6.57102C9.52153 6.76705 9.29852 7.02273 9.14227 7.33807C8.98602 7.65341 8.90789 7.99148 8.90789 8.35227V8.93182C8.90789 9.42614 8.99312 9.84517 9.16357 10.1889C9.33687 10.5298 9.57693 10.7898 9.88374 10.9688C10.1906 11.1449 10.5471 11.233 10.9533 11.233C11.2176 11.233 11.4562 11.196 11.6693 11.1222C11.8852 11.0455 12.0712 10.9318 12.2275 10.7812C12.3837 10.6278 12.5045 10.4375 12.5897 10.2102L13.5613 10.483C13.459 10.8125 13.2872 11.1023 13.0457 11.3523C12.8042 11.5994 12.5059 11.7926 12.1508 11.9318C11.7957 12.0682 11.3965 12.1364 10.9533 12.1364ZM18.7729 10.6364L21.057 5.45455H22.0116L19.182 12H18.3639L15.5854 5.45455H16.5229L18.7729 10.6364ZM16.1991 5.45455V12H15.1934V5.45455H16.1991ZM21.3468 12V5.45455H22.3525V12H21.3468ZM24.1934 12V5.45455H29.3411V12H28.3354V6.39205H25.1991V12H24.1934ZM33.9221 12.1364C33.2914 12.1364 32.7474 11.9972 32.29 11.7188C31.8354 11.4375 31.4846 11.0455 31.2374 10.5426C30.9931 10.0369 30.871 9.44886 30.871 8.77841C30.871 8.10795 30.9931 7.51705 31.2374 7.00568C31.4846 6.49148 31.8283 6.09091 32.2687 5.80398C32.7119 5.5142 33.2289 5.36932 33.8198 5.36932C34.1607 5.36932 34.4974 5.42614 34.8298 5.53977C35.1622 5.65341 35.4647 5.83807 35.7374 6.09375C36.0102 6.34659 36.2275 6.68182 36.3894 7.09943C36.5514 7.51705 36.6323 8.03125 36.6323 8.64205V9.06818H31.5869V8.19886H35.6096C35.6096 7.82955 35.5357 7.5 35.388 7.21023C35.2431 6.92045 35.0357 6.69176 34.7658 6.52415C34.4988 6.35653 34.1835 6.27273 33.8198 6.27273C33.4193 6.27273 33.0727 6.37216 32.7801 6.57102C32.4903 6.76705 32.2673 7.02273 32.111 7.33807C31.9548 7.65341 31.8766 7.99148 31.8766 8.35227V8.93182C31.8766 9.42614 31.9619 9.84517 32.1323 10.1889C32.3056 10.5298 32.5457 10.7898 32.8525 10.9688C33.1593 11.1449 33.5158 11.233 33.9221 11.233C34.1863 11.233 34.4249 11.196 34.638 11.1222C34.8539 11.0455 35.04 10.9318 35.1962 10.7812C35.3525 10.6278 35.4732 10.4375 35.5585 10.2102L36.5301 10.483C36.4278 10.8125 36.2559 11.1023 36.0144 11.3523C35.7729 11.5994 35.4747 11.7926 35.1195 11.9318C34.7644 12.0682 34.3653 12.1364 33.9221 12.1364ZM38.1622 14.4545V5.45455H39.1337V6.49432H39.2531C39.3269 6.38068 39.4292 6.2358 39.5599 6.05966C39.6934 5.88068 39.8837 5.72159 40.1309 5.58239C40.3809 5.44034 40.719 5.36932 41.1451 5.36932C41.6962 5.36932 42.182 5.5071 42.6025 5.78267C43.0229 6.05824 43.3511 6.44886 43.5869 6.95455C43.8227 7.46023 43.9406 8.05682 43.9406 8.74432C43.9406 9.4375 43.8227 10.0384 43.5869 10.5469C43.3511 11.0526 43.0244 11.4446 42.6068 11.723C42.1891 11.9986 41.7076 12.1364 41.1622 12.1364C40.7417 12.1364 40.4051 12.0668 40.1522 11.9276C39.8994 11.7855 39.7048 11.625 39.5684 11.446C39.432 11.2642 39.3269 11.1136 39.2531 10.9943H39.1678V14.4545H38.1622ZM39.1508 8.72727C39.1508 9.22159 39.2232 9.65767 39.3681 10.0355C39.513 10.4105 39.7247 10.7045 40.0031 10.9176C40.2815 11.1278 40.6224 11.233 41.0258 11.233C41.4462 11.233 41.7971 11.1222 42.0783 10.9006C42.3624 10.6761 42.5755 10.375 42.7176 9.99716C42.8624 9.61648 42.9349 9.19318 42.9349 8.72727C42.9349 8.26705 42.8639 7.85227 42.7218 7.48295C42.5826 7.1108 42.371 6.81676 42.0869 6.60085C41.8056 6.3821 41.4519 6.27273 41.0258 6.27273C40.6167 6.27273 40.2729 6.37642 39.9945 6.58381C39.7161 6.78835 39.5059 7.07528 39.3639 7.4446C39.2218 7.81108 39.1508 8.23864 39.1508 8.72727ZM47.4008 12.1534C46.986 12.1534 46.6096 12.0753 46.2715 11.919C45.9335 11.7599 45.665 11.5312 45.4661 11.233C45.2673 10.9318 45.1678 10.5682 45.1678 10.142C45.1678 9.76705 45.2417 9.46307 45.3894 9.23011C45.5372 8.99432 45.7346 8.80966 45.9818 8.67614C46.2289 8.54261 46.5016 8.44318 46.7999 8.37784C47.1011 8.30966 47.4036 8.25568 47.7076 8.21591C48.1053 8.16477 48.4278 8.12642 48.6749 8.10085C48.9249 8.07244 49.1068 8.02557 49.2204 7.96023C49.3369 7.89489 49.3951 7.78125 49.3951 7.61932V7.58523C49.3951 7.16477 49.2801 6.83807 49.0499 6.60511C48.8227 6.37216 48.4775 6.25568 48.0144 6.25568C47.5343 6.25568 47.1579 6.3608 46.8852 6.57102C46.6124 6.78125 46.4207 7.00568 46.3099 7.24432L45.3553 6.90341C45.5258 6.50568 45.7531 6.19602 46.0372 5.97443C46.3241 5.75 46.6366 5.59375 46.9747 5.50568C47.3156 5.41477 47.6508 5.36932 47.9803 5.36932C48.1906 5.36932 48.432 5.39489 48.7048 5.44602C48.9803 5.49432 49.246 5.59517 49.5016 5.74858C49.7602 5.90199 49.9747 6.13352 50.1451 6.44318C50.3156 6.75284 50.4008 7.16761 50.4008 7.6875V12H49.3951V11.1136H49.344C49.2758 11.2557 49.1622 11.4077 49.0031 11.5696C48.844 11.7315 48.6323 11.8693 48.3681 11.983C48.1039 12.0966 47.7815 12.1534 47.4008 12.1534ZM47.5542 11.25C47.9519 11.25 48.2872 11.1719 48.5599 11.0156C48.8354 10.8594 49.0428 10.6577 49.182 10.4105C49.3241 10.1634 49.3951 9.90341 49.3951 9.63068V8.71023C49.3525 8.76136 49.2587 8.80824 49.1139 8.85085C48.9718 8.89062 48.807 8.92614 48.6195 8.95739C48.4349 8.9858 48.2545 9.01136 48.0783 9.03409C47.9051 9.05398 47.7644 9.07102 47.6565 9.08523C47.3951 9.11932 47.1508 9.17472 46.9235 9.25142C46.6991 9.32528 46.5173 9.4375 46.3781 9.58807C46.2417 9.7358 46.1735 9.9375 46.1735 10.1932C46.1735 10.5426 46.3028 10.8068 46.5613 10.9858C46.8227 11.1619 47.1536 11.25 47.5542 11.25ZM51.3457 6.39205V5.45455H56.6639V6.39205H54.5162V12H53.5105V6.39205H51.3457ZM58.7786 14.4545C58.6082 14.4545 58.4562 14.4403 58.3227 14.4119C58.1891 14.3864 58.0968 14.3608 58.0457 14.3352L58.3014 13.4489C58.5457 13.5114 58.7616 13.5341 58.9491 13.517C59.1366 13.5 59.3028 13.4162 59.4477 13.2656C59.5954 13.1179 59.7303 12.8778 59.8525 12.5455L60.04 12.0341L57.6195 5.45455H58.7104L60.5173 10.6705H60.5854L62.3923 5.45455H63.4832L60.7048 12.9545C60.5798 13.2926 60.4249 13.5724 60.2403 13.794C60.0556 14.0185 59.8411 14.1847 59.5968 14.2926C59.3553 14.4006 59.0826 14.4545 58.7786 14.4545ZM64.8106 14.4545V5.45455H65.7822V6.49432H65.9015C65.9754 6.38068 66.0776 6.2358 66.2083 6.05966C66.3418 5.88068 66.5322 5.72159 66.7793 5.58239C67.0293 5.44034 67.3674 5.36932 67.7935 5.36932C68.3447 5.36932 68.8305 5.5071 69.2509 5.78267C69.6714 6.05824 69.9995 6.44886 70.2353 6.95455C70.4711 7.46023 70.589 8.05682 70.589 8.74432C70.589 9.4375 70.4711 10.0384 70.2353 10.5469C69.9995 11.0526 69.6728 11.4446 69.2552 11.723C68.8376 11.9986 68.356 12.1364 67.8106 12.1364C67.3901 12.1364 67.0535 12.0668 66.8006 11.9276C66.5478 11.7855 66.3532 11.625 66.2168 11.446C66.0805 11.2642 65.9754 11.1136 65.9015 10.9943H65.8163V14.4545H64.8106ZM65.7992 8.72727C65.7992 9.22159 65.8717 9.65767 66.0166 10.0355C66.1614 10.4105 66.3731 10.7045 66.6515 10.9176C66.9299 11.1278 67.2708 11.233 67.6742 11.233C68.0947 11.233 68.4455 11.1222 68.7268 10.9006C69.0109 10.6761 69.2239 10.375 69.366 9.99716C69.5109 9.61648 69.5833 9.19318 69.5833 8.72727C69.5833 8.26705 69.5123 7.85227 69.3703 7.48295C69.231 7.1108 69.0194 6.81676 68.7353 6.60085C68.4541 6.3821 68.1004 6.27273 67.6742 6.27273C67.2651 6.27273 66.9214 6.37642 66.643 6.58381C66.3646 6.78835 66.1543 7.07528 66.0123 7.4446C65.8703 7.81108 65.7992 8.23864 65.7992 8.72727ZM74.0492 12.1534C73.6345 12.1534 73.258 12.0753 72.92 11.919C72.5819 11.7599 72.3134 11.5312 72.1146 11.233C71.9157 10.9318 71.8163 10.5682 71.8163 10.142C71.8163 9.76705 71.8901 9.46307 72.0379 9.23011C72.1856 8.99432 72.383 8.80966 72.6302 8.67614C72.8774 8.54261 73.1501 8.44318 73.4484 8.37784C73.7495 8.30966 74.0521 8.25568 74.356 8.21591C74.7538 8.16477 75.0762 8.12642 75.3234 8.10085C75.5734 8.07244 75.7552 8.02557 75.8688 7.96023C75.9853 7.89489 76.0435 7.78125 76.0435 7.61932V7.58523C76.0435 7.16477 75.9285 6.83807 75.6984 6.60511C75.4711 6.37216 75.1259 6.25568 74.6629 6.25568C74.1828 6.25568 73.8063 6.3608 73.5336 6.57102C73.2609 6.78125 73.0691 7.00568 72.9583 7.24432L72.0038 6.90341C72.1742 6.50568 72.4015 6.19602 72.6856 5.97443C72.9725 5.75 73.285 5.59375 73.6231 5.50568C73.964 5.41477 74.2992 5.36932 74.6288 5.36932C74.839 5.36932 75.0805 5.39489 75.3532 5.44602C75.6288 5.49432 75.8944 5.59517 76.1501 5.74858C76.4086 5.90199 76.6231 6.13352 76.7935 6.44318C76.964 6.75284 77.0492 7.16761 77.0492 7.6875V12H76.0435V11.1136H75.9924C75.9242 11.2557 75.8106 11.4077 75.6515 11.5696C75.4924 11.7315 75.2808 11.8693 75.0166 11.983C74.7524 12.0966 74.4299 12.1534 74.0492 12.1534ZM74.2026 11.25C74.6004 11.25 74.9356 11.1719 75.2083 11.0156C75.4839 10.8594 75.6913 10.6577 75.8305 10.4105C75.9725 10.1634 76.0435 9.90341 76.0435 9.63068V8.71023C76.0009 8.76136 75.9072 8.80824 75.7623 8.85085C75.6203 8.89062 75.4555 8.92614 75.268 8.95739C75.0833 8.9858 74.9029 9.01136 74.7268 9.03409C74.5535 9.05398 74.4129 9.07102 74.3049 9.08523C74.0435 9.11932 73.7992 9.17472 73.572 9.25142C73.3475 9.32528 73.1657 9.4375 73.0265 9.58807C72.8901 9.7358 72.822 9.9375 72.822 10.1932C72.822 10.5426 72.9512 10.8068 73.2097 10.9858C73.4711 11.1619 73.8021 11.25 74.2026 11.25ZM79.6178 12.0682C79.4075 12.0682 79.2271 11.9929 79.0766 11.8423C78.926 11.6918 78.8507 11.5114 78.8507 11.3011C78.8507 11.0909 78.926 10.9105 79.0766 10.7599C79.2271 10.6094 79.4075 10.5341 79.6178 10.5341C79.828 10.5341 80.0084 10.6094 80.159 10.7599C80.3095 10.9105 80.3848 11.0909 80.3848 11.3011C80.3848 11.4403 80.3493 11.5682 80.2783 11.6847C80.2101 11.8011 80.1178 11.8949 80.0013 11.9659C79.8877 12.0341 79.7598 12.0682 79.6178 12.0682ZM85.2236 4.21023V3.27273H91.769V4.21023H89.0247V12H87.9679V4.21023H85.2236ZM94.9736 12.1364C94.3827 12.1364 93.8642 11.9957 93.4182 11.7145C92.975 11.4332 92.6284 11.0398 92.3784 10.5341C92.1313 10.0284 92.0077 9.4375 92.0077 8.76136C92.0077 8.07955 92.1313 7.48437 92.3784 6.97585C92.6284 6.46733 92.975 6.07244 93.4182 5.79119C93.8642 5.50994 94.3827 5.36932 94.9736 5.36932C95.5645 5.36932 96.0815 5.50994 96.5247 5.79119C96.9707 6.07244 97.3173 6.46733 97.5645 6.97585C97.8145 7.48437 97.9395 8.07955 97.9395 8.76136C97.9395 9.4375 97.8145 10.0284 97.5645 10.5341C97.3173 11.0398 96.9707 11.4332 96.5247 11.7145C96.0815 11.9957 95.5645 12.1364 94.9736 12.1364ZM94.9736 11.233C95.4225 11.233 95.7918 11.1179 96.0815 10.8878C96.3713 10.6577 96.5858 10.3551 96.725 9.98011C96.8642 9.60511 96.9338 9.19886 96.9338 8.76136C96.9338 8.32386 96.8642 7.91619 96.725 7.53835C96.5858 7.16051 96.3713 6.85511 96.0815 6.62216C95.7918 6.3892 95.4225 6.27273 94.9736 6.27273C94.5247 6.27273 94.1554 6.3892 93.8656 6.62216C93.5759 6.85511 93.3614 7.16051 93.2222 7.53835C93.083 7.91619 93.0134 8.32386 93.0134 8.76136C93.0134 9.19886 93.083 9.60511 93.2222 9.98011C93.3614 10.3551 93.5759 10.6577 93.8656 10.8878C94.1554 11.1179 94.5247 11.233 94.9736 11.233ZM104.52 5.45455V12H103.514V5.45455H104.52ZM104.128 8.57386V9.51136C103.901 9.59659 103.675 9.67188 103.451 9.73722C103.226 9.79972 102.99 9.84943 102.743 9.88636C102.496 9.92045 102.225 9.9375 101.929 9.9375C101.188 9.9375 100.593 9.73722 100.144 9.33665C99.6977 8.93608 99.4747 8.33523 99.4747 7.53409V5.4375H100.48V7.53409C100.48 7.86932 100.544 8.14489 100.672 8.3608C100.8 8.5767 100.973 8.73722 101.192 8.84233C101.411 8.94744 101.656 9 101.929 9C102.355 9 102.74 8.96165 103.084 8.88494C103.431 8.8054 103.779 8.7017 104.128 8.57386ZM110.746 8.26705V9.20455H107.132V8.26705H110.746ZM107.371 5.45455V12H106.365V5.45455H107.371ZM111.513 5.45455V12H110.507V5.45455H111.513ZM116.009 12.1364C115.418 12.1364 114.899 11.9957 114.453 11.7145C114.01 11.4332 113.664 11.0398 113.414 10.5341C113.166 10.0284 113.043 9.4375 113.043 8.76136C113.043 8.07955 113.166 7.48437 113.414 6.97585C113.664 6.46733 114.01 6.07244 114.453 5.79119C114.899 5.50994 115.418 5.36932 116.009 5.36932C116.6 5.36932 117.117 5.50994 117.56 5.79119C118.006 6.07244 118.352 6.46733 118.6 6.97585C118.85 7.48437 118.975 8.07955 118.975 8.76136C118.975 9.4375 118.85 10.0284 118.6 10.5341C118.352 11.0398 118.006 11.4332 117.56 11.7145C117.117 11.9957 116.6 12.1364 116.009 12.1364ZM116.009 11.233C116.458 11.233 116.827 11.1179 117.117 10.8878C117.406 10.6577 117.621 10.3551 117.76 9.98011C117.899 9.60511 117.969 9.19886 117.969 8.76136C117.969 8.32386 117.899 7.91619 117.76 7.53835C117.621 7.16051 117.406 6.85511 117.117 6.62216C116.827 6.3892 116.458 6.27273 116.009 6.27273C115.56 6.27273 115.191 6.3892 114.901 6.62216C114.611 6.85511 114.397 7.16051 114.257 7.53835C114.118 7.91619 114.049 8.32386 114.049 8.76136C114.049 9.19886 114.118 9.60511 114.257 9.98011C114.397 10.3551 114.611 10.6577 114.901 10.8878C115.191 11.1179 115.56 11.233 116.009 11.233ZM123.169 12.1364C122.555 12.1364 122.027 11.9915 121.584 11.7017C121.14 11.4119 120.8 11.0128 120.561 10.5043C120.322 9.99574 120.203 9.41477 120.203 8.76136C120.203 8.09659 120.325 7.50994 120.569 7.00142C120.817 6.49006 121.16 6.09091 121.601 5.80398C122.044 5.5142 122.561 5.36932 123.152 5.36932C123.612 5.36932 124.027 5.45455 124.396 5.625C124.765 5.79545 125.068 6.03409 125.304 6.34091C125.54 6.64773 125.686 7.00568 125.743 7.41477H124.737C124.66 7.11648 124.49 6.85227 124.226 6.62216C123.964 6.3892 123.612 6.27273 123.169 6.27273C122.777 6.27273 122.433 6.375 122.138 6.57955C121.845 6.78125 121.616 7.06676 121.452 7.43608C121.29 7.80256 121.209 8.23295 121.209 8.72727C121.209 9.23295 121.288 9.6733 121.447 10.0483C121.609 10.4233 121.837 10.7145 122.129 10.9219C122.425 11.1293 122.771 11.233 123.169 11.233C123.43 11.233 123.667 11.1875 123.881 11.0966C124.094 11.0057 124.274 10.875 124.422 10.7045C124.569 10.5341 124.675 10.3295 124.737 10.0909H125.743C125.686 10.4773 125.545 10.8253 125.321 11.1349C125.099 11.4418 124.805 11.6861 124.439 11.8679C124.075 12.0469 123.652 12.1364 123.169 12.1364ZM126.697 6.39205V5.45455H132.015V6.39205H129.868V12H128.862V6.39205H126.697ZM134.352 7.82386H136.227C136.994 7.82386 137.58 8.01847 137.987 8.40767C138.393 8.79687 138.596 9.28977 138.596 9.88636C138.596 10.2784 138.505 10.6349 138.323 10.956C138.142 11.2741 137.875 11.5284 137.522 11.7188C137.17 11.9062 136.738 12 136.227 12H133.482V5.45455H134.488V11.0625H136.227C136.625 11.0625 136.951 10.9574 137.207 10.7472C137.463 10.5369 137.59 10.267 137.59 9.9375C137.59 9.59091 137.463 9.30824 137.207 9.08949C136.951 8.87074 136.625 8.76136 136.227 8.76136H134.352V7.82386ZM146.161 12.1364C145.57 12.1364 145.052 11.9957 144.606 11.7145C144.163 11.4332 143.816 11.0398 143.566 10.5341C143.319 10.0284 143.195 9.4375 143.195 8.76136C143.195 8.07955 143.319 7.48437 143.566 6.97585C143.816 6.46733 144.163 6.07244 144.606 5.79119C145.052 5.50994 145.57 5.36932 146.161 5.36932C146.752 5.36932 147.269 5.50994 147.712 5.79119C148.158 6.07244 148.505 6.46733 148.752 6.97585C149.002 7.48437 149.127 8.07955 149.127 8.76136C149.127 9.4375 149.002 10.0284 148.752 10.5341C148.505 11.0398 148.158 11.4332 147.712 11.7145C147.269 11.9957 146.752 12.1364 146.161 12.1364ZM146.161 11.233C146.61 11.233 146.979 11.1179 147.269 10.8878C147.559 10.6577 147.773 10.3551 147.913 9.98011C148.052 9.60511 148.121 9.19886 148.121 8.76136C148.121 8.32386 148.052 7.91619 147.913 7.53835C147.773 7.16051 147.559 6.85511 147.269 6.62216C146.979 6.3892 146.61 6.27273 146.161 6.27273C145.712 6.27273 145.343 6.3892 145.053 6.62216C144.763 6.85511 144.549 7.16051 144.41 7.53835C144.27 7.91619 144.201 8.32386 144.201 8.76136C144.201 9.19886 144.27 9.60511 144.41 9.98011C144.549 10.3551 144.763 10.6577 145.053 10.8878C145.343 11.1179 145.712 11.233 146.161 11.233ZM149.807 6.39205V5.45455H155.125V6.39205H152.977V12H151.971V6.39205H149.807ZM156.592 12V5.45455H159.268C159.973 5.45455 160.532 5.61364 160.947 5.93182C161.362 6.25 161.569 6.67045 161.569 7.19318C161.569 7.59091 161.451 7.89915 161.215 8.1179C160.98 8.33381 160.677 8.48011 160.308 8.55682C160.549 8.59091 160.784 8.67614 161.011 8.8125C161.241 8.94886 161.431 9.13636 161.582 9.375C161.732 9.6108 161.808 9.90057 161.808 10.2443C161.808 10.5795 161.723 10.8793 161.552 11.1435C161.382 11.4077 161.137 11.6165 160.819 11.7699C160.501 11.9233 160.12 12 159.677 12H156.592ZM157.546 11.0795H159.677C160.024 11.0795 160.295 10.9972 160.491 10.8324C160.687 10.6676 160.785 10.4432 160.785 10.1591C160.785 9.82102 160.687 9.5554 160.491 9.36222C160.295 9.16619 160.024 9.06818 159.677 9.06818H157.546V11.0795ZM157.546 8.19886H159.268C159.538 8.19886 159.769 8.16193 159.963 8.08807C160.156 8.01136 160.303 7.90341 160.406 7.7642C160.511 7.62216 160.563 7.45455 160.563 7.26136C160.563 6.9858 160.448 6.76989 160.218 6.61364C159.988 6.45455 159.671 6.375 159.268 6.375H157.546V8.19886ZM166.074 12.1364C165.444 12.1364 164.9 11.9972 164.442 11.7188C163.988 11.4375 163.637 11.0455 163.39 10.5426C163.145 10.0369 163.023 9.44886 163.023 8.77841C163.023 8.10795 163.145 7.51705 163.39 7.00568C163.637 6.49148 163.981 6.09091 164.421 5.80398C164.864 5.5142 165.381 5.36932 165.972 5.36932C166.313 5.36932 166.65 5.42614 166.982 5.53977C167.314 5.65341 167.617 5.83807 167.89 6.09375C168.163 6.34659 168.38 6.68182 168.542 7.09943C168.704 7.51705 168.785 8.03125 168.785 8.64205V9.06818H163.739V8.19886H167.762C167.762 7.82955 167.688 7.5 167.54 7.21023C167.395 6.92045 167.188 6.69176 166.918 6.52415C166.651 6.35653 166.336 6.27273 165.972 6.27273C165.572 6.27273 165.225 6.37216 164.932 6.57102C164.643 6.76705 164.42 7.02273 164.263 7.33807C164.107 7.65341 164.029 7.99148 164.029 8.35227V8.93182C164.029 9.42614 164.114 9.84517 164.285 10.1889C164.458 10.5298 164.698 10.7898 165.005 10.9688C165.312 11.1449 165.668 11.233 166.074 11.233C166.339 11.233 166.577 11.196 166.79 11.1222C167.006 11.0455 167.192 10.9318 167.349 10.7812C167.505 10.6278 167.626 10.4375 167.711 10.2102L168.682 10.483C168.58 10.8125 168.408 11.1023 168.167 11.3523C167.925 11.5994 167.627 11.7926 167.272 11.9318C166.917 12.0682 166.518 12.1364 166.074 12.1364ZM169.705 6.39205V5.45455H175.023V6.39205H172.876V12H171.87V6.39205H169.705ZM178.81 12.1364C178.219 12.1364 177.7 11.9957 177.254 11.7145C176.811 11.4332 176.464 11.0398 176.214 10.5341C175.967 10.0284 175.844 9.4375 175.844 8.76136C175.844 8.07955 175.967 7.48437 176.214 6.97585C176.464 6.46733 176.811 6.07244 177.254 5.79119C177.7 5.50994 178.219 5.36932 178.81 5.36932C179.4 5.36932 179.917 5.50994 180.361 5.79119C180.807 6.07244 181.153 6.46733 181.4 6.97585C181.65 7.48437 181.775 8.07955 181.775 8.76136C181.775 9.4375 181.65 10.0284 181.4 10.5341C181.153 11.0398 180.807 11.4332 180.361 11.7145C179.917 11.9957 179.4 12.1364 178.81 12.1364ZM178.81 11.233C179.258 11.233 179.628 11.1179 179.917 10.8878C180.207 10.6577 180.422 10.3551 180.561 9.98011C180.7 9.60511 180.77 9.19886 180.77 8.76136C180.77 8.32386 180.7 7.91619 180.561 7.53835C180.422 7.16051 180.207 6.85511 179.917 6.62216C179.628 6.3892 179.258 6.27273 178.81 6.27273C178.361 6.27273 177.991 6.3892 177.702 6.62216C177.412 6.85511 177.197 7.16051 177.058 7.53835C176.919 7.91619 176.849 8.32386 176.849 8.76136C176.849 9.19886 176.919 9.60511 177.058 9.98011C177.197 10.3551 177.412 10.6577 177.702 10.8878C177.991 11.1179 178.361 11.233 178.81 11.233ZM183.311 12V5.45455H185.987C186.691 5.45455 187.251 5.61364 187.666 5.93182C188.08 6.25 188.288 6.67045 188.288 7.19318C188.288 7.59091 188.17 7.89915 187.934 8.1179C187.698 8.33381 187.396 8.48011 187.027 8.55682C187.268 8.59091 187.502 8.67614 187.73 8.8125C187.96 8.94886 188.15 9.13636 188.301 9.375C188.451 9.6108 188.527 9.90057 188.527 10.2443C188.527 10.5795 188.441 10.8793 188.271 11.1435C188.1 11.4077 187.856 11.6165 187.538 11.7699C187.22 11.9233 186.839 12 186.396 12H183.311ZM184.265 11.0795H186.396C186.742 11.0795 187.014 10.9972 187.21 10.8324C187.406 10.6676 187.504 10.4432 187.504 10.1591C187.504 9.82102 187.406 9.5554 187.21 9.36222C187.014 9.16619 186.742 9.06818 186.396 9.06818H184.265V11.0795ZM184.265 8.19886H185.987C186.257 8.19886 186.488 8.16193 186.681 8.08807C186.875 8.01136 187.022 7.90341 187.125 7.7642C187.23 7.62216 187.282 7.45455 187.282 7.26136C187.282 6.9858 187.167 6.76989 186.937 6.61364C186.707 6.45455 186.39 6.375 185.987 6.375H184.265V8.19886Z" fill="#525252"></path> <rect x="0.833496" y="25.5" width="225.667" height="49" rx="9.5" fill="#E0E0E0"></rect> <g clip-path="url(#clip0_509_2702)"> <path d="M34.5835 59H24.0835C23.0893 58.9988 22.1362 58.6033 21.4332 57.9003C20.7302 57.1973 20.3347 56.2442 20.3335 55.25V44.75C20.3347 43.7558 20.7302 42.8027 21.4332 42.0997C22.1362 41.3967 23.0893 41.0012 24.0835 41H34.5835C35.5777 41.0012 36.5308 41.3967 37.2338 42.0997C37.9368 42.8027 38.3323 43.7558 38.3335 44.75V55.25C38.3323 56.2442 37.9368 57.1973 37.2338 57.9003C36.5308 58.6033 35.5777 58.9988 34.5835 59V59ZM24.0835 42.5C23.4868 42.5 22.9145 42.7371 22.4925 43.159C22.0705 43.581 21.8335 44.1533 21.8335 44.75V55.25C21.8335 55.8467 22.0705 56.419 22.4925 56.841C22.9145 57.2629 23.4868 57.5 24.0835 57.5H34.5835C35.1802 57.5 35.7525 57.2629 36.1745 56.841C36.5964 56.419 36.8335 55.8467 36.8335 55.25V44.75C36.8335 44.1533 36.5964 43.581 36.1745 43.159C35.7525 42.7371 35.1802 42.5 34.5835 42.5H24.0835ZM28.5835 50C28.5835 50.1483 28.6275 50.2933 28.7099 50.4167C28.7923 50.54 28.9094 50.6361 29.0465 50.6929C29.1835 50.7497 29.3343 50.7645 29.4798 50.7356C29.6253 50.7067 29.7589 50.6352 29.8638 50.5303C29.9687 50.4254 30.0401 50.2918 30.0691 50.1463C30.098 50.0008 30.0832 49.85 30.0264 49.713C29.9696 49.5759 29.8735 49.4588 29.7502 49.3764C29.6268 49.294 29.4818 49.25 29.3335 49.25C29.1346 49.25 28.9438 49.329 28.8032 49.4697C28.6625 49.6103 28.5835 49.8011 28.5835 50ZM24.8335 46.25C24.8335 46.3983 24.8775 46.5433 24.9599 46.6667C25.0423 46.79 25.1594 46.8861 25.2965 46.9429C25.4335 46.9997 25.5843 47.0145 25.7298 46.9856C25.8753 46.9567 26.0089 46.8852 26.1138 46.7803C26.2187 46.6754 26.2901 46.5418 26.3191 46.3963C26.348 46.2508 26.3332 46.1 26.2764 45.963C26.2196 45.8259 26.1235 45.7088 26.0002 45.6264C25.8768 45.544 25.7318 45.5 25.5835 45.5C25.3846 45.5 25.1938 45.579 25.0532 45.7197C24.9125 45.8603 24.8335 46.0511 24.8335 46.25ZM32.3335 46.25C32.3335 46.3983 32.3775 46.5433 32.4599 46.6667C32.5423 46.79 32.6594 46.8861 32.7965 46.9429C32.9335 46.9997 33.0843 47.0145 33.2298 46.9856C33.3753 46.9567 33.5089 46.8852 33.6138 46.7803C33.7187 46.6754 33.7901 46.5418 33.8191 46.3963C33.848 46.2508 33.8332 46.1 33.7764 45.963C33.7196 45.8259 33.6235 45.7088 33.5002 45.6264C33.3768 45.544 33.2318 45.5 33.0835 45.5C32.8846 45.5 32.6938 45.579 32.5532 45.7197C32.4125 45.8603 32.3335 46.0511 32.3335 46.25ZM24.8335 53.75C24.8335 53.8983 24.8775 54.0433 24.9599 54.1667C25.0423 54.29 25.1594 54.3861 25.2965 54.4429C25.4335 54.4997 25.5843 54.5145 25.7298 54.4856C25.8753 54.4567 26.0089 54.3852 26.1138 54.2803C26.2187 54.1754 26.2901 54.0418 26.3191 53.8963C26.348 53.7508 26.3332 53.6 26.2764 53.463C26.2196 53.3259 26.1235 53.2088 26.0002 53.1264C25.8768 53.044 25.7318 53 25.5835 53C25.3846 53 25.1938 53.079 25.0532 53.2197C24.9125 53.3603 24.8335 53.5511 24.8335 53.75ZM32.3335 53.75C32.3335 53.8983 32.3775 54.0433 32.4599 54.1667C32.5423 54.29 32.6594 54.3861 32.7965 54.4429C32.9335 54.4997 33.0843 54.5145 33.2298 54.4856C33.3753 54.4567 33.5089 54.3852 33.6138 54.2803C33.7187 54.1754 33.7901 54.0418 33.8191 53.8963C33.848 53.7508 33.8332 53.6 33.7764 53.463C33.7196 53.3259 33.6235 53.2088 33.5002 53.1264C33.3768 53.044 33.2318 53 33.0835 53C32.8846 53 32.6938 53.079 32.5532 53.2197C32.4125 53.3603 32.3335 53.5511 32.3335 53.75Z" fill="#525252" fill-opacity="0.3"></path> </g> <path d="M52.3051 45.7727V54.5H51.2483V46.8807H51.1971L49.0665 48.2955V47.2216L51.2483 45.7727H52.3051ZM55.0494 54.5682C54.8392 54.5682 54.6588 54.4929 54.5082 54.3423C54.3576 54.1918 54.2824 54.0114 54.2824 53.8011C54.2824 53.5909 54.3576 53.4105 54.5082 53.2599C54.6588 53.1094 54.8392 53.0341 55.0494 53.0341C55.2596 53.0341 55.44 53.1094 55.5906 53.2599C55.7412 53.4105 55.8165 53.5909 55.8165 53.8011C55.8165 53.9403 55.7809 54.0682 55.7099 54.1847C55.6417 54.3011 55.5494 54.3949 55.4329 54.4659C55.3193 54.5341 55.1915 54.5682 55.0494 54.5682ZM59.6293 45.7727V54.5H58.5725V46.8807H58.5214L56.3907 48.2955V47.2216L58.5725 45.7727H59.6293Z" fill="#525252"></path> <rect x="161" y="41" width="18" height="18" rx="9" fill="#525252" fill-opacity="0.1"></rect> <path d="M173.75 49.25H170.75V46.25C170.75 46.0511 170.671 45.8603 170.53 45.7197C170.39 45.579 170.199 45.5 170 45.5C169.801 45.5 169.61 45.579 169.47 45.7197C169.329 45.8603 169.25 46.0511 169.25 46.25V49.25H166.25C166.051 49.25 165.86 49.329 165.72 49.4697C165.579 49.6103 165.5 49.8011 165.5 50C165.5 50.1989 165.579 50.3897 165.72 50.5303C165.86 50.671 166.051 50.75 166.25 50.75H169.25V53.75C169.25 53.9489 169.329 54.1397 169.47 54.2803C169.61 54.421 169.801 54.5 170 54.5C170.199 54.5 170.39 54.421 170.53 54.2803C170.671 54.1397 170.75 53.9489 170.75 53.75V50.75H173.75C173.949 50.75 174.14 50.671 174.28 50.5303C174.421 50.3897 174.5 50.1989 174.5 50C174.5 49.8011 174.421 49.6103 174.28 49.4697C174.14 49.329 173.949 49.25 173.75 49.25Z" fill="#525252" fill-opacity="0.3"></path> <rect x="189" y="41" width="18" height="18" rx="9" fill="#525252" fill-opacity="0.1"></rect> <path d="M194.25 49.2498C194.051 49.2498 193.86 49.3288 193.72 49.4694C193.579 49.6101 193.5 49.8008 193.5 49.9998C193.5 50.1987 193.579 50.3894 193.72 50.5301C193.86 50.6707 194.051 50.7498 194.25 50.7498H201.75C201.949 50.7498 202.14 50.6707 202.28 50.5301C202.421 50.3894 202.5 50.1987 202.5 49.9998C202.5 49.8008 202.421 49.6101 202.28 49.4694C202.14 49.3288 201.949 49.2498 201.75 49.2498H194.25Z" fill="#525252" fill-opacity="0.3"></path> <rect x="0.833496" y="25.5" width="225.667" height="49" rx="9.5" stroke="#B3B3B3"></rect> <defs> <clipPath id="clip0_509_2702"> <rect width="18" height="18" fill="white" transform="translate(20.3335 41)"></rect> </clipPath> </defs> </svg> 