<?xml version="1.0" encoding="UTF-8"?> <svg xmlns="http://www.w3.org/2000/svg" xmlns:xlink="http://www.w3.org/1999/xlink" xmlns:svgjs="http://svgjs.com/svgjs" width="512" height="512" x="0" y="0" viewBox="0 0 512 512" style="enable-background:new 0 0 512 512" xml:space="preserve"> <g> <path d="M239.575 228.991h29.313l3.874-18h-29.313z" fill="#ffffff" data-original="#000000"></path> <path d="M406 60.991H106c-58.449 0-106 47.103-106 105v270c0 11.826 13.09 19.003 23.061 12.65l109.312-69.65H406c58.449 0 106-47.103 106-105v-108c0-57.897-47.551-105-106-105zm-278.49 228.48c-.868 8.377-8.304 14.273-16.4 13.45-8.296-.843-14.276-8.28-13.45-16.41.911-8.69 8.866-14.911 17.85-13.229 7.968 1.653 12.747 8.921 12 16.189zm.49-49.48c0 8.284-6.716 15-15 15s-15-6.716-15-15v-88c0-8.284 6.716-15 15-15s15 6.716 15 15zm257.08-89.471c.282-3.489 2.141-7.458 5.41-10.13 6.57-5.354 16.051-4.133 21.11 2.091 8.458 10.363.119 25.772-13.08 24.43-8.094-.675-14.285-8.152-13.44-16.391zM328 210.991h-24.551l-3.874 18H312c8.284 0 15 6.716 15 15s-6.716 15-15 15h-18.881l-6.936 32.23c-1.514 7.035-7.733 11.847-14.649 11.847-9.565 0-16.689-8.82-14.679-18.159l5.578-25.918H233.12l-6.936 32.23c-1.514 7.035-7.733 11.847-14.649 11.847-9.565 0-16.689-8.82-14.679-18.159l5.578-25.918H184c-8.284 0-15-6.716-15-15s6.716-15 15-15h24.888l3.874-18H200c-8.284 0-15-6.716-15-15s6.716-15 15-15h19.218l6.936-32.23c1.743-8.099 9.723-13.257 17.82-11.508 8.099 1.743 13.251 9.721 11.508 17.82l-5.578 25.918h29.313l6.936-32.23c1.743-8.099 9.724-13.257 17.82-11.508 8.099 1.743 13.251 9.721 11.508 17.82l-5.578 25.918H328c8.284 0 15 6.716 15 15s-6.716 15-15 15zm118.705 47.589c-1.283 24.726-21.936 44.411-46.818 44.411-25.755.001-46.887-20.848-46.887-46.885 0-8.284 6.716-15 15-15s15 6.716 15 15c0 9.557 7.838 17.09 17.241 16.881 14.588-.293 21.969-17.88 11.888-28.5-3.224-3.396-7.572-5.266-12.244-5.266-8.284 0-15-6.716-15-15v-24.23c0-8.284 6.716-15 15-15s15 6.716 15 15v11.714c19.351 6.56 32.948 25.141 31.82 46.875z" fill="#ffffff" data-original="#000000"></path> </g> </svg> 