<?xml version="1.0" encoding="UTF-8"?> <svg xmlns="http://www.w3.org/2000/svg" width="512" height="512" viewBox="0 0 512 512" fill="none"> <path d="M371.99 141.919C335.738 141.903 306.358 112.523 306.349 76.2775V0H103.385C81.6614 0.0617026 64.0617 17.6614 64 39.3846V472.615C64.0617 494.339 81.6614 511.938 103.385 512H408.878C430.605 511.938 448.2 494.339 448.263 472.615V141.919H371.99ZM135.026 200.862H276.938C284.19 200.862 290.066 206.739 290.066 213.99C290.066 221.24 284.19 227.118 276.938 227.118H135.026C127.774 227.118 121.898 221.24 121.898 213.99C121.898 206.739 127.774 200.862 135.026 200.862ZM390.497 425.748H135.026C127.774 425.748 121.898 419.872 121.898 412.619C121.898 405.369 127.774 399.491 135.026 399.491H390.497C397.749 399.491 403.625 405.369 403.625 412.619C403.625 419.872 397.749 425.748 390.497 425.748ZM390.497 326.37H135.026C127.774 326.37 121.898 320.488 121.898 313.242C121.898 305.99 127.774 300.113 135.026 300.113H390.497C397.749 300.113 403.625 305.99 403.625 313.242C403.625 320.488 397.749 326.37 390.497 326.37Z" fill="white"></path> <path d="M371.99 115.662H430.014L332.603 18.5134V76.2775C332.619 98.0205 350.239 115.641 371.988 115.662H371.99Z" fill="white"></path> </svg> 