<?xml version="1.0" encoding="UTF-8"?> <svg xmlns="http://www.w3.org/2000/svg" width="59" height="59" viewBox="0 0 59 59" fill="none"> <g clip-path="url(#clip0_179_1780)"> <path d="M29.5 0C21.6761 0 14.1727 3.10803 8.64035 8.64035C3.10803 14.1727 0 21.6761 0 29.5C0 37.3239 3.10803 44.8273 8.64035 50.3596C14.1727 55.892 21.6761 59 29.5 59H59V29.5C58.9915 21.6787 55.8808 14.1802 50.3503 8.64969C44.8198 3.1192 37.3213 0.00845932 29.5 0V0ZM29.2763 40.3634C28.3548 41.2814 27.1071 41.7968 25.8064 41.7968C24.5056 41.7968 23.2579 41.2814 22.3364 40.3634L13.0292 31.2577L16.4708 27.7423L25.7953 36.8553L42.5267 20.3845L45.9684 23.8852L29.2763 40.3634Z" fill="#13B8A6"></path> </g> <defs> <clipPath id="clip0_179_1780"> <rect width="59" height="59" fill="white"></rect> </clipPath> </defs> </svg> 