<?xml version="1.0" encoding="UTF-8"?> <svg xmlns="http://www.w3.org/2000/svg" width="227" height="75" viewBox="0 0 227 75" fill="none"> <path d="M1.28924 12V3.27273H4.34038C4.94833 3.27273 5.44975 3.37784 5.84464 3.58807C6.23952 3.79545 6.53356 4.07528 6.72674 4.42756C6.91992 4.77699 7.01651 5.16477 7.01651 5.59091C7.01651 5.96591 6.94975 6.27557 6.81623 6.51989C6.68555 6.7642 6.51225 6.95739 6.29634 7.09943C6.08327 7.24148 5.85174 7.34659 5.60174 7.41477V7.5C5.86879 7.51705 6.13725 7.6108 6.40714 7.78125C6.67702 7.9517 6.90288 8.19602 7.08469 8.5142C7.26651 8.83239 7.35742 9.22159 7.35742 9.68182C7.35742 10.1193 7.25799 10.5128 7.05913 10.8622C6.86026 11.2116 6.54634 11.4886 6.11737 11.6932C5.68839 11.8977 5.13015 12 4.44265 12H1.28924ZM2.34606 11.0625H4.44265C5.13299 11.0625 5.62305 10.929 5.91282 10.6619C6.20543 10.392 6.35174 10.0653 6.35174 9.68182C6.35174 9.38636 6.27646 9.11364 6.12589 8.86364C5.97532 8.6108 5.76083 8.40909 5.48242 8.25852C5.20401 8.10511 4.87447 8.02841 4.49379 8.02841H2.34606V11.0625ZM2.34606 7.10795H4.30629C4.62447 7.10795 4.9114 7.04545 5.16708 6.92045C5.4256 6.79545 5.63015 6.61932 5.78072 6.39205C5.93413 6.16477 6.01083 5.89773 6.01083 5.59091C6.01083 5.20739 5.87731 4.8821 5.61026 4.61506C5.34322 4.34517 4.91992 4.21023 4.34038 4.21023H2.34606V7.10795ZM9.82688 7.82386H11.7019C12.4689 7.82386 13.0556 8.01847 13.4618 8.40767C13.8681 8.79687 14.0712 9.28977 14.0712 9.88636C14.0712 10.2784 13.9803 10.6349 13.7985 10.956C13.6167 11.2741 13.3496 11.5284 12.9973 11.7188C12.6451 11.9062 12.2132 12 11.7019 12H8.95756V5.45455H9.96325V11.0625H11.7019C12.0996 11.0625 12.4263 10.9574 12.682 10.7472C12.9377 10.5369 13.0655 10.267 13.0655 9.9375C13.0655 9.59091 12.9377 9.30824 12.682 9.08949C12.4263 8.87074 12.0996 8.76136 11.7019 8.76136H9.82688V7.82386ZM15.111 12V5.45455H16.1167V12H15.111ZM22.8155 3L23.3269 3.61364C23.128 3.80682 22.8979 3.94176 22.6365 4.01847C22.3752 4.09517 22.0797 4.14205 21.7502 4.15909C21.4206 4.17614 21.0542 4.19318 20.6507 4.21023C20.1962 4.22727 19.8198 4.33807 19.5215 4.54261C19.2232 4.74716 18.9931 5.04261 18.8311 5.42898C18.6692 5.81534 18.5655 6.28977 18.5201 6.85227H18.6053C18.8269 6.44318 19.1337 6.14205 19.5257 5.94886C19.9178 5.75568 20.3382 5.65909 20.7871 5.65909C21.2985 5.65909 21.7587 5.77841 22.1678 6.01705C22.5769 6.25568 22.9007 6.60938 23.1394 7.07812C23.378 7.54688 23.4973 8.125 23.4973 8.8125C23.4973 9.49716 23.3752 10.0881 23.1309 10.5852C22.8894 11.0824 22.5499 11.4659 22.1124 11.7358C21.6777 12.0028 21.1678 12.1364 20.5826 12.1364C19.9973 12.1364 19.4846 11.9986 19.0442 11.723C18.6039 11.4446 18.2615 11.0327 18.0172 10.4872C17.7729 9.93892 17.6507 9.26136 17.6507 8.45455V7.75568C17.6507 6.2983 17.8979 5.19318 18.3922 4.44034C18.8894 3.6875 19.6365 3.2983 20.6337 3.27273C20.986 3.26136 21.2999 3.25852 21.5755 3.2642C21.851 3.26989 22.0911 3.2571 22.2956 3.22585C22.5002 3.1946 22.6735 3.11932 22.8155 3ZM20.5826 11.233C20.9775 11.233 21.3169 11.1335 21.601 10.9347C21.888 10.7358 22.1081 10.456 22.2615 10.0952C22.415 9.73153 22.4917 9.30398 22.4917 8.8125C22.4917 8.33523 22.4135 7.92898 22.2573 7.59375C22.1039 7.25852 21.8837 7.00284 21.5968 6.8267C21.3098 6.65057 20.9661 6.5625 20.5655 6.5625C20.2729 6.5625 20.0101 6.61222 19.7772 6.71165C19.5442 6.81108 19.3453 6.95739 19.1806 7.15057C19.0158 7.34375 18.888 7.57955 18.7971 7.85795C18.709 8.13636 18.6621 8.45455 18.6564 8.8125C18.6564 9.54545 18.8283 10.1321 19.1721 10.5724C19.5158 11.0128 19.986 11.233 20.5826 11.233ZM27.6948 12.1364C27.1039 12.1364 26.5854 11.9957 26.1394 11.7145C25.6962 11.4332 25.3496 11.0398 25.0996 10.5341C24.8525 10.0284 24.7289 9.4375 24.7289 8.76136C24.7289 8.07955 24.8525 7.48437 25.0996 6.97585C25.3496 6.46733 25.6962 6.07244 26.1394 5.79119C26.5854 5.50994 27.1039 5.36932 27.6948 5.36932C28.2857 5.36932 28.8027 5.50994 29.2459 5.79119C29.6919 6.07244 30.0385 6.46733 30.2857 6.97585C30.5357 7.48437 30.6607 8.07955 30.6607 8.76136C30.6607 9.4375 30.5357 10.0284 30.2857 10.5341C30.0385 11.0398 29.6919 11.4332 29.2459 11.7145C28.8027 11.9957 28.2857 12.1364 27.6948 12.1364ZM27.6948 11.233C28.1436 11.233 28.513 11.1179 28.8027 10.8878C29.0925 10.6577 29.307 10.3551 29.4462 9.98011C29.5854 9.60511 29.655 9.19886 29.655 8.76136C29.655 8.32386 29.5854 7.91619 29.4462 7.53835C29.307 7.16051 29.0925 6.85511 28.8027 6.62216C28.513 6.3892 28.1436 6.27273 27.6948 6.27273C27.2459 6.27273 26.8766 6.3892 26.5868 6.62216C26.2971 6.85511 26.0826 7.16051 25.9434 7.53835C25.8042 7.91619 25.7346 8.32386 25.7346 8.76136C25.7346 9.19886 25.8042 9.60511 25.9434 9.98011C26.0826 10.3551 26.2971 10.6577 26.5868 10.8878C26.8766 11.1179 27.2459 11.233 27.6948 11.233ZM32.1958 14.4545V5.45455H33.1674V6.49432H33.2868C33.3606 6.38068 33.4629 6.2358 33.5936 6.05966C33.7271 5.88068 33.9174 5.72159 34.1646 5.58239C34.4146 5.44034 34.7527 5.36932 35.1788 5.36932C35.7299 5.36932 36.2157 5.5071 36.6362 5.78267C37.0566 6.05824 37.3848 6.44886 37.6206 6.95455C37.8564 7.46023 37.9743 8.05682 37.9743 8.74432C37.9743 9.4375 37.8564 10.0384 37.6206 10.5469C37.3848 11.0526 37.0581 11.4446 36.6404 11.723C36.2228 11.9986 35.7413 12.1364 35.1958 12.1364C34.7754 12.1364 34.4387 12.0668 34.1859 11.9276C33.9331 11.7855 33.7385 11.625 33.6021 11.446C33.4657 11.2642 33.3606 11.1136 33.2868 10.9943H33.2015V14.4545H32.1958ZM33.1845 8.72727C33.1845 9.22159 33.2569 9.65767 33.4018 10.0355C33.5467 10.4105 33.7583 10.7045 34.0368 10.9176C34.3152 11.1278 34.6561 11.233 35.0595 11.233C35.4799 11.233 35.8308 11.1222 36.112 10.9006C36.3961 10.6761 36.6092 10.375 36.7512 9.99716C36.8961 9.61648 36.9686 9.19318 36.9686 8.72727C36.9686 8.26705 36.8975 7.85227 36.7555 7.48295C36.6163 7.1108 36.4047 6.81676 36.1206 6.60085C35.8393 6.3821 35.4856 6.27273 35.0595 6.27273C34.6504 6.27273 34.3066 6.37642 34.0282 6.58381C33.7498 6.78835 33.5396 7.07528 33.3975 7.4446C33.2555 7.81108 33.1845 8.23864 33.1845 8.72727ZM39.5083 12V5.45455H40.514V8.30114H41.1788L43.5311 5.45455H44.8265L42.1845 8.60795L44.8606 12H43.5652L41.4174 9.23864H40.514V12H39.5083ZM47.8798 12.1534C47.465 12.1534 47.0886 12.0753 46.7505 11.919C46.4125 11.7599 46.144 11.5312 45.9451 11.233C45.7463 10.9318 45.6468 10.5682 45.6468 10.142C45.6468 9.76705 45.7207 9.46307 45.8684 9.23011C46.0162 8.99432 46.2136 8.80966 46.4608 8.67614C46.7079 8.54261 46.9806 8.44318 47.2789 8.37784C47.5801 8.30966 47.8826 8.25568 48.1866 8.21591C48.5843 8.16477 48.9068 8.12642 49.1539 8.10085C49.4039 8.07244 49.5858 8.02557 49.6994 7.96023C49.8159 7.89489 49.8741 7.78125 49.8741 7.61932V7.58523C49.8741 7.16477 49.7591 6.83807 49.5289 6.60511C49.3017 6.37216 48.9565 6.25568 48.4934 6.25568C48.0133 6.25568 47.6369 6.3608 47.3642 6.57102C47.0914 6.78125 46.8997 7.00568 46.7889 7.24432L45.8343 6.90341C46.0048 6.50568 46.2321 6.19602 46.5162 5.97443C46.8031 5.75 47.1156 5.59375 47.4537 5.50568C47.7946 5.41477 48.1298 5.36932 48.4593 5.36932C48.6696 5.36932 48.911 5.39489 49.1838 5.44602C49.4593 5.49432 49.725 5.59517 49.9806 5.74858C50.2392 5.90199 50.4537 6.13352 50.6241 6.44318C50.7946 6.75284 50.8798 7.16761 50.8798 7.6875V12H49.8741V11.1136H49.823C49.7548 11.2557 49.6412 11.4077 49.4821 11.5696C49.323 11.7315 49.1113 11.8693 48.8471 11.983C48.5829 12.0966 48.2605 12.1534 47.8798 12.1534ZM48.0332 11.25C48.4309 11.25 48.7662 11.1719 49.0389 11.0156C49.3145 10.8594 49.5218 10.6577 49.661 10.4105C49.8031 10.1634 49.8741 9.90341 49.8741 9.63068V8.71023C49.8315 8.76136 49.7377 8.80824 49.5929 8.85085C49.4508 8.89062 49.286 8.92614 49.0985 8.95739C48.9139 8.9858 48.7335 9.01136 48.5574 9.03409C48.3841 9.05398 48.2434 9.07102 48.1355 9.08523C47.8741 9.11932 47.6298 9.17472 47.4025 9.25142C47.1781 9.32528 46.9963 9.4375 46.8571 9.58807C46.7207 9.7358 46.6525 9.9375 46.6525 10.1932C46.6525 10.5426 46.7818 10.8068 47.0403 10.9858C47.3017 11.1619 47.6326 11.25 48.0332 11.25ZM56.0904 12V5.45455H61.2381V12H60.2324V6.39205H57.0961V12H56.0904ZM65.7338 12.1364C65.1429 12.1364 64.6245 11.9957 64.1784 11.7145C63.7353 11.4332 63.3887 11.0398 63.1387 10.5341C62.8915 10.0284 62.7679 9.4375 62.7679 8.76136C62.7679 8.07955 62.8915 7.48437 63.1387 6.97585C63.3887 6.46733 63.7353 6.07244 64.1784 5.79119C64.6245 5.50994 65.1429 5.36932 65.7338 5.36932C66.3248 5.36932 66.8418 5.50994 67.285 5.79119C67.731 6.07244 68.0776 6.46733 68.3248 6.97585C68.5748 7.48437 68.6998 8.07955 68.6998 8.76136C68.6998 9.4375 68.5748 10.0284 68.3248 10.5341C68.0776 11.0398 67.731 11.4332 67.285 11.7145C66.8418 11.9957 66.3248 12.1364 65.7338 12.1364ZM65.7338 11.233C66.1827 11.233 66.552 11.1179 66.8418 10.8878C67.1316 10.6577 67.3461 10.3551 67.4853 9.98011C67.6245 9.60511 67.6941 9.19886 67.6941 8.76136C67.6941 8.32386 67.6245 7.91619 67.4853 7.53835C67.3461 7.16051 67.1316 6.85511 66.8418 6.62216C66.552 6.3892 66.1827 6.27273 65.7338 6.27273C65.285 6.27273 64.9157 6.3892 64.6259 6.62216C64.3361 6.85511 64.1216 7.16051 63.9824 7.53835C63.8432 7.91619 63.7736 8.32386 63.7736 8.76136C63.7736 9.19886 63.8432 9.60511 63.9824 9.98011C64.1216 10.3551 64.3361 10.6577 64.6259 10.8878C64.9157 11.1179 65.285 11.233 65.7338 11.233ZM70.7154 5.45455L72.2836 8.13068L73.8517 5.45455H75.0108L72.8972 8.72727L75.0108 12H73.8517L72.2836 9.46023L70.7154 12H69.5563L71.6358 8.72727L69.5563 5.45455H70.7154ZM78.8354 12.1364C78.2445 12.1364 77.726 11.9957 77.28 11.7145C76.8368 11.4332 76.4902 11.0398 76.2402 10.5341C75.9931 10.0284 75.8695 9.4375 75.8695 8.76136C75.8695 8.07955 75.9931 7.48437 76.2402 6.97585C76.4902 6.46733 76.8368 6.07244 77.28 5.79119C77.726 5.50994 78.2445 5.36932 78.8354 5.36932C79.4263 5.36932 79.9434 5.50994 80.3865 5.79119C80.8326 6.07244 81.1792 6.46733 81.4263 6.97585C81.6763 7.48437 81.8013 8.07955 81.8013 8.76136C81.8013 9.4375 81.6763 10.0284 81.4263 10.5341C81.1792 11.0398 80.8326 11.4332 80.3865 11.7145C79.9434 11.9957 79.4263 12.1364 78.8354 12.1364ZM78.8354 11.233C79.2843 11.233 79.6536 11.1179 79.9434 10.8878C80.2331 10.6577 80.4476 10.3551 80.5868 9.98011C80.726 9.60511 80.7956 9.19886 80.7956 8.76136C80.7956 8.32386 80.726 7.91619 80.5868 7.53835C80.4476 7.16051 80.2331 6.85511 79.9434 6.62216C79.6536 6.3892 79.2843 6.27273 78.8354 6.27273C78.3865 6.27273 78.0172 6.3892 77.7275 6.62216C77.4377 6.85511 77.2232 7.16051 77.084 7.53835C76.9448 7.91619 76.8752 8.32386 76.8752 8.76136C76.8752 9.19886 76.9448 9.60511 77.084 9.98011C77.2232 10.3551 77.4377 10.6577 77.7275 10.8878C78.0172 11.1179 78.3865 11.233 78.8354 11.233ZM82.6578 12L85.3169 8.67614L82.6919 5.45455H83.8851L86.0669 8.25H86.6124V5.45455H87.6181V8.25H88.1465L90.3283 5.45455H91.5215L88.9135 8.67614L91.5556 12H90.3453L88.1294 9.1875H87.6181V12H86.6124V9.1875H86.101L83.8681 12H82.6578ZM93.9984 10.517L97.1518 5.45455H98.3109V12H97.3052V6.9375L94.1689 12H92.9927V5.45455H93.9984V10.517ZM100.903 5.45455L102.471 8.13068L104.039 5.45455H105.198L103.085 8.72727L105.198 12H104.039L102.471 9.46023L100.903 12H99.7438L101.823 8.72727L99.7438 5.45455H100.903ZM112.667 12.1364C112.054 12.1364 111.525 11.9915 111.082 11.7017C110.639 11.4119 110.298 11.0128 110.059 10.5043C109.821 9.99574 109.702 9.41477 109.702 8.76136C109.702 8.09659 109.824 7.50994 110.068 7.00142C110.315 6.49006 110.659 6.09091 111.099 5.80398C111.542 5.5142 112.059 5.36932 112.65 5.36932C113.111 5.36932 113.525 5.45455 113.895 5.625C114.264 5.79545 114.567 6.03409 114.802 6.34091C115.038 6.64773 115.184 7.00568 115.241 7.41477H114.236C114.159 7.11648 113.988 6.85227 113.724 6.62216C113.463 6.3892 113.111 6.27273 112.667 6.27273C112.275 6.27273 111.932 6.375 111.636 6.57955C111.344 6.78125 111.115 7.06676 110.95 7.43608C110.788 7.80256 110.707 8.23295 110.707 8.72727C110.707 9.23295 110.787 9.6733 110.946 10.0483C111.108 10.4233 111.335 10.7145 111.628 10.9219C111.923 11.1293 112.27 11.233 112.667 11.233C112.929 11.233 113.166 11.1875 113.379 11.0966C113.592 11.0057 113.773 10.875 113.92 10.7045C114.068 10.5341 114.173 10.3295 114.236 10.0909H115.241C115.184 10.4773 115.044 10.8253 114.819 11.1349C114.598 11.4418 114.304 11.6861 113.937 11.8679C113.574 12.0469 113.15 12.1364 112.667 12.1364ZM116.132 12V11.0625H116.371C116.567 11.0625 116.73 11.0241 116.861 10.9474C116.991 10.8679 117.096 10.7301 117.176 10.5341C117.258 10.3352 117.321 10.0597 117.363 9.70739C117.409 9.35227 117.442 8.90057 117.461 8.35227L117.581 5.45455H121.944V12H120.939V6.39205H118.535L118.433 8.72727C118.41 9.2642 118.362 9.73722 118.288 10.1463C118.217 10.5526 118.108 10.8935 117.96 11.169C117.815 11.4446 117.622 11.652 117.381 11.7912C117.139 11.9304 116.836 12 116.473 12H116.132ZM126.449 12.1364C125.858 12.1364 125.339 11.9957 124.893 11.7145C124.45 11.4332 124.104 11.0398 123.854 10.5341C123.606 10.0284 123.483 9.4375 123.483 8.76136C123.483 8.07955 123.606 7.48437 123.854 6.97585C124.104 6.46733 124.45 6.07244 124.893 5.79119C125.339 5.50994 125.858 5.36932 126.449 5.36932C127.04 5.36932 127.557 5.50994 128 5.79119C128.446 6.07244 128.792 6.46733 129.04 6.97585C129.29 7.48437 129.415 8.07955 129.415 8.76136C129.415 9.4375 129.29 10.0284 129.04 10.5341C128.792 11.0398 128.446 11.4332 128 11.7145C127.557 11.9957 127.04 12.1364 126.449 12.1364ZM126.449 11.233C126.898 11.233 127.267 11.1179 127.557 10.8878C127.846 10.6577 128.061 10.3551 128.2 9.98011C128.339 9.60511 128.409 9.19886 128.409 8.76136C128.409 8.32386 128.339 7.91619 128.2 7.53835C128.061 7.16051 127.846 6.85511 127.557 6.62216C127.267 6.3892 126.898 6.27273 126.449 6.27273C126 6.27273 125.631 6.3892 125.341 6.62216C125.051 6.85511 124.836 7.16051 124.697 7.53835C124.558 7.91619 124.488 8.32386 124.488 8.76136C124.488 9.19886 124.558 9.60511 124.697 9.98011C124.836 10.3551 125.051 10.6577 125.341 10.8878C125.631 11.1179 126 11.233 126.449 11.233ZM130.95 12V5.45455H133.626C134.33 5.45455 134.89 5.61364 135.305 5.93182C135.72 6.25 135.927 6.67045 135.927 7.19318C135.927 7.59091 135.809 7.89915 135.573 8.1179C135.338 8.33381 135.035 8.48011 134.666 8.55682C134.907 8.59091 135.142 8.67614 135.369 8.8125C135.599 8.94886 135.789 9.13636 135.94 9.375C136.09 9.6108 136.166 9.90057 136.166 10.2443C136.166 10.5795 136.08 10.8793 135.91 11.1435C135.74 11.4077 135.495 11.6165 135.177 11.7699C134.859 11.9233 134.478 12 134.035 12H130.95ZM131.904 11.0795H134.035C134.382 11.0795 134.653 10.9972 134.849 10.8324C135.045 10.6676 135.143 10.4432 135.143 10.1591C135.143 9.82102 135.045 9.5554 134.849 9.36222C134.653 9.16619 134.382 9.06818 134.035 9.06818H131.904V11.0795ZM131.904 8.19886H133.626C133.896 8.19886 134.127 8.16193 134.32 8.08807C134.514 8.01136 134.661 7.90341 134.764 7.7642C134.869 7.62216 134.921 7.45455 134.921 7.26136C134.921 6.9858 134.806 6.76989 134.576 6.61364C134.346 6.45455 134.029 6.375 133.626 6.375H131.904V8.19886Z" fill="#525252"></path> <rect x="0.5" y="25.5" width="225.667" height="49" rx="9.5" fill="#E0E0E0"></rect> <g clip-path="url(#clip0_509_2711)"> <path d="M34.6512 43.3415L33.4092 42.098C33.0618 41.7487 32.6484 41.4719 32.1932 41.2834C31.738 41.0949 31.2499 40.9986 30.7573 41H26C25.0058 41.0012 24.0527 41.3967 23.3497 42.0997C22.6467 42.8027 22.2512 43.7558 22.25 44.75V55.25C22.2512 56.2442 22.6467 57.1973 23.3497 57.9004C24.0527 58.6034 25.0058 58.9988 26 59H32C32.9942 58.9988 33.9473 58.6034 34.6503 57.9004C35.3533 57.1973 35.7488 56.2442 35.75 55.25V45.9928C35.7512 45.5002 35.6547 45.0122 35.4661 44.5571C35.2775 44.102 35.0006 43.6889 34.6512 43.3415V43.3415ZM33.5908 44.402C33.6971 44.508 33.7924 44.6246 33.875 44.75H32V42.875C32.1252 42.9585 32.242 43.054 32.3488 43.16L33.5908 44.402ZM34.25 55.25C34.25 55.8468 34.0129 56.4191 33.591 56.841C33.169 57.263 32.5967 57.5 32 57.5H26C25.4033 57.5 24.831 57.263 24.409 56.841C23.9871 56.4191 23.75 55.8468 23.75 55.25V44.75C23.75 44.1533 23.9871 43.581 24.409 43.159C24.831 42.7371 25.4033 42.5 26 42.5H30.5V44.75C30.5 45.1478 30.658 45.5294 30.9393 45.8107C31.2206 46.092 31.6022 46.25 32 46.25H34.25V55.25ZM32 47.75C32.1989 47.75 32.3897 47.829 32.5303 47.9697C32.671 48.1103 32.75 48.3011 32.75 48.5C32.75 48.6989 32.671 48.8897 32.5303 49.0303C32.3897 49.171 32.1989 49.25 32 49.25H26C25.8011 49.25 25.6103 49.171 25.4697 49.0303C25.329 48.8897 25.25 48.6989 25.25 48.5C25.25 48.3011 25.329 48.1103 25.4697 47.9697C25.6103 47.829 25.8011 47.75 26 47.75H32ZM32.75 51.5C32.75 51.6989 32.671 51.8897 32.5303 52.0303C32.3897 52.171 32.1989 52.25 32 52.25H26C25.8011 52.25 25.6103 52.171 25.4697 52.0303C25.329 51.8897 25.25 51.6989 25.25 51.5C25.25 51.3011 25.329 51.1103 25.4697 50.9697C25.6103 50.829 25.8011 50.75 26 50.75H32C32.1989 50.75 32.3897 50.829 32.5303 50.9697C32.671 51.1103 32.75 51.3011 32.75 51.5ZM32.606 54.0598C32.7226 54.2202 32.7709 54.4202 32.7404 54.6161C32.7099 54.812 32.6031 54.9879 32.4432 55.1053C31.6834 55.6467 30.7834 55.9574 29.8513 56C29.3067 55.9974 28.7786 55.8126 28.3513 55.475C28.1053 55.3063 28.0115 55.25 27.8263 55.25C27.3248 55.3276 26.8517 55.5327 26.4522 55.8455C26.2938 55.9585 26.0977 56.0054 25.9053 55.9765C25.7129 55.9475 25.5392 55.8449 25.4211 55.6903C25.3029 55.5357 25.2494 55.3413 25.2719 55.148C25.2945 54.9547 25.3912 54.7778 25.5417 54.6545C26.2026 54.1415 26.9962 53.8277 27.8293 53.75C28.3288 53.758 28.8118 53.9307 29.2032 54.2413C29.3817 54.4017 29.6114 54.4935 29.8513 54.5C30.4645 54.4541 31.0542 54.2446 31.559 53.8933C31.72 53.7766 31.9206 53.7286 32.117 53.7598C32.3133 53.791 32.4892 53.8989 32.606 54.0598V54.0598Z" fill="#525252" fill-opacity="0.3"></path> </g> <path d="M51.9716 45.7727V54.5H50.9148V46.8807H50.8636L48.733 48.2955V47.2216L50.9148 45.7727H51.9716ZM54.7159 54.5682C54.5057 54.5682 54.3253 54.4929 54.1747 54.3423C54.0241 54.1918 53.9489 54.0114 53.9489 53.8011C53.9489 53.5909 54.0241 53.4105 54.1747 53.2599C54.3253 53.1094 54.5057 53.0341 54.7159 53.0341C54.9261 53.0341 55.1065 53.1094 55.2571 53.2599C55.4077 53.4105 55.483 53.5909 55.483 53.8011C55.483 53.9403 55.4474 54.0682 55.3764 54.1847C55.3082 54.3011 55.2159 54.3949 55.0994 54.4659C54.9858 54.5341 54.858 54.5682 54.7159 54.5682ZM59.8125 54.6193C59.1705 54.6193 58.6236 54.4446 58.1719 54.0952C57.7202 53.7429 57.375 53.233 57.1364 52.5653C56.8977 51.8949 56.7784 51.0852 56.7784 50.1364C56.7784 49.1932 56.8977 48.3878 57.1364 47.7202C57.3778 47.0497 57.7244 46.5384 58.1761 46.1861C58.6307 45.831 59.1761 45.6534 59.8125 45.6534C60.4489 45.6534 60.9929 45.831 61.4446 46.1861C61.8991 46.5384 62.2457 47.0497 62.4844 47.7202C62.7259 48.3878 62.8466 49.1932 62.8466 50.1364C62.8466 51.0852 62.7273 51.8949 62.4886 52.5653C62.25 53.233 61.9048 53.7429 61.4531 54.0952C61.0014 54.4446 60.4545 54.6193 59.8125 54.6193ZM59.8125 53.6818C60.4489 53.6818 60.9432 53.375 61.2955 52.7614C61.6477 52.1477 61.8239 51.2727 61.8239 50.1364C61.8239 49.3807 61.7429 48.7372 61.581 48.206C61.4219 47.6747 61.1918 47.2699 60.8906 46.9915C60.5923 46.7131 60.233 46.5739 59.8125 46.5739C59.1818 46.5739 58.6889 46.8849 58.3338 47.5071C57.9787 48.1264 57.8011 49.0028 57.8011 50.1364C57.8011 50.892 57.8807 51.5341 58.0398 52.0625C58.1989 52.5909 58.4276 52.9929 58.7259 53.2685C59.027 53.544 59.3892 53.6818 59.8125 53.6818Z" fill="#525252"></path> <rect x="160.667" y="41" width="18" height="18" rx="9" fill="#525252" fill-opacity="0.1"></rect> <path d="M173.417 49.25H170.417V46.25C170.417 46.0511 170.337 45.8603 170.197 45.7197C170.056 45.579 169.865 45.5 169.667 45.5C169.468 45.5 169.277 45.579 169.136 45.7197C168.996 45.8603 168.917 46.0511 168.917 46.25V49.25H165.917C165.718 49.25 165.527 49.329 165.386 49.4697C165.246 49.6103 165.167 49.8011 165.167 50C165.167 50.1989 165.246 50.3897 165.386 50.5303C165.527 50.671 165.718 50.75 165.917 50.75H168.917V53.75C168.917 53.9489 168.996 54.1397 169.136 54.2803C169.277 54.421 169.468 54.5 169.667 54.5C169.865 54.5 170.056 54.421 170.197 54.2803C170.337 54.1397 170.417 53.9489 170.417 53.75V50.75H173.417C173.615 50.75 173.806 50.671 173.947 50.5303C174.087 50.3897 174.167 50.1989 174.167 50C174.167 49.8011 174.087 49.6103 173.947 49.4697C173.806 49.329 173.615 49.25 173.417 49.25Z" fill="#525252" fill-opacity="0.3"></path> <rect x="188.667" y="41" width="18" height="18" rx="9" fill="#525252" fill-opacity="0.1"></rect> <path d="M193.917 49.2498C193.718 49.2498 193.527 49.3288 193.386 49.4694C193.246 49.6101 193.167 49.8008 193.167 49.9998C193.167 50.1987 193.246 50.3894 193.386 50.5301C193.527 50.6707 193.718 50.7498 193.917 50.7498H201.417C201.615 50.7498 201.806 50.6707 201.947 50.5301C202.087 50.3894 202.167 50.1987 202.167 49.9998C202.167 49.8008 202.087 49.6101 201.947 49.4694C201.806 49.3288 201.615 49.2498 201.417 49.2498H193.917Z" fill="#525252" fill-opacity="0.3"></path> <rect x="0.5" y="25.5" width="225.667" height="49" rx="9.5" stroke="#B3B3B3"></rect> <defs> <clipPath id="clip0_509_2711"> <rect width="18" height="18" fill="white" transform="translate(20 41)"></rect> </clipPath> </defs> </svg> 