<?xml version="1.0" encoding="UTF-8"?> <svg xmlns="http://www.w3.org/2000/svg" width="127" height="50" viewBox="0 0 127 50" fill="none"> <rect width="127" height="50" rx="10" fill="#06B6D4" fill-opacity="0.1"></rect> <g clip-path="url(#clip0_509_2602)"> <path d="M41.0303 20.2672L39.0301 18.2661L39.8982 17.398C39.9857 17.3134 40.0556 17.2123 40.1036 17.1005C40.1516 16.9886 40.1769 16.8683 40.178 16.7466C40.179 16.6249 40.1559 16.5042 40.1098 16.3915C40.0637 16.2789 39.9956 16.1765 39.9095 16.0905C39.8235 16.0044 39.7211 15.9363 39.6085 15.8903C39.4958 15.8442 39.3751 15.821 39.2534 15.822C39.1317 15.8231 39.0114 15.8484 38.8996 15.8964C38.7877 15.9445 38.6866 16.0143 38.602 16.1018L37.7339 16.9699L35.7328 14.9698C35.1021 14.3687 34.2643 14.0334 33.3931 14.0334C32.5218 14.0334 31.684 14.3687 31.0533 14.9698C30.7458 15.277 30.5018 15.6418 30.3354 16.0434C30.169 16.4449 30.0833 16.8753 30.0833 17.31C30.0833 17.7447 30.169 18.1751 30.3354 18.5766C30.5018 18.9782 30.7458 19.343 31.0533 19.6503L33.0534 21.6504L27.6506 27.0533L25.6495 25.0531C25.0188 24.4521 24.181 24.1168 23.3097 24.1168C22.4385 24.1168 21.6007 24.4521 20.9699 25.0531C20.6624 25.3603 20.4185 25.7251 20.2521 26.1267C20.0857 26.5282 20 26.9587 20 27.3933C20 27.828 20.0857 28.2584 20.2521 28.66C20.4185 29.0615 20.6624 29.4264 20.9699 29.7336L22.9701 31.7338L22.102 32.6018C22.0145 32.6864 21.9446 32.7875 21.8966 32.8994C21.8485 33.0112 21.8233 33.1315 21.8222 33.2532C21.8211 33.3749 21.8443 33.4956 21.8904 33.6083C21.9365 33.721 22.0046 33.8233 22.0906 33.9094C22.1767 33.9954 22.2791 34.0635 22.3917 34.1096C22.5044 34.1557 22.6251 34.1789 22.7468 34.1778C22.8685 34.1768 22.9888 34.1515 23.1006 34.1034C23.2125 34.0554 23.3136 33.9856 23.3982 33.898L24.2663 33.0299L26.2673 35.0301C26.5746 35.3374 26.9393 35.5813 27.3408 35.7476C27.7423 35.9139 28.1726 35.9996 28.6071 35.9996C29.0417 35.9996 29.472 35.9139 29.8735 35.7476C30.2749 35.5813 30.6397 35.3374 30.9469 35.0301C31.2544 34.7229 31.4983 34.3582 31.6647 33.9567C31.8311 33.5552 31.9168 33.1249 31.9168 32.6903C31.9168 32.2557 31.8311 31.8254 31.6647 31.4239C31.4983 31.0224 31.2544 30.6577 30.9469 30.3505L28.9468 28.3503L34.3551 22.9466L36.3553 24.9468C36.6625 25.2541 37.0272 25.4979 37.4287 25.6643C37.8302 25.8306 38.2605 25.9162 38.6951 25.9162C39.1296 25.9162 39.5599 25.8306 39.9614 25.6643C40.3629 25.4979 40.7276 25.2541 41.0348 24.9468C41.3423 24.6396 41.5862 24.2749 41.7526 23.8734C41.919 23.4719 42.0047 23.0416 42.0047 22.607C42.0047 22.1724 41.919 21.742 41.7526 21.3405C41.5862 20.9391 41.3423 20.5743 41.0348 20.2672H41.0303ZM30.0834 32.6908C30.0838 32.8846 30.0458 33.0766 29.9715 33.2557C29.8973 33.4347 29.7882 33.5973 29.6508 33.7339C29.3698 34.0027 28.996 34.1527 28.6071 34.1527C28.2183 34.1527 27.8445 34.0027 27.5635 33.7339L22.2661 28.4365C21.9893 28.1597 21.8338 27.7843 21.8338 27.3929C21.8338 27.0014 21.9893 26.626 22.2661 26.3493C22.5429 26.0725 22.9183 25.917 23.3097 25.917C23.7012 25.917 24.0766 26.0725 24.3533 26.3493L29.6508 31.6467C29.7883 31.7834 29.8974 31.9461 29.9717 32.1254C30.046 32.3046 30.0839 32.4968 30.0834 32.6908ZM39.7341 23.6506C39.4531 23.9194 39.0793 24.0694 38.6905 24.0694C38.3016 24.0694 37.9278 23.9194 37.6468 23.6506L32.3494 18.3532C32.2124 18.2161 32.1037 18.0534 32.0295 17.8744C31.9553 17.6953 31.9171 17.5034 31.9171 17.3095C31.9171 16.9181 32.0726 16.5427 32.3494 16.2659C32.6262 15.9891 33.0016 15.8336 33.3931 15.8336C33.7845 15.8336 34.1599 15.9891 34.4367 16.2659L39.7341 21.5633C39.8713 21.7003 39.9801 21.863 40.0543 22.0421C40.1286 22.2212 40.1668 22.4131 40.1668 22.607C40.1668 22.8008 40.1286 22.9928 40.0543 23.1718C39.9801 23.3509 39.8713 23.5136 39.7341 23.6506V23.6506Z" fill="#06B6D4"></path> </g> <path d="M57.071 20.3906H58.7969C59.6065 20.3906 60.3256 20.5717 60.9542 20.9339C61.5827 21.2962 62.0763 21.8004 62.435 22.4467C62.7937 23.093 62.973 23.8423 62.973 24.6946C62.973 25.5469 62.7937 26.2979 62.435 26.9478C62.0763 27.5977 61.5827 28.1055 60.9542 28.4712C60.3256 28.837 59.6065 29.0199 58.7969 29.0199H57.071C56.2614 29.0199 55.5423 28.8388 54.9137 28.4766C54.2852 28.1143 53.7915 27.6101 53.4329 26.9638C53.0742 26.3175 52.8949 25.5682 52.8949 24.7159C52.8949 23.8636 53.0742 23.1126 53.4329 22.4627C53.7915 21.8129 54.2852 21.305 54.9137 20.9393C55.5423 20.5735 56.2614 20.3906 57.071 20.3906ZM57.071 21.5625C56.4531 21.5625 55.9311 21.6921 55.505 21.9513C55.0824 22.2106 54.761 22.5763 54.5408 23.0487C54.3242 23.521 54.2159 24.0767 54.2159 24.7159C54.2159 25.348 54.3242 25.8984 54.5408 26.3672C54.761 26.8359 55.0824 27.1999 55.505 27.4592C55.9311 27.7184 56.4531 27.848 57.071 27.848H58.7969C59.4148 27.848 59.935 27.7184 60.3576 27.4592C60.7837 27.1999 61.1051 26.8342 61.3217 26.3619C61.5419 25.8896 61.652 25.3338 61.652 24.6946C61.652 24.0625 61.5419 23.5121 61.3217 23.0433C61.1051 22.5746 60.7837 22.2106 60.3576 21.9513C59.935 21.6921 59.4148 21.5625 58.7969 21.5625H57.071ZM58.6051 18.8991V30.4474H57.2841V18.8991H58.6051ZM66.2729 28.1463L70.2147 21.8182H71.6635V30H70.4064V23.6719L66.486 30H65.0158V21.8182H66.2729V28.1463ZM72.8527 22.9901V21.8182H79.5004V22.9901H76.8158V30H75.5587V22.9901H72.8527ZM86.81 25.3338V26.5057H82.293V25.3338H86.81ZM82.5913 21.8182V30H81.3342V21.8182H82.5913ZM87.7688 21.8182V30H86.5117V21.8182H87.7688ZM93.495 30.1705C92.7067 30.1705 92.0266 29.9964 91.4549 29.6484C90.8867 29.2969 90.4482 28.8068 90.1392 28.1783C89.8338 27.5462 89.6811 26.8111 89.6811 25.973C89.6811 25.1349 89.8338 24.3963 90.1392 23.7571C90.4482 23.1143 90.8778 22.6136 91.4283 22.255C91.9822 21.8928 92.6286 21.7116 93.3672 21.7116C93.7933 21.7116 94.2141 21.7827 94.6296 21.9247C95.0451 22.0668 95.4233 22.2976 95.7642 22.6172C96.1051 22.9332 96.3768 23.3523 96.5792 23.8743C96.7816 24.3963 96.8828 25.0391 96.8828 25.8026V26.3352H90.576V25.2486H95.6044C95.6044 24.7869 95.5121 24.375 95.3274 24.0128C95.1463 23.6506 94.8871 23.3647 94.5497 23.1552C94.2159 22.9457 93.8217 22.8409 93.3672 22.8409C92.8665 22.8409 92.4332 22.9652 92.0675 23.2138C91.7053 23.4588 91.4265 23.7784 91.2312 24.1726C91.0359 24.5668 90.9382 24.9893 90.9382 25.4403V26.1648C90.9382 26.7827 91.0447 27.3065 91.2578 27.7362C91.4744 28.1623 91.7745 28.4872 92.158 28.7109C92.5415 28.9311 92.9872 29.0412 93.495 29.0412C93.8253 29.0412 94.1236 28.995 94.3899 28.9027C94.6598 28.8068 94.8924 28.6648 95.0877 28.4766C95.283 28.2848 95.4339 28.0469 95.5405 27.7628L96.755 28.1037C96.6271 28.5156 96.4123 28.8778 96.1104 29.1903C95.8086 29.4993 95.4357 29.7408 94.9918 29.9148C94.5479 30.0852 94.049 30.1705 93.495 30.1705ZM102.119 30.1705C101.352 30.1705 100.691 29.9893 100.137 29.6271C99.5835 29.2649 99.1573 28.766 98.859 28.1303C98.5607 27.4947 98.4116 26.7685 98.4116 25.9517C98.4116 25.1207 98.5643 24.3874 98.8697 23.7518C99.1786 23.1126 99.6083 22.6136 100.159 22.255C100.713 21.8928 101.359 21.7116 102.098 21.7116C102.673 21.7116 103.191 21.8182 103.653 22.0312C104.115 22.2443 104.493 22.5426 104.788 22.9261C105.082 23.3097 105.265 23.7571 105.336 24.2685H104.079C103.983 23.8956 103.77 23.5653 103.44 23.2777C103.113 22.9865 102.673 22.8409 102.119 22.8409C101.629 22.8409 101.199 22.9687 100.83 23.2244C100.464 23.4766 100.178 23.8335 99.9723 24.2951C99.7699 24.7532 99.6687 25.2912 99.6687 25.9091C99.6687 26.5412 99.7681 27.0916 99.967 27.5604C100.169 28.0291 100.453 28.3931 100.819 28.6523C101.189 28.9116 101.622 29.0412 102.119 29.0412C102.446 29.0412 102.742 28.9844 103.009 28.8707C103.275 28.7571 103.5 28.5938 103.685 28.3807C103.87 28.1676 104.001 27.9119 104.079 27.6136H105.336C105.265 28.0966 105.089 28.5316 104.809 28.9187C104.532 29.3022 104.164 29.6076 103.706 29.8349C103.252 30.0586 102.723 30.1705 102.119 30.1705Z" fill="#06B6D4"></path> <defs> <clipPath id="clip0_509_2602"> <rect width="22" height="22" fill="white" transform="translate(20 14)"></rect> </clipPath> </defs> </svg> 