<?xml version="1.0" encoding="UTF-8"?> <svg xmlns="http://www.w3.org/2000/svg" width="1920" height="1080" viewBox="0 0 1920 1080" fill="none"> <mask id="mask0_180_1827" style="mask-type:alpha" maskUnits="userSpaceOnUse" x="0" y="0" width="1920" height="1080"> <rect width="1920" height="1080" fill="#080C13"></rect> </mask> <g mask="url(#mask0_180_1827)"> <path d="M40 0V1072" stroke="white"></path> <path d="M100 0V1072" stroke="white"></path> <path d="M160 0V1072" stroke="white"></path> <path d="M220 0V1072" stroke="white"></path> <path d="M280 0V1072" stroke="white"></path> <path d="M340 0V1072" stroke="white"></path> <path d="M400 0V1072" stroke="white"></path> <path d="M460 0V1072" stroke="white"></path> <path d="M520 0V1072" stroke="white"></path> <path d="M580 0V1072" stroke="white"></path> <path d="M640 0V1072" stroke="white"></path> <path d="M700 0V1072" stroke="white"></path> <path d="M760 0V1072" stroke="white"></path> <path d="M820 0V1072" stroke="white"></path> <path d="M880 0V1072" stroke="white"></path> <path d="M940 0V1072" stroke="white"></path> <path d="M1000 0V1072" stroke="white"></path> <path d="M1060 0V1072" stroke="white"></path> <path d="M1120 0V1072" stroke="white"></path> <path d="M1180 0V1072" stroke="white"></path> <path d="M1240 0V1072" stroke="white"></path> <path d="M1300 0V1072" stroke="white"></path> <path d="M1360 0V1072" stroke="white"></path> <path d="M1420 0V1072" stroke="white"></path> <path d="M1480 0V1072" stroke="white"></path> <path d="M1540 0V1072" stroke="white"></path> <path d="M1600 0V1072" stroke="white"></path> <path d="M1660 0V1072" stroke="white"></path> <path d="M1720 0V1072" stroke="white"></path> <path d="M1780 0V1072" stroke="white"></path> <path d="M1840 0V1072" stroke="white"></path> <path d="M1900 0V1072" stroke="white"></path> <path d="M-20 0L2124 0" stroke="white"></path> <path d="M-20 120L2124 120" stroke="white"></path> <path d="M-20 240L2124 240" stroke="white"></path> <path d="M-20 360L2124 360" stroke="white"></path> <path d="M-20 480L2124 480" stroke="white"></path> <path d="M-20 600L2124 600" stroke="white"></path> <path d="M-20 720L2124 720" stroke="white"></path> <path d="M-20 840L2124 840" stroke="white"></path> <path d="M-20 960L2124 960" stroke="white"></path> <path d="M-20 1080L2124 1080" stroke="white"></path> </g> </svg> 