<?xml version="1.0" encoding="UTF-8"?> <svg xmlns="http://www.w3.org/2000/svg" width="228" height="75" viewBox="0 0 228 75" fill="none"> <path d="M2.00653 3.27273H3.26789L6.2338 10.517H6.33607L9.30198 3.27273H10.5633V12H9.57471V5.36932H9.48948L6.76221 12H5.80766L3.08039 5.36932H2.99516V12H2.00653V3.27273ZM14.4721 12.1534C14.0573 12.1534 13.6809 12.0753 13.3428 11.919C13.0047 11.7599 12.7363 11.5312 12.5374 11.233C12.3386 10.9318 12.2391 10.5682 12.2391 10.142C12.2391 9.76705 12.313 9.46307 12.4607 9.23011C12.6084 8.99432 12.8059 8.80966 13.053 8.67614C13.3002 8.54261 13.5729 8.44318 13.8712 8.37784C14.1724 8.30966 14.4749 8.25568 14.7789 8.21591C15.1766 8.16477 15.4991 8.12642 15.7462 8.10085C15.9962 8.07244 16.178 8.02557 16.2917 7.96023C16.4082 7.89489 16.4664 7.78125 16.4664 7.61932V7.58523C16.4664 7.16477 16.3513 6.83807 16.1212 6.60511C15.894 6.37216 15.5488 6.25568 15.0857 6.25568C14.6056 6.25568 14.2292 6.3608 13.9565 6.57102C13.6837 6.78125 13.492 7.00568 13.3812 7.24432L12.4266 6.90341C12.5971 6.50568 12.8244 6.19602 13.1084 5.97443C13.3954 5.75 13.7079 5.59375 14.0459 5.50568C14.3869 5.41477 14.7221 5.36932 15.0516 5.36932C15.2619 5.36932 15.5033 5.39489 15.7761 5.44602C16.0516 5.49432 16.3172 5.59517 16.5729 5.74858C16.8315 5.90199 17.0459 6.13352 17.2164 6.44318C17.3869 6.75284 17.4721 7.16761 17.4721 7.6875V12H16.4664V11.1136H16.4153C16.3471 11.2557 16.2334 11.4077 16.0744 11.5696C15.9153 11.7315 15.7036 11.8693 15.4394 11.983C15.1752 12.0966 14.8528 12.1534 14.4721 12.1534ZM14.6255 11.25C15.0232 11.25 15.3584 11.1719 15.6312 11.0156C15.9067 10.8594 16.1141 10.6577 16.2533 10.4105C16.3954 10.1634 16.4664 9.90341 16.4664 9.63068V8.71023C16.4238 8.76136 16.33 8.80824 16.1851 8.85085C16.0431 8.89062 15.8783 8.92614 15.6908 8.95739C15.5062 8.9858 15.3258 9.01136 15.1496 9.03409C14.9763 9.05398 14.8357 9.07102 14.7278 9.08523C14.4664 9.11932 14.2221 9.17472 13.9948 9.25142C13.7704 9.32528 13.5886 9.4375 13.4494 9.58807C13.313 9.7358 13.2448 9.9375 13.2448 10.1932C13.2448 10.5426 13.3741 10.8068 13.6326 10.9858C13.894 11.1619 14.2249 11.25 14.6255 11.25ZM19.3077 12V5.45455H20.3133V8.30114H20.9781L23.3304 5.45455H24.6258L21.9838 8.60795L24.6599 12H23.3645L21.2168 9.23864H20.3133V12H19.3077ZM28.1425 12.1364C27.5289 12.1364 27.0005 11.9915 26.5573 11.7017C26.1141 11.4119 25.7732 11.0128 25.5346 10.5043C25.2959 9.99574 25.1766 9.41477 25.1766 8.76136C25.1766 8.09659 25.2988 7.50994 25.5431 7.00142C25.7903 6.49006 26.134 6.09091 26.5744 5.80398C27.0175 5.5142 27.5346 5.36932 28.1255 5.36932C28.5857 5.36932 29.0005 5.45455 29.3698 5.625C29.7391 5.79545 30.0417 6.03409 30.2775 6.34091C30.5133 6.64773 30.6596 7.00568 30.7164 7.41477H29.7107C29.634 7.11648 29.4636 6.85227 29.1994 6.62216C28.938 6.3892 28.5857 6.27273 28.1425 6.27273C27.7505 6.27273 27.4067 6.375 27.1113 6.57955C26.8187 6.78125 26.59 7.06676 26.4252 7.43608C26.2633 7.80256 26.1823 8.23295 26.1823 8.72727C26.1823 9.23295 26.2619 9.6733 26.4209 10.0483C26.5829 10.4233 26.8101 10.7145 27.1028 10.9219C27.3982 11.1293 27.7448 11.233 28.1425 11.233C28.4039 11.233 28.6411 11.1875 28.8542 11.0966C29.0672 11.0057 29.2476 10.875 29.3954 10.7045C29.5431 10.5341 29.6482 10.3295 29.7107 10.0909H30.7164C30.6596 10.4773 30.519 10.8253 30.2945 11.1349C30.0729 11.4418 29.7789 11.6861 29.4124 11.8679C29.0488 12.0469 28.6255 12.1364 28.1425 12.1364ZM33.1922 10.517L36.3457 5.45455H37.5047V12H36.4991V6.9375L33.3627 12H32.1866V5.45455H33.1922V10.517ZM42.9263 10.6364L45.2104 5.45455H46.1649L43.3354 12H42.5172L39.7388 5.45455H40.6763L42.9263 10.6364ZM40.3524 5.45455V12H39.3467V5.45455H40.3524ZM45.5001 12V5.45455H46.5058V12H45.5001ZM50.2729 12.1534C49.8581 12.1534 49.4817 12.0753 49.1436 11.919C48.8055 11.7599 48.5371 11.5312 48.3382 11.233C48.1393 10.9318 48.0399 10.5682 48.0399 10.142C48.0399 9.76705 48.1138 9.46307 48.2615 9.23011C48.4092 8.99432 48.6067 8.80966 48.8538 8.67614C49.101 8.54261 49.3737 8.44318 49.672 8.37784C49.9731 8.30966 50.2757 8.25568 50.5797 8.21591C50.9774 8.16477 51.2998 8.12642 51.547 8.10085C51.797 8.07244 51.9788 8.02557 52.0925 7.96023C52.2089 7.89489 52.2672 7.78125 52.2672 7.61932V7.58523C52.2672 7.16477 52.1521 6.83807 51.922 6.60511C51.6947 6.37216 51.3496 6.25568 50.8865 6.25568C50.4064 6.25568 50.03 6.3608 49.7572 6.57102C49.4845 6.78125 49.2927 7.00568 49.182 7.24432L48.2274 6.90341C48.3979 6.50568 48.6251 6.19602 48.9092 5.97443C49.1962 5.75 49.5087 5.59375 49.8467 5.50568C50.1876 5.41477 50.5229 5.36932 50.8524 5.36932C51.0626 5.36932 51.3041 5.39489 51.5768 5.44602C51.8524 5.49432 52.118 5.59517 52.3737 5.74858C52.6322 5.90199 52.8467 6.13352 53.0172 6.44318C53.1876 6.75284 53.2729 7.16761 53.2729 7.6875V12H52.2672V11.1136H52.216C52.1479 11.2557 52.0342 11.4077 51.8751 11.5696C51.716 11.7315 51.5044 11.8693 51.2402 11.983C50.976 12.0966 50.6535 12.1534 50.2729 12.1534ZM50.4263 11.25C50.824 11.25 51.1592 11.1719 51.432 11.0156C51.7075 10.8594 51.9149 10.6577 52.0541 10.4105C52.1962 10.1634 52.2672 9.90341 52.2672 9.63068V8.71023C52.2246 8.76136 52.1308 8.80824 51.9859 8.85085C51.8439 8.89062 51.6791 8.92614 51.4916 8.95739C51.307 8.9858 51.1266 9.01136 50.9504 9.03409C50.7771 9.05398 50.6365 9.07102 50.5285 9.08523C50.2672 9.11932 50.0229 9.17472 49.7956 9.25142C49.5712 9.32528 49.3893 9.4375 49.2501 9.58807C49.1138 9.7358 49.0456 9.9375 49.0456 10.1932C49.0456 10.5426 49.1748 10.8068 49.4334 10.9858C49.6947 11.1619 50.0257 11.25 50.4263 11.25ZM54.5289 12V11.0625H54.7675C54.9636 11.0625 55.1269 11.0241 55.2576 10.9474C55.3883 10.8679 55.4934 10.7301 55.5729 10.5341C55.6553 10.3352 55.7178 10.0597 55.7604 9.70739C55.8059 9.35227 55.8386 8.90057 55.8584 8.35227L55.9778 5.45455H60.3414V12H59.3357V6.39205H56.9323L56.83 8.72727C56.8073 9.2642 56.759 9.73722 56.6851 10.1463C56.6141 10.5526 56.5047 10.8935 56.357 11.169C56.2121 11.4446 56.019 11.652 55.7775 11.7912C55.536 11.9304 55.2334 12 54.8698 12H54.5289ZM63.0559 7.82386H64.9309C65.6979 7.82386 66.2846 8.01847 66.6908 8.40767C67.0971 8.79687 67.3002 9.28977 67.3002 9.88636C67.3002 10.2784 67.2093 10.6349 67.0275 10.956C66.8457 11.2741 66.5786 11.5284 66.2263 11.7188C65.8741 11.9062 65.4422 12 64.9309 12H62.1866V5.45455H63.1922V11.0625H64.9309C65.3286 11.0625 65.6553 10.9574 65.911 10.7472C66.1667 10.5369 66.2945 10.267 66.2945 9.9375C66.2945 9.59091 66.1667 9.30824 65.911 9.08949C65.6553 8.87074 65.3286 8.76136 64.9309 8.76136H63.0559V7.82386ZM73.2118 8.26705V9.20455H69.5981V8.26705H73.2118ZM69.8368 5.45455V12H68.8311V5.45455H69.8368ZM73.9788 5.45455V12H72.9731V5.45455H73.9788ZM78.4746 12.1364C77.8837 12.1364 77.3652 11.9957 76.9192 11.7145C76.476 11.4332 76.1294 11.0398 75.8794 10.5341C75.6322 10.0284 75.5087 9.4375 75.5087 8.76136C75.5087 8.07955 75.6322 7.48437 75.8794 6.97585C76.1294 6.46733 76.476 6.07244 76.9192 5.79119C77.3652 5.50994 77.8837 5.36932 78.4746 5.36932C79.0655 5.36932 79.5825 5.50994 80.0257 5.79119C80.4717 6.07244 80.8183 6.46733 81.0655 6.97585C81.3155 7.48437 81.4405 8.07955 81.4405 8.76136C81.4405 9.4375 81.3155 10.0284 81.0655 10.5341C80.8183 11.0398 80.4717 11.4332 80.0257 11.7145C79.5825 11.9957 79.0655 12.1364 78.4746 12.1364ZM78.4746 11.233C78.9234 11.233 79.2927 11.1179 79.5825 10.8878C79.8723 10.6577 80.0868 10.3551 80.226 9.98011C80.3652 9.60511 80.4348 9.19886 80.4348 8.76136C80.4348 8.32386 80.3652 7.91619 80.226 7.53835C80.0868 7.16051 79.8723 6.85511 79.5825 6.62216C79.2927 6.3892 78.9234 6.27273 78.4746 6.27273C78.0257 6.27273 77.6564 6.3892 77.3666 6.62216C77.0768 6.85511 76.8623 7.16051 76.7231 7.53835C76.5839 7.91619 76.5143 8.32386 76.5143 8.76136C76.5143 9.19886 76.5839 9.60511 76.7231 9.98011C76.8623 10.3551 77.0768 10.6577 77.3666 10.8878C77.6564 11.1179 78.0257 11.233 78.4746 11.233ZM85.7199 12.1364C85.0893 12.1364 84.5452 11.9972 84.0878 11.7188C83.6333 11.4375 83.2824 11.0455 83.0353 10.5426C82.791 10.0369 82.6688 9.44886 82.6688 8.77841C82.6688 8.10795 82.791 7.51705 83.0353 7.00568C83.2824 6.49148 83.6262 6.09091 84.0665 5.80398C84.5097 5.5142 85.0268 5.36932 85.6177 5.36932C85.9586 5.36932 86.2952 5.42614 86.6276 5.53977C86.96 5.65341 87.2626 5.83807 87.5353 6.09375C87.808 6.34659 88.0253 6.68182 88.1873 7.09943C88.3492 7.51705 88.4302 8.03125 88.4302 8.64205V9.06818H83.3847V8.19886H87.4074C87.4074 7.82955 87.3336 7.5 87.1859 7.21023C87.041 6.92045 86.8336 6.69176 86.5637 6.52415C86.2967 6.35653 85.9813 6.27273 85.6177 6.27273C85.2171 6.27273 84.8705 6.37216 84.5779 6.57102C84.2881 6.76705 84.0651 7.02273 83.9089 7.33807C83.7526 7.65341 83.6745 7.99148 83.6745 8.35227V8.93182C83.6745 9.42614 83.7597 9.84517 83.9302 10.1889C84.1035 10.5298 84.3435 10.7898 84.6503 10.9688C84.9572 11.1449 85.3137 11.233 85.7199 11.233C85.9842 11.233 86.2228 11.196 86.4359 11.1222C86.6518 11.0455 86.8378 10.9318 86.9941 10.7812C87.1503 10.6278 87.2711 10.4375 87.3563 10.2102L88.3279 10.483C88.2256 10.8125 88.0538 11.1023 87.8123 11.3523C87.5708 11.5994 87.2725 11.7926 86.9174 11.9318C86.5623 12.0682 86.1631 12.1364 85.7199 12.1364ZM93.335 12V5.45455H94.3407V8.30114H95.0055L97.3577 5.45455H98.6532L96.0111 8.60795L98.6873 12H97.3918L95.2441 9.23864H94.3407V12H93.335ZM102.17 12.1364C101.579 12.1364 101.061 11.9957 100.614 11.7145C100.171 11.4332 99.8247 11.0398 99.5747 10.5341C99.3275 10.0284 99.204 9.4375 99.204 8.76136C99.204 8.07955 99.3275 7.48437 99.5747 6.97585C99.8247 6.46733 100.171 6.07244 100.614 5.79119C101.061 5.50994 101.579 5.36932 102.17 5.36932C102.761 5.36932 103.278 5.50994 103.721 5.79119C104.167 6.07244 104.514 6.46733 104.761 6.97585C105.011 7.48437 105.136 8.07955 105.136 8.76136C105.136 9.4375 105.011 10.0284 104.761 10.5341C104.514 11.0398 104.167 11.4332 103.721 11.7145C103.278 11.9957 102.761 12.1364 102.17 12.1364ZM102.17 11.233C102.619 11.233 102.988 11.1179 103.278 10.8878C103.568 10.6577 103.782 10.3551 103.921 9.98011C104.061 9.60511 104.13 9.19886 104.13 8.76136C104.13 8.32386 104.061 7.91619 103.921 7.53835C103.782 7.16051 103.568 6.85511 103.278 6.62216C102.988 6.3892 102.619 6.27273 102.17 6.27273C101.721 6.27273 101.352 6.3892 101.062 6.62216C100.772 6.85511 100.558 7.16051 100.418 7.53835C100.279 7.91619 100.21 8.32386 100.21 8.76136C100.21 9.19886 100.279 9.60511 100.418 9.98011C100.558 10.3551 100.772 10.6577 101.062 10.8878C101.352 11.1179 101.721 11.233 102.17 11.233ZM106.091 12V11.0625H106.33C106.526 11.0625 106.689 11.0241 106.82 10.9474C106.951 10.8679 107.056 10.7301 107.135 10.5341C107.218 10.3352 107.28 10.0597 107.323 9.70739C107.368 9.35227 107.401 8.90057 107.421 8.35227L107.54 5.45455H111.904V12H110.898V6.39205H108.495L108.393 8.72727C108.37 9.2642 108.322 9.73722 108.248 10.1463C108.177 10.5526 108.067 10.8935 107.92 11.169C107.775 11.4446 107.581 11.652 107.34 11.7912C107.098 11.9304 106.796 12 106.432 12H106.091ZM114.755 10.517L117.908 5.45455H119.067V12H118.062V6.9375L114.925 12H113.749V5.45455H114.755V10.517ZM125.955 5.45455V12H124.949V5.45455H125.955ZM125.563 8.57386V9.51136C125.335 9.59659 125.11 9.67188 124.885 9.73722C124.661 9.79972 124.425 9.84943 124.178 9.88636C123.931 9.92045 123.659 9.9375 123.364 9.9375C122.622 9.9375 122.027 9.73722 121.578 9.33665C121.132 8.93608 120.909 8.33523 120.909 7.53409V5.4375H121.915V7.53409C121.915 7.86932 121.979 8.14489 122.107 8.3608C122.235 8.5767 122.408 8.73722 122.627 8.84233C122.845 8.94744 123.091 9 123.364 9C123.79 9 124.175 8.96165 124.519 8.88494C124.865 8.8054 125.213 8.7017 125.563 8.57386ZM130.544 12.1364C129.913 12.1364 129.369 11.9972 128.912 11.7188C128.458 11.4375 128.107 11.0455 127.86 10.5426C127.615 10.0369 127.493 9.44886 127.493 8.77841C127.493 8.10795 127.615 7.51705 127.86 7.00568C128.107 6.49148 128.45 6.09091 128.891 5.80398C129.334 5.5142 129.851 5.36932 130.442 5.36932C130.783 5.36932 131.119 5.42614 131.452 5.53977C131.784 5.65341 132.087 5.83807 132.36 6.09375C132.632 6.34659 132.85 6.68182 133.011 7.09943C133.173 7.51705 133.254 8.03125 133.254 8.64205V9.06818H128.209V8.19886H132.232C132.232 7.82955 132.158 7.5 132.01 7.21023C131.865 6.92045 131.658 6.69176 131.388 6.52415C131.121 6.35653 130.806 6.27273 130.442 6.27273C130.041 6.27273 129.695 6.37216 129.402 6.57102C129.112 6.76705 128.889 7.02273 128.733 7.33807C128.577 7.65341 128.499 7.99148 128.499 8.35227V8.93182C128.499 9.42614 128.584 9.84517 128.754 10.1889C128.928 10.5298 129.168 10.7898 129.475 10.9688C129.781 11.1449 130.138 11.233 130.544 11.233C130.808 11.233 131.047 11.196 131.26 11.1222C131.476 11.0455 131.662 10.9318 131.818 10.7812C131.975 10.6278 132.095 10.4375 132.181 10.2102L133.152 10.483C133.05 10.8125 132.878 11.1023 132.636 11.3523C132.395 11.5994 132.097 11.7926 131.742 11.9318C131.386 12.0682 130.987 12.1364 130.544 12.1364ZM137.443 12.1364C136.83 12.1364 136.301 11.9915 135.858 11.7017C135.415 11.4119 135.074 11.0128 134.835 10.5043C134.597 9.99574 134.477 9.41477 134.477 8.76136C134.477 8.09659 134.6 7.50994 134.844 7.00142C135.091 6.49006 135.435 6.09091 135.875 5.80398C136.318 5.5142 136.835 5.36932 137.426 5.36932C137.886 5.36932 138.301 5.45455 138.671 5.625C139.04 5.79545 139.342 6.03409 139.578 6.34091C139.814 6.64773 139.96 7.00568 140.017 7.41477H139.011C138.935 7.11648 138.764 6.85227 138.5 6.62216C138.239 6.3892 137.886 6.27273 137.443 6.27273C137.051 6.27273 136.708 6.375 136.412 6.57955C136.119 6.78125 135.891 7.06676 135.726 7.43608C135.564 7.80256 135.483 8.23295 135.483 8.72727C135.483 9.23295 135.563 9.6733 135.722 10.0483C135.884 10.4233 136.111 10.7145 136.404 10.9219C136.699 11.1293 137.046 11.233 137.443 11.233C137.705 11.233 137.942 11.1875 138.155 11.0966C138.368 11.0057 138.548 10.875 138.696 10.7045C138.844 10.5341 138.949 10.3295 139.011 10.0909H140.017C139.96 10.4773 139.82 10.8253 139.595 11.1349C139.374 11.4418 139.08 11.6861 138.713 11.8679C138.35 12.0469 137.926 12.1364 137.443 12.1364ZM140.972 6.39205V5.45455H146.29V6.39205H144.142V12H143.136V6.39205H140.972ZM147.757 12V5.45455H150.433C151.138 5.45455 151.697 5.61364 152.112 5.93182C152.527 6.25 152.734 6.67045 152.734 7.19318C152.734 7.59091 152.616 7.89915 152.38 8.1179C152.145 8.33381 151.842 8.48011 151.473 8.55682C151.714 8.59091 151.949 8.67614 152.176 8.8125C152.406 8.94886 152.596 9.13636 152.747 9.375C152.898 9.6108 152.973 9.90057 152.973 10.2443C152.973 10.5795 152.888 10.8793 152.717 11.1435C152.547 11.4077 152.302 11.6165 151.984 11.7699C151.666 11.9233 151.285 12 150.842 12H147.757ZM148.711 11.0795H150.842C151.189 11.0795 151.46 10.9972 151.656 10.8324C151.852 10.6676 151.95 10.4432 151.95 10.1591C151.95 9.82102 151.852 9.5554 151.656 9.36222C151.46 9.16619 151.189 9.06818 150.842 9.06818H148.711V11.0795ZM148.711 8.19886H150.433C150.703 8.19886 150.934 8.16193 151.128 8.08807C151.321 8.01136 151.469 7.90341 151.571 7.7642C151.676 7.62216 151.728 7.45455 151.728 7.26136C151.728 6.9858 151.613 6.76989 151.383 6.61364C151.153 6.45455 150.836 6.375 150.433 6.375H148.711V8.19886ZM157.154 12.1364C156.563 12.1364 156.045 11.9957 155.599 11.7145C155.156 11.4332 154.809 11.0398 154.559 10.5341C154.312 10.0284 154.188 9.4375 154.188 8.76136C154.188 8.07955 154.312 7.48437 154.559 6.97585C154.809 6.46733 155.156 6.07244 155.599 5.79119C156.045 5.50994 156.563 5.36932 157.154 5.36932C157.745 5.36932 158.262 5.50994 158.705 5.79119C159.151 6.07244 159.498 6.46733 159.745 6.97585C159.995 7.48437 160.12 8.07955 160.12 8.76136C160.12 9.4375 159.995 10.0284 159.745 10.5341C159.498 11.0398 159.151 11.4332 158.705 11.7145C158.262 11.9957 157.745 12.1364 157.154 12.1364ZM157.154 11.233C157.603 11.233 157.972 11.1179 158.262 10.8878C158.552 10.6577 158.766 10.3551 158.906 9.98011C159.045 9.60511 159.114 9.19886 159.114 8.76136C159.114 8.32386 159.045 7.91619 158.906 7.53835C158.766 7.16051 158.552 6.85511 158.262 6.62216C157.972 6.3892 157.603 6.27273 157.154 6.27273C156.705 6.27273 156.336 6.3892 156.046 6.62216C155.757 6.85511 155.542 7.16051 155.403 7.53835C155.264 7.91619 155.194 8.32386 155.194 8.76136C155.194 9.19886 155.264 9.60511 155.403 9.98011C155.542 10.3551 155.757 10.6577 156.046 10.8878C156.336 11.1179 156.705 11.233 157.154 11.233ZM164.655 6.39205V5.45455H169.973V6.39205H167.826V12H166.82V6.39205H164.655ZM173.76 12.1364C173.169 12.1364 172.65 11.9957 172.204 11.7145C171.761 11.4332 171.415 11.0398 171.165 10.5341C170.917 10.0284 170.794 9.4375 170.794 8.76136C170.794 8.07955 170.917 7.48437 171.165 6.97585C171.415 6.46733 171.761 6.07244 172.204 5.79119C172.65 5.50994 173.169 5.36932 173.76 5.36932C174.351 5.36932 174.868 5.50994 175.311 5.79119C175.757 6.07244 176.103 6.46733 176.351 6.97585C176.601 7.48437 176.726 8.07955 176.726 8.76136C176.726 9.4375 176.601 10.0284 176.351 10.5341C176.103 11.0398 175.757 11.4332 175.311 11.7145C174.868 11.9957 174.351 12.1364 173.76 12.1364ZM173.76 11.233C174.209 11.233 174.578 11.1179 174.868 10.8878C175.157 10.6577 175.372 10.3551 175.511 9.98011C175.65 9.60511 175.72 9.19886 175.72 8.76136C175.72 8.32386 175.65 7.91619 175.511 7.53835C175.372 7.16051 175.157 6.85511 174.868 6.62216C174.578 6.3892 174.209 6.27273 173.76 6.27273C173.311 6.27273 172.942 6.3892 172.652 6.62216C172.362 6.85511 172.148 7.16051 172.008 7.53835C171.869 7.91619 171.799 8.32386 171.799 8.76136C171.799 9.19886 171.869 9.60511 172.008 9.98011C172.148 10.3551 172.362 10.6577 172.652 10.8878C172.942 11.1179 173.311 11.233 173.76 11.233ZM178.261 12V5.45455H179.266V8.30114H179.931L182.284 5.45455H183.579L180.937 8.60795L183.613 12H182.318L180.17 9.23864H179.266V12H178.261ZM187.181 12.1364C186.55 12.1364 186.006 11.9972 185.549 11.7188C185.094 11.4375 184.743 11.0455 184.496 10.5426C184.252 10.0369 184.13 9.44886 184.13 8.77841C184.13 8.10795 184.252 7.51705 184.496 7.00568C184.743 6.49148 185.087 6.09091 185.527 5.80398C185.971 5.5142 186.488 5.36932 187.079 5.36932C187.42 5.36932 187.756 5.42614 188.089 5.53977C188.421 5.65341 188.723 5.83807 188.996 6.09375C189.269 6.34659 189.486 6.68182 189.648 7.09943C189.81 7.51705 189.891 8.03125 189.891 8.64205V9.06818H184.846V8.19886H188.868C188.868 7.82955 188.795 7.5 188.647 7.21023C188.502 6.92045 188.295 6.69176 188.025 6.52415C187.758 6.35653 187.442 6.27273 187.079 6.27273C186.678 6.27273 186.331 6.37216 186.039 6.57102C185.749 6.76705 185.526 7.02273 185.37 7.33807C185.214 7.65341 185.135 7.99148 185.135 8.35227V8.93182C185.135 9.42614 185.221 9.84517 185.391 10.1889C185.564 10.5298 185.804 10.7898 186.111 10.9688C186.418 11.1449 186.775 11.233 187.181 11.233C187.445 11.233 187.684 11.196 187.897 11.1222C188.113 11.0455 188.299 10.9318 188.455 10.7812C188.611 10.6278 188.732 10.4375 188.817 10.2102L189.789 10.483C189.687 10.8125 189.515 11.1023 189.273 11.3523C189.032 11.5994 188.733 11.7926 188.378 11.9318C188.023 12.0682 187.624 12.1364 187.181 12.1364ZM195.802 8.26705V9.20455H192.188V8.26705H195.802ZM192.427 5.45455V12H191.421V5.45455H192.427ZM196.569 5.45455V12H195.563V5.45455H196.569ZM201.064 12.1364C200.473 12.1364 199.955 11.9957 199.509 11.7145C199.066 11.4332 198.719 11.0398 198.469 10.5341C198.222 10.0284 198.098 9.4375 198.098 8.76136C198.098 8.07955 198.222 7.48437 198.469 6.97585C198.719 6.46733 199.066 6.07244 199.509 5.79119C199.955 5.50994 200.473 5.36932 201.064 5.36932C201.655 5.36932 202.172 5.50994 202.616 5.79119C203.062 6.07244 203.408 6.46733 203.655 6.97585C203.905 7.48437 204.03 8.07955 204.03 8.76136C204.03 9.4375 203.905 10.0284 203.655 10.5341C203.408 11.0398 203.062 11.4332 202.616 11.7145C202.172 11.9957 201.655 12.1364 201.064 12.1364ZM201.064 11.233C201.513 11.233 201.883 11.1179 202.172 10.8878C202.462 10.6577 202.677 10.3551 202.816 9.98011C202.955 9.60511 203.025 9.19886 203.025 8.76136C203.025 8.32386 202.955 7.91619 202.816 7.53835C202.677 7.16051 202.462 6.85511 202.172 6.62216C201.883 6.3892 201.513 6.27273 201.064 6.27273C200.616 6.27273 200.246 6.3892 199.956 6.62216C199.667 6.85511 199.452 7.16051 199.313 7.53835C199.174 7.91619 199.104 8.32386 199.104 8.76136C199.104 9.19886 199.174 9.60511 199.313 9.98011C199.452 10.3551 199.667 10.6577 199.956 10.8878C200.246 11.1179 200.616 11.233 201.064 11.233ZM205.565 12V5.45455H208.242C208.946 5.45455 209.506 5.61364 209.921 5.93182C210.335 6.25 210.543 6.67045 210.543 7.19318C210.543 7.59091 210.425 7.89915 210.189 8.1179C209.953 8.33381 209.651 8.48011 209.281 8.55682C209.523 8.59091 209.757 8.67614 209.985 8.8125C210.215 8.94886 210.405 9.13636 210.556 9.375C210.706 9.6108 210.781 9.90057 210.781 10.2443C210.781 10.5795 210.696 10.8793 210.526 11.1435C210.355 11.4077 210.111 11.6165 209.793 11.7699C209.475 11.9233 209.094 12 208.651 12H205.565ZM206.52 11.0795H208.651C208.997 11.0795 209.269 10.9972 209.465 10.8324C209.661 10.6676 209.759 10.4432 209.759 10.1591C209.759 9.82102 209.661 9.5554 209.465 9.36222C209.269 9.16619 208.997 9.06818 208.651 9.06818H206.52V11.0795ZM206.52 8.19886H208.242C208.511 8.19886 208.743 8.16193 208.936 8.08807C209.129 8.01136 209.277 7.90341 209.379 7.7642C209.485 7.62216 209.537 7.45455 209.537 7.26136C209.537 6.9858 209.422 6.76989 209.192 6.61364C208.962 6.45455 208.645 6.375 208.242 6.375H206.52V8.19886Z" fill="#525252"></path> <rect x="1.1665" y="25.5" width="225.667" height="49" rx="9.5" fill="#E0E0E0"></rect> <g clip-path="url(#clip0_509_2694)"> <path d="M38.0812 45.3073L35.823 42.2563C35.5452 41.868 35.179 41.5515 34.7546 41.3331C34.3302 41.1146 33.8598 41.0004 33.3825 41H25.95C25.4749 40.9996 25.0066 41.1119 24.5835 41.3278C24.1604 41.5438 23.7946 41.8571 23.5162 42.242L21.2175 45.3148C20.8432 45.8425 20.6499 46.4773 20.6665 47.1241C20.6831 47.7709 20.9088 48.3949 21.3097 48.9028L27.9037 58.1488C28.1138 58.4148 28.3817 58.6297 28.687 58.7772C28.9923 58.9247 29.3271 59.0008 29.6662 59C30.0111 58.9993 30.3512 58.9195 30.6604 58.7667C30.9696 58.614 31.2396 58.3923 31.4497 58.1188L37.9912 48.9755C38.4101 48.4602 38.6461 47.8206 38.6624 47.1567C38.6787 46.4929 38.4743 45.8424 38.0812 45.3073V45.3073ZM34.6102 43.1383L36.8737 46.1968C36.8857 46.2133 36.8887 46.2328 36.9007 46.25H33.2317L32.1607 42.5H33.3825C33.6232 42.5007 33.8602 42.5591 34.0738 42.6701C34.2874 42.7811 34.4713 42.9417 34.6102 43.1383V43.1383ZM29.6662 55.3385L27.6412 47.75H31.6912L29.6662 55.3385ZM27.6607 46.25L28.7317 42.5H30.6007L31.6717 46.25H27.6607ZM24.729 43.1278C24.8681 42.9338 25.0514 42.7757 25.2637 42.6666C25.476 42.5574 25.7112 42.5003 25.95 42.5H27.1717L26.1007 46.25H22.4047C22.4152 46.2335 22.4182 46.2133 22.4302 46.1975L24.729 43.1278ZM22.5022 47.9938C22.4481 47.9173 22.4016 47.8356 22.3635 47.75H26.0902L28.3357 56.1725L22.5022 47.9938ZM30.9945 56.18L33.2445 47.75H36.984C36.9356 47.862 36.8745 47.9679 36.8017 48.0658L30.9945 56.18Z" fill="#525252" fill-opacity="0.3"></path> </g> <path d="M49.3654 52.7102V51.8409L53.2006 45.7727H53.8313V47.1193H53.4051L50.5074 51.7045V51.7727H55.6722V52.7102H49.3654ZM53.4733 54.5V52.446V52.0412V45.7727H54.479V54.5H53.4733ZM60.1157 54.6193C59.4737 54.6193 58.9268 54.4446 58.4751 54.0952C58.0234 53.7429 57.6782 53.233 57.4396 52.5653C57.2009 51.8949 57.0816 51.0852 57.0816 50.1364C57.0816 49.1932 57.2009 48.3878 57.4396 47.7202C57.6811 47.0497 58.0277 46.5384 58.4794 46.1861C58.9339 45.831 59.4794 45.6534 60.1157 45.6534C60.7521 45.6534 61.2961 45.831 61.7478 46.1861C62.2024 46.5384 62.549 47.0497 62.7876 47.7202C63.0291 48.3878 63.1498 49.1932 63.1498 50.1364C63.1498 51.0852 63.0305 51.8949 62.7919 52.5653C62.5532 53.233 62.2081 53.7429 61.7563 54.0952C61.3046 54.4446 60.7578 54.6193 60.1157 54.6193ZM60.1157 53.6818C60.7521 53.6818 61.2464 53.375 61.5987 52.7614C61.951 52.1477 62.1271 51.2727 62.1271 50.1364C62.1271 49.3807 62.0461 48.7372 61.8842 48.206C61.7251 47.6747 61.495 47.2699 61.1938 46.9915C60.8956 46.7131 60.5362 46.5739 60.1157 46.5739C59.485 46.5739 58.9921 46.8849 58.637 47.5071C58.2819 48.1264 58.1044 49.0028 58.1044 50.1364C58.1044 50.892 58.1839 51.5341 58.343 52.0625C58.5021 52.5909 58.7308 52.9929 59.0291 53.2685C59.3302 53.544 59.6924 53.6818 60.1157 53.6818ZM67.6157 54.6193C66.9737 54.6193 66.4268 54.4446 65.9751 54.0952C65.5234 53.7429 65.1782 53.233 64.9396 52.5653C64.7009 51.8949 64.5816 51.0852 64.5816 50.1364C64.5816 49.1932 64.7009 48.3878 64.9396 47.7202C65.1811 47.0497 65.5277 46.5384 65.9794 46.1861C66.4339 45.831 66.9794 45.6534 67.6157 45.6534C68.2521 45.6534 68.7961 45.831 69.2478 46.1861C69.7024 46.5384 70.049 47.0497 70.2876 47.7202C70.5291 48.3878 70.6498 49.1932 70.6498 50.1364C70.6498 51.0852 70.5305 51.8949 70.2919 52.5653C70.0532 53.233 69.7081 53.7429 69.2563 54.0952C68.8046 54.4446 68.2578 54.6193 67.6157 54.6193ZM67.6157 53.6818C68.2521 53.6818 68.7464 53.375 69.0987 52.7614C69.451 52.1477 69.6271 51.2727 69.6271 50.1364C69.6271 49.3807 69.5461 48.7372 69.3842 48.206C69.2251 47.6747 68.995 47.2699 68.6938 46.9915C68.3956 46.7131 68.0362 46.5739 67.6157 46.5739C66.985 46.5739 66.4921 46.8849 66.137 47.5071C65.7819 48.1264 65.6044 49.0028 65.6044 50.1364C65.6044 50.892 65.6839 51.5341 65.843 52.0625C66.0021 52.5909 66.2308 52.9929 66.5291 53.2685C66.8302 53.544 67.1924 53.6818 67.6157 53.6818ZM75.1157 54.6193C74.4737 54.6193 73.9268 54.4446 73.4751 54.0952C73.0234 53.7429 72.6782 53.233 72.4396 52.5653C72.2009 51.8949 72.0816 51.0852 72.0816 50.1364C72.0816 49.1932 72.2009 48.3878 72.4396 47.7202C72.6811 47.0497 73.0277 46.5384 73.4794 46.1861C73.9339 45.831 74.4794 45.6534 75.1157 45.6534C75.7521 45.6534 76.2961 45.831 76.7478 46.1861C77.2024 46.5384 77.549 47.0497 77.7876 47.7202C78.0291 48.3878 78.1498 49.1932 78.1498 50.1364C78.1498 51.0852 78.0305 51.8949 77.7919 52.5653C77.5532 53.233 77.2081 53.7429 76.7563 54.0952C76.3046 54.4446 75.7578 54.6193 75.1157 54.6193ZM75.1157 53.6818C75.7521 53.6818 76.2464 53.375 76.5987 52.7614C76.951 52.1477 77.1271 51.2727 77.1271 50.1364C77.1271 49.3807 77.0461 48.7372 76.8842 48.206C76.7251 47.6747 76.495 47.2699 76.1938 46.9915C75.8956 46.7131 75.5362 46.5739 75.1157 46.5739C74.485 46.5739 73.9921 46.8849 73.637 47.5071C73.2819 48.1264 73.1044 49.0028 73.1044 50.1364C73.1044 50.892 73.1839 51.5341 73.343 52.0625C73.5021 52.5909 73.7308 52.9929 74.0291 53.2685C74.3302 53.544 74.6924 53.6818 75.1157 53.6818Z" fill="#525252"></path> <rect x="161.333" y="41" width="18" height="18" rx="9" fill="#525252" fill-opacity="0.1"></rect> <path d="M174.083 49.25H171.083V46.25C171.083 46.0511 171.004 45.8603 170.863 45.7197C170.723 45.579 170.532 45.5 170.333 45.5C170.134 45.5 169.943 45.579 169.803 45.7197C169.662 45.8603 169.583 46.0511 169.583 46.25V49.25H166.583C166.384 49.25 166.193 49.329 166.053 49.4697C165.912 49.6103 165.833 49.8011 165.833 50C165.833 50.1989 165.912 50.3897 166.053 50.5303C166.193 50.671 166.384 50.75 166.583 50.75H169.583V53.75C169.583 53.9489 169.662 54.1397 169.803 54.2803C169.943 54.421 170.134 54.5 170.333 54.5C170.532 54.5 170.723 54.421 170.863 54.2803C171.004 54.1397 171.083 53.9489 171.083 53.75V50.75H174.083C174.282 50.75 174.473 50.671 174.613 50.5303C174.754 50.3897 174.833 50.1989 174.833 50C174.833 49.8011 174.754 49.6103 174.613 49.4697C174.473 49.329 174.282 49.25 174.083 49.25Z" fill="#525252" fill-opacity="0.3"></path> <rect x="189.333" y="41" width="18" height="18" rx="9" fill="#525252" fill-opacity="0.1"></rect> <path d="M194.583 49.2498C194.384 49.2498 194.193 49.3288 194.053 49.4694C193.912 49.6101 193.833 49.8008 193.833 49.9998C193.833 50.1987 193.912 50.3894 194.053 50.5301C194.193 50.6707 194.384 50.7498 194.583 50.7498H202.083C202.282 50.7498 202.473 50.6707 202.613 50.5301C202.754 50.3894 202.833 50.1987 202.833 49.9998C202.833 49.8008 202.754 49.6101 202.613 49.4694C202.473 49.3288 202.282 49.2498 202.083 49.2498H194.583Z" fill="#525252" fill-opacity="0.3"></path> <rect x="1.1665" y="25.5" width="225.667" height="49" rx="9.5" stroke="#B3B3B3"></rect> <defs> <clipPath id="clip0_509_2694"> <rect width="18" height="18" fill="white" transform="translate(20.6665 41)"></rect> </clipPath> </defs> </svg> 