<?xml version="1.0" encoding="UTF-8"?> <svg xmlns="http://www.w3.org/2000/svg" xmlns:xlink="http://www.w3.org/1999/xlink" xmlns:svgjs="http://svgjs.com/svgjs" width="512" height="512" x="0" y="0" viewBox="0 0 512 512" style="enable-background:new 0 0 512 512" xml:space="preserve"> <g> <path d="M136 242C61.561 242 1 302.561 1 377s60.561 135 135 135 135-60.561 135-135-60.561-135-135-135zm59.606 118.606-70 70C122.678 433.535 118.839 435 115 435s-7.678-1.465-10.606-4.394l-30-30c-5.858-5.857-5.858-15.355 0-21.213 5.857-5.857 15.355-5.857 21.213 0L115 398.787l59.394-59.394c5.857-5.857 15.355-5.857 21.213 0 5.857 5.858 5.857 15.356-.001 21.213z" fill="#ffffff" data-original="#000000"></path> <path d="M396 130c-8.284 0-15-6.716-15-15V0H166c-24.813 0-45 20.187-45 45v167.689c4.942-.448 9.943-.689 15-.689 51.128 0 96.897 23.376 127.186 60H426c8.284 0 15 6.716 15 15s-6.716 15-15 15H282.948a163.749 163.749 0 0 1 17.363 60H426c8.284 0 15 6.716 15 15s-6.716 15-15 15H300.311c-4.486 49.539-30.954 92.826-69.553 120H466c24.813 0 45-20.187 45-45V130zm30 82H206c-8.284 0-15-6.716-15-15s6.716-15 15-15h220c8.284 0 15 6.716 15 15s-6.716 15-15 15z" fill="#ffffff" data-original="#000000"></path> <path d="M411 8.783V100h91.211z" fill="#ffffff" data-original="#000000"></path> </g> </svg> 