<?xml version="1.0" encoding="UTF-8"?> <svg xmlns="http://www.w3.org/2000/svg" width="227" height="75" viewBox="0 0 227 75" fill="none"> <path d="M1.23651 3.27273H2.49787L5.46378 10.517H5.56605L8.53196 3.27273H9.79332V12H8.80469V5.36932H8.71946L5.99219 12H5.03764L2.31037 5.36932H2.22514V12H1.23651V3.27273ZM14.435 12.1364C13.8441 12.1364 13.3256 11.9957 12.8796 11.7145C12.4364 11.4332 12.0898 11.0398 11.8398 10.5341C11.5927 10.0284 11.4691 9.4375 11.4691 8.76136C11.4691 8.07955 11.5927 7.48437 11.8398 6.97585C12.0898 6.46733 12.4364 6.07244 12.8796 5.79119C13.3256 5.50994 13.8441 5.36932 14.435 5.36932C15.0259 5.36932 15.543 5.50994 15.9862 5.79119C16.4322 6.07244 16.7788 6.46733 17.0259 6.97585C17.2759 7.48437 17.4009 8.07955 17.4009 8.76136C17.4009 9.4375 17.2759 10.0284 17.0259 10.5341C16.7788 11.0398 16.4322 11.4332 15.9862 11.7145C15.543 11.9957 15.0259 12.1364 14.435 12.1364ZM14.435 11.233C14.8839 11.233 15.2532 11.1179 15.543 10.8878C15.8327 10.6577 16.0472 10.3551 16.1864 9.98011C16.3256 9.60511 16.3952 9.19886 16.3952 8.76136C16.3952 8.32386 16.3256 7.91619 16.1864 7.53835C16.0472 7.16051 15.8327 6.85511 15.543 6.62216C15.2532 6.3892 14.8839 6.27273 14.435 6.27273C13.9862 6.27273 13.6168 6.3892 13.3271 6.62216C13.0373 6.85511 12.8228 7.16051 12.6836 7.53835C12.5444 7.91619 12.4748 8.32386 12.4748 8.76136C12.4748 9.19886 12.5444 9.60511 12.6836 9.98011C12.8228 10.3551 13.0373 10.6577 13.3271 10.8878C13.6168 11.1179 13.9862 11.233 14.435 11.233ZM18.2372 13.875V11.0625H18.7827C18.9162 10.9233 19.0313 10.7727 19.1278 10.6108C19.2244 10.4489 19.3082 10.2571 19.3793 10.0355C19.4531 9.81108 19.5156 9.53835 19.5668 9.21733C19.6179 8.89347 19.6634 8.50284 19.7031 8.04545L19.9247 5.45455H24.0838V11.0625H25.0895V13.875H24.0838V12H19.2429V13.875H18.2372ZM19.9247 11.0625H23.0781V6.39205H20.8622L20.6918 8.04545C20.6207 8.73011 20.5327 9.32812 20.4276 9.83949C20.3224 10.3509 20.1548 10.7585 19.9247 11.0625ZM29.1687 12.1364C28.538 12.1364 27.994 11.9972 27.5366 11.7188C27.082 11.4375 26.7312 11.0455 26.484 10.5426C26.2397 10.0369 26.1175 9.44886 26.1175 8.77841C26.1175 8.10795 26.2397 7.51705 26.484 7.00568C26.7312 6.49148 27.0749 6.09091 27.5153 5.80398C27.9585 5.5142 28.4755 5.36932 29.0664 5.36932C29.4073 5.36932 29.744 5.42614 30.0763 5.53977C30.4087 5.65341 30.7113 5.83807 30.984 6.09375C31.2567 6.34659 31.4741 6.68182 31.636 7.09943C31.7979 7.51705 31.8789 8.03125 31.8789 8.64205V9.06818H26.8335V8.19886H30.8562C30.8562 7.82955 30.7823 7.5 30.6346 7.21023C30.4897 6.92045 30.2823 6.69176 30.0124 6.52415C29.7454 6.35653 29.43 6.27273 29.0664 6.27273C28.6658 6.27273 28.3192 6.37216 28.0266 6.57102C27.7369 6.76705 27.5138 7.02273 27.3576 7.33807C27.2013 7.65341 27.1232 7.99148 27.1232 8.35227V8.93182C27.1232 9.42614 27.2085 9.84517 27.3789 10.1889C27.5522 10.5298 27.7923 10.7898 28.0991 10.9688C28.4059 11.1449 28.7624 11.233 29.1687 11.233C29.4329 11.233 29.6715 11.196 29.8846 11.1222C30.1005 11.0455 30.2866 10.9318 30.4428 10.7812C30.5991 10.6278 30.7198 10.4375 30.805 10.2102L31.7766 10.483C31.6744 10.8125 31.5025 11.1023 31.261 11.3523C31.0195 11.5994 30.7212 11.7926 30.3661 11.9318C30.011 12.0682 29.6119 12.1364 29.1687 12.1364ZM32.8292 12V11.0625H33.0678C33.2638 11.0625 33.4272 11.0241 33.5579 10.9474C33.6886 10.8679 33.7937 10.7301 33.8732 10.5341C33.9556 10.3352 34.0181 10.0597 34.0607 9.70739C34.1062 9.35227 34.1388 8.90057 34.1587 8.35227L34.2781 5.45455H38.6417V12H37.636V6.39205H35.2326L35.1303 8.72727C35.1076 9.2642 35.0593 9.73722 34.9854 10.1463C34.9144 10.5526 34.805 10.8935 34.6573 11.169C34.5124 11.4446 34.3192 11.652 34.0778 11.7912C33.8363 11.9304 33.5337 12 33.1701 12H32.8292ZM41.3562 7.82386H43.2312C43.9982 7.82386 44.5849 8.01847 44.9911 8.40767C45.3974 8.79687 45.6005 9.28977 45.6005 9.88636C45.6005 10.2784 45.5096 10.6349 45.3278 10.956C45.146 11.2741 44.8789 11.5284 44.5266 11.7188C44.1744 11.9062 43.7425 12 43.2312 12H40.4869V5.45455H41.4925V11.0625H43.2312C43.6289 11.0625 43.9556 10.9574 44.2113 10.7472C44.467 10.5369 44.5948 10.267 44.5948 9.9375C44.5948 9.59091 44.467 9.30824 44.2113 9.08949C43.9556 8.87074 43.6289 8.76136 43.2312 8.76136H41.3562V7.82386ZM56.6087 6C56.5149 5.71307 56.3913 5.45597 56.2379 5.22869C56.0874 4.99858 55.907 4.80256 55.6967 4.64062C55.4893 4.47869 55.2536 4.35511 54.9893 4.26989C54.7251 4.18466 54.4354 4.14205 54.12 4.14205C53.603 4.14205 53.1328 4.27557 52.7095 4.54261C52.2862 4.80966 51.9496 5.20312 51.6996 5.72301C51.4496 6.2429 51.3246 6.88068 51.3246 7.63636C51.3246 8.39205 51.451 9.02983 51.7038 9.54972C51.9567 10.0696 52.299 10.4631 52.7308 10.7301C53.1626 10.9972 53.6484 11.1307 54.1882 11.1307C54.6882 11.1307 55.1286 11.0241 55.5092 10.8111C55.8928 10.5952 56.1911 10.2912 56.4041 9.89915C56.62 9.50426 56.728 9.03977 56.728 8.50568L57.0518 8.57386H54.4268V7.63636H57.7507V8.57386C57.7507 9.29261 57.5973 9.91761 57.2905 10.4489C56.9865 10.9801 56.5661 11.392 56.0291 11.6847C55.495 11.9744 54.8814 12.1193 54.1882 12.1193C53.4155 12.1193 52.7365 11.9375 52.1513 11.5739C51.5689 11.2102 51.1143 10.6932 50.7876 10.0227C50.4638 9.35227 50.3018 8.55682 50.3018 7.63636C50.3018 6.94602 50.3942 6.32528 50.5788 5.77415C50.7663 5.22017 51.0305 4.74858 51.3714 4.35938C51.7124 3.97017 52.1158 3.67188 52.5817 3.46449C53.0476 3.2571 53.5604 3.15341 54.12 3.15341C54.5803 3.15341 55.0092 3.22301 55.407 3.36222C55.8075 3.49858 56.1641 3.69318 56.4766 3.94602C56.7919 4.19602 57.0547 4.49574 57.2649 4.84517C57.4751 5.19176 57.62 5.5767 57.6996 6H56.6087ZM59.5607 12V3.27273H62.5096C63.1942 3.27273 63.7539 3.39631 64.1886 3.64347C64.6261 3.88778 64.9499 4.21875 65.1602 4.63636C65.3704 5.05398 65.4755 5.51989 65.4755 6.03409C65.4755 6.5483 65.3704 7.01562 65.1602 7.43608C64.9528 7.85653 64.6317 8.19176 64.1971 8.44176C63.7624 8.68892 63.2056 8.8125 62.5266 8.8125H60.413V7.875H62.4925C62.9613 7.875 63.3377 7.79403 63.6218 7.6321C63.9059 7.47017 64.1119 7.25142 64.2397 6.97585C64.3704 6.69744 64.4357 6.38352 64.4357 6.03409C64.4357 5.68466 64.3704 5.37216 64.2397 5.09659C64.1119 4.82102 63.9045 4.60511 63.6175 4.44886C63.3306 4.28977 62.9499 4.21023 62.4755 4.21023H60.6175V12H59.5607ZM66.7006 4.21023V3.27273H73.2461V4.21023H70.5018V12H69.445V4.21023H66.7006Z" fill="#525252"></path> <rect x="0.5" y="25.5" width="225.667" height="49" rx="9.5" fill="#E0E0E0"></rect> <g clip-path="url(#clip0_509_2687)"> <path d="M34.25 41.7495H23.75C22.7558 41.7507 21.8027 42.1462 21.0997 42.8492C20.3967 43.5522 20.0012 44.5053 20 45.4995V51.4995C20.0012 52.4937 20.3967 53.4468 21.0997 54.1498C21.8027 54.8529 22.7558 55.2483 23.75 55.2495H28.25V56.7495H25.25C25.0511 56.7495 24.8603 56.8285 24.7197 56.9692C24.579 57.1098 24.5 57.3006 24.5 57.4995C24.5 57.6984 24.579 57.8892 24.7197 58.0298C24.8603 58.1705 25.0511 58.2495 25.25 58.2495H32.75C32.9489 58.2495 33.1397 58.1705 33.2803 58.0298C33.421 57.8892 33.5 57.6984 33.5 57.4995C33.5 57.3006 33.421 57.1098 33.2803 56.9692C33.1397 56.8285 32.9489 56.7495 32.75 56.7495H29.75V55.2495H34.25C35.2442 55.2483 36.1973 54.8529 36.9003 54.1498C37.6033 53.4468 37.9988 52.4937 38 51.4995V45.4995C37.9988 44.5053 37.6033 43.5522 36.9003 42.8492C36.1973 42.1462 35.2442 41.7507 34.25 41.7495V41.7495ZM36.5 51.4995C36.5 52.0962 36.2629 52.6685 35.841 53.0905C35.419 53.5125 34.8467 53.7495 34.25 53.7495H23.75C23.1533 53.7495 22.581 53.5125 22.159 53.0905C21.7371 52.6685 21.5 52.0962 21.5 51.4995V45.4995C21.5 44.9028 21.7371 44.3305 22.159 43.9085C22.581 43.4866 23.1533 43.2495 23.75 43.2495H34.25C34.8467 43.2495 35.419 43.4866 35.841 43.9085C36.2629 44.3305 36.5 44.9028 36.5 45.4995V51.4995ZM35 48.4995C35 48.6984 34.921 48.8892 34.7803 49.0298C34.6397 49.1705 34.4489 49.2495 34.25 49.2495H32.0262L30.7513 51.1658C30.6825 51.2688 30.5894 51.3532 30.4801 51.4114C30.3708 51.4696 30.2488 51.4999 30.125 51.4995C30.1093 51.4995 30.0935 51.4995 30.0785 51.4995C29.9473 51.4914 29.8205 51.449 29.7108 51.3765C29.6012 51.3039 29.5125 51.2039 29.4537 51.0863L27.782 47.7405L26.999 48.9158C26.9305 49.0184 26.8377 49.1026 26.7288 49.1609C26.62 49.2191 26.4984 49.2495 26.375 49.2495H23.75C23.5511 49.2495 23.3603 49.1705 23.2197 49.0298C23.079 48.8892 23 48.6984 23 48.4995C23 48.3006 23.079 48.1098 23.2197 47.9692C23.3603 47.8285 23.5511 47.7495 23.75 47.7495H25.9738L27.2487 45.8333C27.3209 45.7227 27.4214 45.6334 27.5397 45.5747C27.658 45.5161 27.7898 45.4901 27.9215 45.4995C28.0527 45.5076 28.1795 45.55 28.2892 45.6226C28.3988 45.6951 28.4875 45.7952 28.5463 45.9128L30.218 49.257L31.001 48.0818C31.0697 47.9794 31.1626 47.8955 31.2714 47.8375C31.3802 47.7796 31.5017 47.7493 31.625 47.7495H34.25C34.4489 47.7495 34.6397 47.8285 34.7803 47.9692C34.921 48.1098 35 48.3006 35 48.4995Z" fill="#525252" fill-opacity="0.3"></path> </g> <path d="M51.5625 57.0909C51.0767 57.0909 50.6591 57.0284 50.3097 56.9034C49.9602 56.7812 49.669 56.6193 49.4361 56.4176C49.206 56.2188 49.0227 56.0057 48.8864 55.7784L49.6875 55.2159C49.7784 55.3352 49.8935 55.4716 50.0327 55.625C50.1719 55.7812 50.3622 55.9162 50.6037 56.0298C50.848 56.1463 51.1676 56.2045 51.5625 56.2045C52.0909 56.2045 52.527 56.0767 52.8707 55.821C53.2145 55.5653 53.3864 55.1648 53.3864 54.6193V53.2898H53.3011C53.2273 53.4091 53.1222 53.5568 52.9858 53.733C52.8523 53.9062 52.6591 54.0611 52.4062 54.1974C52.1562 54.331 51.8182 54.3977 51.392 54.3977C50.8636 54.3977 50.3892 54.2727 49.9688 54.0227C49.5511 53.7727 49.2202 53.4091 48.9759 52.9318C48.7344 52.4545 48.6136 51.875 48.6136 51.1932C48.6136 50.5227 48.7315 49.9389 48.9673 49.4418C49.2031 48.9418 49.5313 48.5554 49.9517 48.2827C50.3722 48.0071 50.858 47.8693 51.4091 47.8693C51.8352 47.8693 52.1733 47.9403 52.4233 48.0824C52.6761 48.2216 52.8693 48.3807 53.0028 48.5597C53.1392 48.7358 53.2443 48.8807 53.3182 48.9943H53.4205V47.9545H54.392V54.6875C54.392 55.25 54.2642 55.7074 54.0085 56.0597C53.7557 56.4148 53.4148 56.6747 52.9858 56.8395C52.5597 57.0071 52.0852 57.0909 51.5625 57.0909ZM51.5284 53.4943C51.9318 53.4943 52.2727 53.402 52.5511 53.2173C52.8295 53.0327 53.0412 52.767 53.1861 52.4205C53.331 52.0739 53.4034 51.6591 53.4034 51.1761C53.4034 50.7045 53.3324 50.2884 53.1903 49.9276C53.0483 49.5668 52.8381 49.2841 52.5597 49.0795C52.2813 48.875 51.9375 48.7727 51.5284 48.7727C51.1023 48.7727 50.7472 48.8807 50.4631 49.0966C50.1818 49.3125 49.9702 49.6023 49.8281 49.9659C49.6889 50.3295 49.6193 50.733 49.6193 51.1761C49.6193 51.6307 49.6903 52.0327 49.8324 52.3821C49.9773 52.7287 50.1903 53.0014 50.4716 53.2003C50.7557 53.3963 51.108 53.4943 51.5284 53.4943ZM56.233 56.9545V47.9545H57.2045V48.9943H57.3239C57.3977 48.8807 57.5 48.7358 57.6307 48.5597C57.7642 48.3807 57.9545 48.2216 58.2017 48.0824C58.4517 47.9403 58.7898 47.8693 59.2159 47.8693C59.767 47.8693 60.2528 48.0071 60.6733 48.2827C61.0938 48.5582 61.4219 48.9489 61.6577 49.4545C61.8935 49.9602 62.0114 50.5568 62.0114 51.2443C62.0114 51.9375 61.8935 52.5384 61.6577 53.0469C61.4219 53.5526 61.0952 53.9446 60.6776 54.223C60.2599 54.4986 59.7784 54.6364 59.233 54.6364C58.8125 54.6364 58.4759 54.5668 58.223 54.4276C57.9702 54.2855 57.7756 54.125 57.6392 53.946C57.5028 53.7642 57.3977 53.6136 57.3239 53.4943H57.2386V56.9545H56.233ZM57.2216 51.2273C57.2216 51.7216 57.294 52.1577 57.4389 52.5355C57.5838 52.9105 57.7955 53.2045 58.0739 53.4176C58.3523 53.6278 58.6932 53.733 59.0966 53.733C59.517 53.733 59.8679 53.6222 60.1491 53.4006C60.4332 53.1761 60.6463 52.875 60.7884 52.4972C60.9332 52.1165 61.0057 51.6932 61.0057 51.2273C61.0057 50.767 60.9347 50.3523 60.7926 49.983C60.6534 49.6108 60.4418 49.3168 60.1577 49.1009C59.8764 48.8821 59.5227 48.7727 59.0966 48.7727C58.6875 48.7727 58.3438 48.8764 58.0653 49.0838C57.7869 49.2884 57.5767 49.5753 57.4347 49.9446C57.2926 50.3111 57.2216 50.7386 57.2216 51.2273ZM66.392 47.9545V48.8068H63V47.9545H66.392ZM63.9886 46.3864H64.9943V52.625C64.9943 52.9091 65.0355 53.1222 65.1179 53.2642C65.2031 53.4034 65.3111 53.4972 65.4418 53.5455C65.5753 53.5909 65.7159 53.6136 65.8636 53.6136C65.9744 53.6136 66.0653 53.608 66.1364 53.5966C66.2074 53.5824 66.2642 53.571 66.3068 53.5625L66.5114 54.4659C66.4432 54.4915 66.348 54.517 66.2259 54.5426C66.1037 54.571 65.9489 54.5852 65.7614 54.5852C65.4773 54.5852 65.1989 54.5241 64.9261 54.402C64.6563 54.2798 64.4318 54.0938 64.2528 53.8438C64.0767 53.5938 63.9886 53.2784 63.9886 52.8977V46.3864ZM71.4205 50.2898V51.2273H67.6023V50.2898H71.4205ZM75.9812 54.6193C75.4187 54.6193 74.9173 54.5227 74.4769 54.3295C74.0394 54.1364 73.6914 53.8679 73.4329 53.5241C73.1772 53.1776 73.038 52.7756 73.0153 52.3182H74.0891C74.1119 52.5994 74.2085 52.8423 74.3789 53.0469C74.5494 53.2486 74.7724 53.4048 75.0479 53.5156C75.3235 53.6264 75.6289 53.6818 75.9641 53.6818C76.3391 53.6818 76.6715 53.6165 76.9613 53.4858C77.2511 53.3551 77.4783 53.1733 77.6431 52.9403C77.8079 52.7074 77.8903 52.4375 77.8903 52.1307C77.8903 51.8097 77.8107 51.527 77.6516 51.2827C77.4925 51.0355 77.2596 50.8423 76.9528 50.7031C76.646 50.5639 76.271 50.4943 75.8278 50.4943H75.1289V49.5568H75.8278C76.1744 49.5568 76.4783 49.4943 76.7397 49.3693C77.0039 49.2443 77.2099 49.0682 77.3576 48.8409C77.5082 48.6136 77.5835 48.3466 77.5835 48.0398C77.5835 47.7443 77.5181 47.4872 77.3874 47.2685C77.2567 47.0497 77.0721 46.8793 76.8335 46.7571C76.5977 46.6349 76.3192 46.5739 75.9982 46.5739C75.6971 46.5739 75.413 46.6293 75.146 46.7401C74.8817 46.848 74.6658 47.0057 74.4982 47.2131C74.3306 47.4176 74.2397 47.6648 74.2255 47.9545H73.2028C73.2198 47.4972 73.3576 47.0966 73.6161 46.7528C73.8746 46.4062 74.2127 46.1364 74.6303 45.9432C75.0508 45.75 75.5124 45.6534 76.0153 45.6534C76.555 45.6534 77.0181 45.7628 77.4045 45.9815C77.7908 46.1974 78.0877 46.483 78.2951 46.8381C78.5025 47.1932 78.6062 47.5767 78.6062 47.9886C78.6062 48.4801 78.4769 48.8991 78.2184 49.2457C77.9627 49.5923 77.6147 49.8324 77.1744 49.9659V50.0341C77.7255 50.125 78.1559 50.3594 78.4656 50.7372C78.7752 51.1122 78.93 51.5767 78.93 52.1307C78.93 52.6051 78.8008 53.0312 78.5423 53.4091C78.2866 53.7841 77.9371 54.0795 77.494 54.2955C77.0508 54.5114 76.5465 54.6193 75.9812 54.6193ZM81.1534 54.5682C80.9432 54.5682 80.7628 54.4929 80.6122 54.3423C80.4616 54.1918 80.3864 54.0114 80.3864 53.8011C80.3864 53.5909 80.4616 53.4105 80.6122 53.2599C80.7628 53.1094 80.9432 53.0341 81.1534 53.0341C81.3636 53.0341 81.544 53.1094 81.6946 53.2599C81.8452 53.4105 81.9205 53.5909 81.9205 53.8011C81.9205 53.9403 81.8849 54.0682 81.8139 54.1847C81.7457 54.3011 81.6534 54.3949 81.5369 54.4659C81.4233 54.5341 81.2955 54.5682 81.1534 54.5682ZM86.2596 54.6193C85.7596 54.6193 85.3093 54.5199 84.9087 54.321C84.5082 54.1222 84.1871 53.8494 83.9457 53.5028C83.7042 53.1562 83.5721 52.7614 83.5494 52.3182H84.5721C84.6119 52.7131 84.7908 53.0398 85.109 53.2983C85.43 53.554 85.8136 53.6818 86.2596 53.6818C86.6175 53.6818 86.9357 53.598 87.2141 53.4304C87.4954 53.2628 87.7156 53.0327 87.8746 52.7401C88.0366 52.4446 88.1175 52.1108 88.1175 51.7386C88.1175 51.358 88.0337 51.0185 87.8661 50.7202C87.7013 50.419 87.4741 50.1818 87.1843 50.0085C86.8945 49.8352 86.5636 49.7472 86.1914 49.7443C85.9244 49.7415 85.6502 49.7827 85.369 49.8679C85.0877 49.9503 84.8562 50.0568 84.6744 50.1875L83.6857 50.0682L84.2141 45.7727H88.7482V46.7102H85.1005L84.7937 49.2841H84.8448C85.0238 49.142 85.2482 49.0241 85.5181 48.9304C85.788 48.8366 86.0692 48.7898 86.3619 48.7898C86.896 48.7898 87.3718 48.9176 87.7894 49.1733C88.2099 49.4261 88.5394 49.7727 88.7781 50.2131C89.0195 50.6534 89.1403 51.1562 89.1403 51.7216C89.1403 52.2784 89.0153 52.7756 88.7653 53.2131C88.5181 53.6477 88.1772 53.9915 87.7425 54.2443C87.3079 54.4943 86.8136 54.6193 86.2596 54.6193ZM97.0717 47.9545V48.8068H93.6797V47.9545H97.0717ZM94.6683 46.3864H95.674V52.625C95.674 52.9091 95.7152 53.1222 95.7976 53.2642C95.8828 53.4034 95.9908 53.4972 96.1214 53.5455C96.255 53.5909 96.3956 53.6136 96.5433 53.6136C96.6541 53.6136 96.745 53.608 96.8161 53.5966C96.8871 53.5824 96.9439 53.571 96.9865 53.5625L97.1911 54.4659C97.1229 54.4915 97.0277 54.517 96.9055 54.5426C96.7834 54.571 96.6286 54.5852 96.4411 54.5852C96.157 54.5852 95.8786 54.5241 95.6058 54.402C95.3359 54.2798 95.1115 54.0938 94.9325 53.8438C94.7564 53.5938 94.6683 53.2784 94.6683 52.8977V46.3864ZM102.71 51.8239V47.9545H103.715V54.5H102.71V53.392H102.641C102.488 53.7244 102.249 54.0071 101.925 54.2401C101.602 54.4702 101.192 54.5852 100.698 54.5852C100.289 54.5852 99.9254 54.4957 99.6072 54.3168C99.2891 54.1349 99.0391 53.8622 98.8572 53.4986C98.6754 53.1321 98.5845 52.6705 98.5845 52.1136V47.9545H99.5902V52.0455C99.5902 52.5227 99.7237 52.9034 99.9908 53.1875C100.261 53.4716 100.604 53.6136 101.022 53.6136C101.272 53.6136 101.526 53.5497 101.785 53.4219C102.046 53.294 102.265 53.098 102.441 52.8338C102.62 52.5696 102.71 52.233 102.71 51.8239ZM105.557 54.5V47.9545H106.529V48.9432H106.597C106.716 48.6193 106.932 48.3565 107.245 48.1548C107.557 47.9531 107.909 47.8523 108.301 47.8523C108.375 47.8523 108.468 47.8537 108.578 47.8565C108.689 47.8594 108.773 47.8636 108.83 47.8693V48.892C108.796 48.8835 108.718 48.8707 108.596 48.8537C108.476 48.8338 108.35 48.8239 108.216 48.8239C107.898 48.8239 107.614 48.8906 107.364 49.0241C107.117 49.1548 106.921 49.3366 106.776 49.5696C106.634 49.7997 106.563 50.0625 106.563 50.358V54.5H105.557ZM110.158 54.5V45.7727H111.164V48.9943H111.249C111.323 48.8807 111.425 48.7358 111.556 48.5597C111.69 48.3807 111.88 48.2216 112.127 48.0824C112.377 47.9403 112.715 47.8693 113.141 47.8693C113.692 47.8693 114.178 48.0071 114.599 48.2827C115.019 48.5582 115.347 48.9489 115.583 49.4545C115.819 49.9602 115.937 50.5568 115.937 51.2443C115.937 51.9375 115.819 52.5384 115.583 53.0469C115.347 53.5526 115.021 53.9446 114.603 54.223C114.185 54.4986 113.704 54.6364 113.158 54.6364C112.738 54.6364 112.401 54.5668 112.148 54.4276C111.896 54.2855 111.701 54.125 111.565 53.946C111.428 53.7642 111.323 53.6136 111.249 53.4943H111.13V54.5H110.158ZM111.147 51.2273C111.147 51.7216 111.219 52.1577 111.364 52.5355C111.509 52.9105 111.721 53.2045 111.999 53.4176C112.278 53.6278 112.619 53.733 113.022 53.733C113.442 53.733 113.793 53.6222 114.075 53.4006C114.359 53.1761 114.572 52.875 114.714 52.4972C114.859 52.1165 114.931 51.6932 114.931 51.2273C114.931 50.767 114.86 50.3523 114.718 49.983C114.579 49.6108 114.367 49.3168 114.083 49.1009C113.802 48.8821 113.448 48.7727 113.022 48.7727C112.613 48.7727 112.269 48.8764 111.991 49.0838C111.712 49.2884 111.502 49.5753 111.36 49.9446C111.218 50.3111 111.147 50.7386 111.147 51.2273ZM120.134 54.6364C119.543 54.6364 119.025 54.4957 118.579 54.2145C118.136 53.9332 117.789 53.5398 117.539 53.0341C117.292 52.5284 117.168 51.9375 117.168 51.2614C117.168 50.5795 117.292 49.9844 117.539 49.4759C117.789 48.9673 118.136 48.5724 118.579 48.2912C119.025 48.0099 119.543 47.8693 120.134 47.8693C120.725 47.8693 121.242 48.0099 121.685 48.2912C122.131 48.5724 122.478 48.9673 122.725 49.4759C122.975 49.9844 123.1 50.5795 123.1 51.2614C123.1 51.9375 122.975 52.5284 122.725 53.0341C122.478 53.5398 122.131 53.9332 121.685 54.2145C121.242 54.4957 120.725 54.6364 120.134 54.6364ZM120.134 53.733C120.583 53.733 120.952 53.6179 121.242 53.3878C121.532 53.1577 121.746 52.8551 121.886 52.4801C122.025 52.1051 122.094 51.6989 122.094 51.2614C122.094 50.8239 122.025 50.4162 121.886 50.0384C121.746 49.6605 121.532 49.3551 121.242 49.1222C120.952 48.8892 120.583 48.7727 120.134 48.7727C119.685 48.7727 119.316 48.8892 119.026 49.1222C118.737 49.3551 118.522 49.6605 118.383 50.0384C118.244 50.4162 118.174 50.8239 118.174 51.2614C118.174 51.6989 118.244 52.1051 118.383 52.4801C118.522 52.8551 118.737 53.1577 119.026 53.3878C119.316 53.6179 119.685 53.733 120.134 53.733Z" fill="#525252"></path> <path d="M197.666 52.625C197.47 52.6254 197.274 52.5868 197.092 52.5115C196.91 52.4362 196.745 52.3257 196.606 52.1863L192.636 48.2158L193.697 47.1553L197.666 51.125L201.636 47.1553L202.697 48.2158L198.727 52.1855C198.588 52.3251 198.423 52.4357 198.241 52.5111C198.059 52.5866 197.863 52.6253 197.666 52.625Z" fill="#525252" fill-opacity="0.3"></path> <rect x="0.5" y="25.5" width="225.667" height="49" rx="9.5" stroke="#B3B3B3"></rect> <defs> <clipPath id="clip0_509_2687"> <rect width="18" height="18" fill="white" transform="translate(20 41)"></rect> </clipPath> </defs> </svg> 