<?xml version="1.0" encoding="UTF-8"?> <svg xmlns="http://www.w3.org/2000/svg" width="171" height="50" viewBox="0 0 171 50" fill="none"> <rect width="171" height="50" rx="10" fill="#EF4444" fill-opacity="0.1"></rect> <g clip-path="url(#clip0_509_2599)"> <path d="M30.9991 25C31.7243 25 32.4332 24.785 33.0362 24.3821C33.6391 23.9792 34.1091 23.4065 34.3866 22.7365C34.6642 22.0665 34.7368 21.3293 34.5953 20.618C34.4538 19.9067 34.1046 19.2534 33.5918 18.7406C33.079 18.2278 32.4257 17.8786 31.7144 17.7371C31.0031 17.5956 30.2659 17.6683 29.5959 17.9458C28.9259 18.2233 28.3533 18.6933 27.9504 19.2962C27.5475 19.8992 27.3324 20.6081 27.3324 21.3333C27.3324 22.3058 27.7187 23.2384 28.4064 23.9261C29.094 24.6137 30.0266 25 30.9991 25ZM30.9991 19.5C31.3617 19.5 31.7161 19.6075 32.0176 19.809C32.3191 20.0104 32.5541 20.2967 32.6929 20.6317C32.8316 20.9667 32.8679 21.3354 32.7972 21.691C32.7264 22.0466 32.5518 22.3733 32.2954 22.6297C32.039 22.8861 31.7124 23.0607 31.3567 23.1314C31.0011 23.2022 30.6325 23.1659 30.2975 23.0271C29.9625 22.8884 29.6762 22.6534 29.4747 22.3519C29.2733 22.0504 29.1657 21.6959 29.1657 21.3333C29.1657 20.8471 29.3589 20.3808 29.7027 20.037C30.0465 19.6932 30.5128 19.5 30.9991 19.5ZM38.9374 22.3939L38.2783 22.1748C38.3969 21.1481 38.2972 20.1079 37.9855 19.1224C37.6739 18.1369 37.1575 17.2285 36.4702 16.4566C35.7829 15.6847 34.9401 15.0668 33.9972 14.6434C33.0544 14.2201 32.0326 14.0008 30.9991 14C29.952 14.0004 28.9172 14.2252 27.9644 14.6593C27.0115 15.0934 26.1628 15.7266 25.4754 16.5164C24.7879 17.3062 24.2777 18.2341 23.9792 19.2377C23.6806 20.2413 23.6006 21.2972 23.7446 22.3343C22.8674 22.4979 22.0562 22.9118 21.4089 23.526C20.9608 23.952 20.6046 24.4652 20.3621 25.0339C20.1197 25.6027 19.9961 26.2151 19.9991 26.8333V30.5688C20.001 31.56 20.3234 32.524 20.9181 33.317C21.5128 34.1099 22.348 34.6894 23.2991 34.9688L25.9299 35.7938C26.3718 35.9313 26.832 36.0008 27.2948 36C27.7146 35.9995 28.1325 35.9421 28.5369 35.8295L33.8352 34.262C34.3072 34.1332 34.8052 34.1332 35.2772 34.262L37.4652 34.9953C38.0045 35.1266 38.5666 35.1337 39.109 35.0162C39.6514 34.8986 40.1601 34.6595 40.5966 34.3167C41.0332 33.974 41.3862 33.5366 41.6292 33.0376C41.8721 32.5386 41.9986 31.9909 41.9991 31.4359V26.716C41.997 25.7676 41.7016 24.8431 41.1535 24.0692C40.6054 23.2952 39.8313 22.7098 38.9374 22.393V22.3939ZM27.1106 17.4485C27.6205 16.9365 28.2265 16.5303 28.8938 16.2531C29.561 15.9759 30.2765 15.8332 30.9991 15.8332C31.7216 15.8332 32.4371 15.9759 33.1044 16.2531C33.7717 16.5303 34.3777 16.9365 34.8876 17.4485C35.9162 18.4835 36.4944 19.883 36.4963 21.3423C36.4982 22.8015 35.9236 24.2025 34.8977 25.2402L31.6407 28.4073C31.4708 28.5739 31.2422 28.6673 31.0041 28.6673C30.7661 28.6673 30.5375 28.5739 30.3675 28.4073L27.1106 25.2539C26.0798 24.2166 25.5012 22.8136 25.5012 21.3512C25.5012 19.8888 26.0798 18.4858 27.1106 17.4485V17.4485ZM40.1657 31.4359C40.1663 31.7136 40.1035 31.9877 39.9822 32.2374C39.8608 32.4871 39.6841 32.7058 39.4654 32.8769C39.2588 33.043 39.0181 33.1616 38.7605 33.2242C38.5029 33.2867 38.2347 33.2918 37.9749 33.239L35.8253 32.5167C35.0122 32.2831 34.1505 32.278 33.3347 32.502L28.0327 34.0677C27.5233 34.2082 26.9842 34.199 26.4799 34.0411L23.8271 33.2161C23.2529 33.0501 22.7481 32.7023 22.3885 32.2249C22.0288 31.7476 21.8337 31.1664 21.8324 30.5688V26.8333C21.8303 26.4628 21.9041 26.0958 22.0491 25.7548C22.1942 25.4138 22.4074 25.1061 22.6757 24.8506C23.0958 24.4502 23.6309 24.1918 24.2057 24.1118C24.5752 25.0277 25.1254 25.8597 25.8236 26.5583L29.0933 29.7236C29.6044 30.224 30.2912 30.5042 31.0064 30.5042C31.7217 30.5042 32.4084 30.224 32.9195 29.7236L36.1856 26.5492C36.9168 25.8149 37.4834 24.9334 37.8475 23.9633L38.3397 24.1264C38.8736 24.3177 39.3354 24.669 39.6622 25.1325C39.989 25.5959 40.1648 26.1489 40.1657 26.716V31.4359Z" fill="#EF4444"></path> </g> <path d="M61.4815 19.0909V30H60.1605V20.2628H54.6634V30H53.3423V19.0909H61.4815ZM64.7854 33.0682C64.5724 33.0682 64.3824 33.0504 64.2155 33.0149C64.0486 32.983 63.9331 32.951 63.8692 32.919L64.1888 31.8111C64.4942 31.8892 64.7641 31.9176 64.9985 31.8963C65.2329 31.875 65.4406 31.7702 65.6217 31.582C65.8064 31.3974 65.9751 31.0973 66.1278 30.6818L66.3621 30.0426L63.3366 21.8182H64.7002L66.9587 28.3381H67.0439L69.3025 21.8182H70.6661L67.1931 31.1932C67.0368 31.6158 66.8433 31.9656 66.6125 32.2425C66.3817 32.5231 66.1135 32.7308 65.8081 32.8658C65.5063 33.0007 65.1654 33.0682 64.7854 33.0682ZM71.8566 22.9901V21.8182H78.5044V22.9901H75.8197V30H74.5626V22.9901H71.8566ZM83.3437 30.1705C82.5553 30.1705 81.8753 29.9964 81.3035 29.6484C80.7354 29.2969 80.2968 28.8068 79.9878 28.1783C79.6824 27.5462 79.5297 26.8111 79.5297 25.973C79.5297 25.1349 79.6824 24.3963 79.9878 23.7571C80.2968 23.1143 80.7265 22.6136 81.2769 22.255C81.8309 21.8928 82.4772 21.7116 83.2158 21.7116C83.642 21.7116 84.0628 21.7827 84.4782 21.9247C84.8937 22.0668 85.2719 22.2976 85.6128 22.6172C85.9537 22.9332 86.2254 23.3523 86.4278 23.8743C86.6302 24.3963 86.7314 25.0391 86.7314 25.8026V26.3352H80.4246V25.2486H85.453C85.453 24.7869 85.3607 24.375 85.176 24.0128C84.9949 23.6506 84.7357 23.3647 84.3983 23.1552C84.0645 22.9457 83.6704 22.8409 83.2158 22.8409C82.7151 22.8409 82.2819 22.9652 81.9161 23.2138C81.5539 23.4588 81.2751 23.7784 81.0798 24.1726C80.8845 24.5668 80.7868 24.9893 80.7868 25.4403V26.1648C80.7868 26.7827 80.8934 27.3065 81.1064 27.7362C81.3231 28.1623 81.6231 28.4872 82.0067 28.7109C82.3902 28.9311 82.8358 29.0412 83.3437 29.0412C83.6739 29.0412 83.9722 28.995 84.2385 28.9027C84.5084 28.8068 84.741 28.6648 84.9363 28.4766C85.1317 28.2848 85.2826 28.0469 85.3891 27.7628L86.6036 28.1037C86.4758 28.5156 86.2609 28.8778 85.9591 29.1903C85.6572 29.4993 85.2844 29.7408 84.8405 29.9148C84.3966 30.0852 83.8976 30.1705 83.3437 30.1705ZM88.6437 21.8182H89.9008V28.8281H92.9903V21.8182H94.2474V28.8281H97.3369V21.8182H98.594V30H88.6437V21.8182ZM104.32 30.1705C103.532 30.1705 102.852 29.9964 102.28 29.6484C101.712 29.2969 101.273 28.8068 100.964 28.1783C100.659 27.5462 100.506 26.8111 100.506 25.973C100.506 25.1349 100.659 24.3963 100.964 23.7571C101.273 23.1143 101.703 22.6136 102.253 22.255C102.807 21.8928 103.454 21.7116 104.192 21.7116C104.619 21.7116 105.039 21.7827 105.455 21.9247C105.87 22.0668 106.248 22.2976 106.589 22.6172C106.93 22.9332 107.202 23.3523 107.404 23.8743C107.607 24.3963 107.708 25.0391 107.708 25.8026V26.3352H101.401V25.2486H106.43C106.43 24.7869 106.337 24.375 106.153 24.0128C105.972 23.6506 105.712 23.3647 105.375 23.1552C105.041 22.9457 104.647 22.8409 104.192 22.8409C103.692 22.8409 103.258 22.9652 102.893 23.2138C102.53 23.4588 102.252 23.7784 102.056 24.1726C101.861 24.5668 101.763 24.9893 101.763 25.4403V26.1648C101.763 26.7827 101.87 27.3065 102.083 27.7362C102.3 28.1623 102.6 28.4872 102.983 28.7109C103.367 28.9311 103.812 29.0412 104.32 29.0412C104.65 29.0412 104.949 28.995 105.215 28.9027C105.485 28.8068 105.718 28.6648 105.913 28.4766C106.108 28.2848 106.259 28.0469 106.366 27.7628L107.58 28.1037C107.452 28.5156 107.237 28.8778 106.936 29.1903C106.634 29.4993 106.261 29.7408 105.817 29.9148C105.373 30.0852 104.874 30.1705 104.32 30.1705ZM112.944 30.1705C112.177 30.1705 111.517 29.9893 110.963 29.6271C110.409 29.2649 109.983 28.766 109.684 28.1303C109.386 27.4947 109.237 26.7685 109.237 25.9517C109.237 25.1207 109.389 24.3874 109.695 23.7518C110.004 23.1126 110.434 22.6136 110.984 22.255C111.538 21.8928 112.184 21.7116 112.923 21.7116C113.498 21.7116 114.017 21.8182 114.478 22.0312C114.94 22.2443 115.318 22.5426 115.613 22.9261C115.908 23.3097 116.09 23.7571 116.161 24.2685H114.904C114.809 23.8956 114.595 23.5653 114.265 23.2777C113.938 22.9865 113.498 22.8409 112.944 22.8409C112.454 22.8409 112.024 22.9687 111.655 23.2244C111.289 23.4766 111.003 23.8335 110.797 24.2951C110.595 24.7532 110.494 25.2912 110.494 25.9091C110.494 26.5412 110.593 27.0916 110.792 27.5604C110.995 28.0291 111.279 28.3931 111.644 28.6523C112.014 28.9116 112.447 29.0412 112.944 29.0412C113.271 29.0412 113.567 28.9844 113.834 28.8707C114.1 28.7571 114.326 28.5938 114.51 28.3807C114.695 28.1676 114.826 27.9119 114.904 27.6136H116.161C116.09 28.0966 115.915 28.5316 115.634 28.9187C115.357 29.3022 114.99 29.6076 114.532 29.8349C114.077 30.0586 113.548 30.1705 112.944 30.1705ZM117.355 22.9901V21.8182H124.002V22.9901H121.318V30H120.061V22.9901H117.355ZM125.836 30V21.8182H129.181C130.062 21.8182 130.762 22.017 131.28 22.4148C131.798 22.8125 132.058 23.3381 132.058 23.9915C132.058 24.4886 131.91 24.8739 131.616 25.1474C131.321 25.4173 130.943 25.6001 130.481 25.696C130.783 25.7386 131.076 25.8452 131.36 26.0156C131.648 26.1861 131.885 26.4205 132.074 26.7188C132.262 27.0135 132.356 27.3757 132.356 27.8054C132.356 28.2244 132.249 28.5991 132.036 28.9293C131.823 29.2596 131.518 29.5206 131.12 29.7124C130.722 29.9041 130.247 30 129.693 30H125.836ZM127.029 28.8494H129.693C130.126 28.8494 130.465 28.7464 130.71 28.5405C130.955 28.3345 131.078 28.054 131.078 27.6989C131.078 27.2763 130.955 26.9442 130.71 26.7028C130.465 26.4577 130.126 26.3352 129.693 26.3352H127.029V28.8494ZM127.029 25.2486H129.181C129.519 25.2486 129.808 25.2024 130.05 25.1101C130.291 25.0142 130.476 24.8793 130.604 24.7053C130.735 24.5277 130.801 24.3182 130.801 24.0767C130.801 23.7322 130.657 23.4624 130.369 23.267C130.081 23.0682 129.686 22.9688 129.181 22.9688H127.029V25.2486ZM135.516 28.1463L139.458 21.8182H140.907V30H139.65V23.6719L135.729 30H134.259V21.8182H135.516V28.1463ZM148.131 30V22.9688H145.958C145.468 22.9688 145.082 23.0824 144.802 23.3097C144.521 23.5369 144.381 23.8494 144.381 24.2472C144.381 24.6378 144.507 24.945 144.759 25.1687C145.015 25.3924 145.365 25.5043 145.809 25.5043H148.451V26.6761H145.809C145.255 26.6761 144.777 26.5785 144.376 26.3832C143.974 26.1879 143.665 25.9091 143.449 25.5469C143.232 25.1811 143.124 24.7479 143.124 24.2472C143.124 23.7429 143.238 23.3097 143.465 22.9474C143.692 22.5852 144.017 22.3065 144.44 22.1112C144.866 21.9158 145.372 21.8182 145.958 21.8182H149.324V30H148.131ZM142.676 30L144.999 25.9304H146.363L144.04 30H142.676Z" fill="#EF4444"></path> <defs> <clipPath id="clip0_509_2599"> <rect width="22" height="22" fill="white" transform="translate(20 14)"></rect> </clipPath> </defs> </svg> 