<?xml version="1.0" encoding="UTF-8"?> <svg xmlns="http://www.w3.org/2000/svg" width="151" height="50" viewBox="0 0 151 50" fill="none"> <rect width="151" height="50" rx="10" fill="#A855F7" fill-opacity="0.1"></rect> <g clip-path="url(#clip0_509_2592)"> <path d="M42 26.8388C41.9989 26.4544 41.9166 26.0745 41.7587 25.724C41.6007 25.3735 41.3706 25.0602 41.0833 24.8047V23.1667C41.0806 20.7363 40.114 18.4063 38.3955 16.6878C36.677 14.9693 34.347 14.0027 31.9166 14L30.0833 14C27.653 14.0027 25.3229 14.9693 23.6044 16.6878C21.8859 18.4063 20.9193 20.7363 20.9166 23.1667V24.8506C20.6318 25.1194 20.4049 25.4435 20.2498 25.8032C20.0947 26.1628 20.0146 26.5503 20.0146 26.942C20.0146 27.3336 20.0947 27.7211 20.2498 28.0808C20.4049 28.4404 20.6318 28.7645 20.9166 29.0333V29.5833C20.9186 31.2845 21.5952 32.9155 22.7982 34.1185C24.0011 35.3214 25.6321 35.9981 27.3333 36H34.6666C36.3678 35.9981 37.9988 35.3214 39.2017 34.1185C40.4047 32.9155 41.0813 31.2845 41.0833 29.5833V28.8738C41.3707 28.6182 41.6009 28.3049 41.7589 27.9542C41.9168 27.6035 41.999 27.2234 42 26.8388V26.8388ZM22.5776 27.8948C22.3491 27.8255 22.1525 27.6773 22.023 27.4766C21.8936 27.2759 21.8395 27.0357 21.8705 26.7989C21.9016 26.5621 22.0157 26.344 22.1925 26.1834C22.3693 26.0228 22.5974 25.9303 22.8361 25.9222H39.25C39.4931 25.9222 39.7262 26.0187 39.8981 26.1907C40.07 26.3626 40.1666 26.5957 40.1666 26.8388C40.1666 27.0819 40.07 27.3151 39.8981 27.487C39.7262 27.6589 39.4931 27.7555 39.25 27.7555H35.5833C33.7903 27.7555 31.9359 28.4778 29.7496 30.0297C29.3095 30.3355 28.7863 30.4993 28.2504 30.4993C27.7145 30.4993 27.1914 30.3355 26.7512 30.0297C26.5422 29.8812 26.3415 29.7263 26.1398 29.5714C25.1412 28.6773 23.9031 28.0945 22.5776 27.8948V27.8948ZM22.75 23.1667C22.7521 21.2224 23.5255 19.3584 24.9003 17.9836C26.275 16.6088 28.139 15.8355 30.0833 15.8333H31.9166C33.8609 15.8355 35.7249 16.6088 37.0997 17.9836C38.4745 19.3584 39.2478 21.2224 39.25 23.1667V24.0888L22.75 24.098V23.1667ZM34.6666 34.1667H27.3333C26.1592 34.1635 25.0312 33.7094 24.1824 32.8982C23.3337 32.087 22.8291 30.9807 22.7729 29.8079C23.6049 30.0384 24.374 30.4543 25.0224 31.0243C25.2415 31.1939 25.4615 31.3626 25.6906 31.5248C26.442 32.0469 27.335 32.3267 28.25 32.3267C29.1649 32.3267 30.0579 32.0469 30.8093 31.5248C32.1655 30.407 33.8316 29.7314 35.5833 29.5888H39.25C39.2485 30.8035 38.765 31.9678 37.9056 32.8262C37.0462 33.6845 35.8812 34.1667 34.6666 34.1667V34.1667ZM28.25 18.5833C28.25 18.3402 28.3465 18.1071 28.5184 17.9352C28.6904 17.7632 28.9235 17.6667 29.1666 17.6667C29.4097 17.6667 29.6429 17.7632 29.8148 17.9352C29.9867 18.1071 30.0833 18.3402 30.0833 18.5833C30.0833 18.8264 29.9867 19.0596 29.8148 19.2315C29.6429 19.4034 29.4097 19.5 29.1666 19.5C28.9235 19.5 28.6904 19.4034 28.5184 19.2315C28.3465 19.0596 28.25 18.8264 28.25 18.5833ZM25.5 21.3333C25.5 21.0902 25.5965 20.8571 25.7684 20.6852C25.9404 20.5132 26.1735 20.4167 26.4166 20.4167C26.6597 20.4167 26.8929 20.5132 27.0648 20.6852C27.2367 20.8571 27.3333 21.0902 27.3333 21.3333C27.3333 21.5764 27.2367 21.8096 27.0648 21.9815C26.8929 22.1534 26.6597 22.25 26.4166 22.25C26.1735 22.25 25.9404 22.1534 25.7684 21.9815C25.5965 21.8096 25.5 21.5764 25.5 21.3333V21.3333Z" fill="#A855F7"></path> </g> <path d="M59.7344 30L55.9844 24.9929H54.642V30H53.321V19.0909H54.642V23.821H55.2173L59.5852 19.0909H61.1619L56.7514 23.8849L61.3111 30H59.7344ZM63.0569 33.0682C62.8438 33.0682 62.6539 33.0504 62.4869 33.0149C62.32 32.983 62.2046 32.951 62.1407 32.919L62.4603 31.8111C62.7657 31.8892 63.0356 31.9176 63.27 31.8963C63.5044 31.875 63.7121 31.7702 63.8932 31.582C64.0779 31.3974 64.2465 31.0973 64.3992 30.6818L64.6336 30.0426L61.608 21.8182H62.9717L65.2302 28.3381H65.3154L67.574 21.8182H68.9376L65.4646 31.1932C65.3083 31.6158 65.1148 31.9656 64.884 32.2425C64.6531 32.5231 64.385 32.7308 64.0796 32.8658C63.7778 33.0007 63.4369 33.0682 63.0569 33.0682ZM69.1839 30V28.8281H69.4822C69.7273 28.8281 69.9315 28.7802 70.0948 28.6843C70.2582 28.5849 70.3896 28.4126 70.489 28.1676C70.592 27.919 70.6701 27.5746 70.7234 27.1342C70.7802 26.6903 70.821 26.1257 70.8459 25.4403L70.995 21.8182H76.4496V30H75.1925V22.9901H72.1882L72.0604 25.9091C72.032 26.5803 71.9716 27.1715 71.8793 27.6829C71.7905 28.1907 71.6538 28.6168 71.4691 28.9613C71.288 29.3058 71.0465 29.565 70.7447 29.739C70.4428 29.913 70.0646 30 69.6101 30H69.1839ZM80.0131 28.1463L83.9549 21.8182H85.4038V30H84.1467V23.6719L80.2262 30H78.756V21.8182H80.0131V28.1463ZM93.1821 25.3338V26.5057H88.665V25.3338H93.1821ZM88.9633 21.8182V30H87.7062V21.8182H88.9633ZM94.1409 21.8182V30H92.8838V21.8182H94.1409ZM98.8444 30.1918C98.3259 30.1918 97.8554 30.0941 97.4328 29.8988C97.0102 29.6999 96.6746 29.4141 96.426 29.0412C96.1775 28.6648 96.0532 28.2102 96.0532 27.6776C96.0532 27.2088 96.1455 26.8288 96.3302 26.5376C96.5148 26.2429 96.7616 26.0121 97.0706 25.8452C97.3795 25.6783 97.7204 25.554 98.0933 25.4723C98.4697 25.3871 98.8479 25.3196 99.2279 25.2699C99.7251 25.206 100.128 25.158 100.437 25.1261C100.75 25.0906 100.977 25.032 101.119 24.9503C101.264 24.8686 101.337 24.7266 101.337 24.5241V24.4815C101.337 23.956 101.193 23.5476 100.906 23.2564C100.622 22.9652 100.19 22.8196 99.6114 22.8196C99.0113 22.8196 98.5407 22.951 98.1998 23.2138C97.8589 23.4766 97.6192 23.7571 97.4807 24.0554L96.2876 23.6293C96.5006 23.1321 96.7847 22.745 97.1398 22.468C97.4985 22.1875 97.8891 21.9922 98.3117 21.8821C98.7378 21.7685 99.1569 21.7116 99.5688 21.7116C99.8316 21.7116 100.133 21.7436 100.474 21.8075C100.819 21.8679 101.151 21.994 101.47 22.1857C101.794 22.3775 102.062 22.6669 102.275 23.054C102.488 23.4411 102.594 23.9595 102.594 24.6094V30H101.337V28.892H101.273C101.188 29.0696 101.046 29.2596 100.847 29.462C100.648 29.6644 100.384 29.8366 100.054 29.9787C99.7233 30.1207 99.3202 30.1918 98.8444 30.1918ZM99.0361 29.0625C99.5333 29.0625 99.9523 28.9648 100.293 28.7695C100.638 28.5742 100.897 28.3221 101.071 28.0131C101.248 27.7042 101.337 27.3793 101.337 27.0384V25.8878C101.284 25.9517 101.167 26.0103 100.986 26.0636C100.808 26.1133 100.602 26.1577 100.368 26.1967C100.137 26.2322 99.9115 26.2642 99.6913 26.2926C99.4747 26.3175 99.2989 26.3388 99.164 26.3565C98.8373 26.3991 98.5319 26.4684 98.2478 26.5643C97.9672 26.6566 97.74 26.7969 97.566 26.9851C97.3955 27.1697 97.3103 27.4219 97.3103 27.7415C97.3103 28.1783 97.4719 28.5085 97.795 28.7322C98.1217 28.9524 98.5354 29.0625 99.0361 29.0625ZM104.889 33.0682V21.8182H106.103V23.1179H106.252C106.345 22.9759 106.473 22.7947 106.636 22.5746C106.803 22.3509 107.041 22.152 107.35 21.978C107.662 21.8004 108.085 21.7116 108.618 21.7116C109.306 21.7116 109.914 21.8839 110.439 22.2283C110.965 22.5728 111.375 23.0611 111.67 23.6932C111.964 24.3253 112.112 25.071 112.112 25.9304C112.112 26.7969 111.964 27.5479 111.67 28.1836C111.375 28.8157 110.967 29.3058 110.445 29.6538C109.923 29.9982 109.321 30.1705 108.639 30.1705C108.113 30.1705 107.692 30.0835 107.376 29.9094C107.06 29.7319 106.817 29.5312 106.647 29.3075C106.476 29.0803 106.345 28.892 106.252 28.7429H106.146V33.0682H104.889ZM106.125 25.9091C106.125 26.527 106.215 27.0721 106.396 27.5444C106.577 28.0131 106.842 28.3807 107.19 28.647C107.538 28.9098 107.964 29.0412 108.468 29.0412C108.994 29.0412 109.433 28.9027 109.784 28.6257C110.139 28.3452 110.406 27.9687 110.583 27.4964C110.764 27.0206 110.855 26.4915 110.855 25.9091C110.855 25.3338 110.766 24.8153 110.588 24.3537C110.414 23.8885 110.15 23.521 109.795 23.2511C109.443 22.9776 109.001 22.8409 108.468 22.8409C107.957 22.8409 107.527 22.9705 107.179 23.2298C106.831 23.4854 106.569 23.8441 106.391 24.3058C106.213 24.7638 106.125 25.2983 106.125 25.9091ZM115.287 28.1463L119.228 21.8182H120.677V30H119.42V23.6719L115.5 30H114.029V21.8182H115.287V28.1463ZM127.902 30V22.9688H125.728C125.238 22.9688 124.853 23.0824 124.572 23.3097C124.292 23.5369 124.152 23.8494 124.152 24.2472C124.152 24.6378 124.278 24.945 124.53 25.1687C124.785 25.3924 125.135 25.5043 125.579 25.5043H128.221V26.6761H125.579C125.025 26.6761 124.547 26.5785 124.146 26.3832C123.745 26.1879 123.436 25.9091 123.219 25.5469C123.003 25.1811 122.894 24.7479 122.894 24.2472C122.894 23.7429 123.008 23.3097 123.235 22.9474C123.463 22.5852 123.788 22.3065 124.21 22.1112C124.636 21.9158 125.142 21.8182 125.728 21.8182H129.095V30H127.902ZM122.447 30L124.769 25.9304H126.133L123.811 30H122.447Z" fill="#A855F7"></path> <defs> <clipPath id="clip0_509_2592"> <rect width="22" height="22" fill="white" transform="translate(20 14)"></rect> </clipPath> </defs> </svg> 