<?xml version="1.0" encoding="UTF-8"?> <svg xmlns="http://www.w3.org/2000/svg" xmlns:xlink="http://www.w3.org/1999/xlink" xmlns:svgjs="http://svgjs.com/svgjs" width="512" height="512" x="0" y="0" viewBox="0 0 512 512" style="enable-background:new 0 0 512 512" xml:space="preserve"> <g> <path d="M364.652 0C293.368 0 235.58 57.787 235.58 129.071v51.804h64.536v-51.804c0-35.642 28.894-64.536 64.536-64.536s64.536 28.894 64.536 64.536v17.268c0 8.284 6.716 15 15 15h34.536c8.284 0 15-6.716 15-15v-17.268C493.723 57.787 435.936 0 364.652 0zM18.277 256v210.875C18.277 491.757 38.52 512 63.402 512h241c24.882 0 45.125-20.243 45.125-45.125V256c0-24.882-20.243-45.125-45.125-45.125h-241c-24.882 0-45.125 20.243-45.125 45.125zm165.625 45.25c24.882 0 45.125 20.243 45.125 45.125 0 19.624-12.596 36.354-30.125 42.552v17.698c0 8.284-6.716 15-15 15s-15-6.716-15-15v-17.698c-17.529-6.198-30.125-22.927-30.125-42.552 0-24.882 20.243-45.125 45.125-45.125z" fill="#ffffff" data-original="#000000"></path> <circle cx="183.902" cy="346.375" r="15.125" fill="#ffffff" data-original="#000000"></circle> </g> </svg> 