<?xml version="1.0" encoding="UTF-8"?> <svg xmlns="http://www.w3.org/2000/svg" width="227" height="75" viewBox="0 0 227 75" fill="none"> <path d="M8.0906 3.27273V12H7.03378V4.21023H2.63605V12H1.57923V3.27273H8.0906ZM12.7451 12.1364C12.1542 12.1364 11.6357 11.9957 11.1897 11.7145C10.7465 11.4332 10.3999 11.0398 10.1499 10.5341C9.90274 10.0284 9.77916 9.4375 9.77916 8.76136C9.77916 8.07955 9.90274 7.48437 10.1499 6.97585C10.3999 6.46733 10.7465 6.07244 11.1897 5.79119C11.6357 5.50994 12.1542 5.36932 12.7451 5.36932C13.336 5.36932 13.853 5.50994 14.2962 5.79119C14.7422 6.07244 15.0888 6.46733 15.336 6.97585C15.586 7.48437 15.711 8.07955 15.711 8.76136C15.711 9.4375 15.586 10.0284 15.336 10.5341C15.0888 11.0398 14.7422 11.4332 14.2962 11.7145C13.853 11.9957 13.336 12.1364 12.7451 12.1364ZM12.7451 11.233C13.1939 11.233 13.5633 11.1179 13.853 10.8878C14.1428 10.6577 14.3573 10.3551 14.4965 9.98011C14.6357 9.60511 14.7053 9.19886 14.7053 8.76136C14.7053 8.32386 14.6357 7.91619 14.4965 7.53835C14.3573 7.16051 14.1428 6.85511 13.853 6.62216C13.5633 6.3892 13.1939 6.27273 12.7451 6.27273C12.2962 6.27273 11.9269 6.3892 11.6371 6.62216C11.3473 6.85511 11.1329 7.16051 10.9937 7.53835C10.8544 7.91619 10.7848 8.32386 10.7848 8.76136C10.7848 9.19886 10.8544 9.60511 10.9937 9.98011C11.1329 10.3551 11.3473 10.6577 11.6371 10.8878C11.9269 11.1179 12.2962 11.233 12.7451 11.233ZM17.2461 12V5.45455H19.9223C20.6268 5.45455 21.1865 5.61364 21.6013 5.93182C22.016 6.25 22.2234 6.67045 22.2234 7.19318C22.2234 7.59091 22.1055 7.89915 21.8697 8.1179C21.6339 8.33381 21.3314 8.48011 20.962 8.55682C21.2035 8.59091 21.4379 8.67614 21.6652 8.8125C21.8953 8.94886 22.0856 9.13636 22.2362 9.375C22.3868 9.6108 22.462 9.90057 22.462 10.2443C22.462 10.5795 22.3768 10.8793 22.2064 11.1435C22.0359 11.4077 21.7916 11.6165 21.4734 11.7699C21.1552 11.9233 20.7745 12 20.3314 12H17.2461ZM18.2007 11.0795H20.3314C20.678 11.0795 20.9493 10.9972 21.1453 10.8324C21.3413 10.6676 21.4393 10.4432 21.4393 10.1591C21.4393 9.82102 21.3413 9.5554 21.1453 9.36222C20.9493 9.16619 20.678 9.06818 20.3314 9.06818H18.2007V11.0795ZM18.2007 8.19886H19.9223C20.1922 8.19886 20.4237 8.16193 20.6169 8.08807C20.8101 8.01136 20.9578 7.90341 21.0601 7.7642C21.1652 7.62216 21.2177 7.45455 21.2177 7.26136C21.2177 6.9858 21.1027 6.76989 20.8726 6.61364C20.6424 6.45455 20.3257 6.375 19.9223 6.375H18.2007V8.19886ZM23.6094 6.39205V5.45455H28.9276V6.39205H26.7799V12H25.7742V6.39205H23.6094ZM32.7138 12.1364C32.1229 12.1364 31.6044 11.9957 31.1584 11.7145C30.7152 11.4332 30.3687 11.0398 30.1187 10.5341C29.8715 10.0284 29.7479 9.4375 29.7479 8.76136C29.7479 8.07955 29.8715 7.48437 30.1187 6.97585C30.3687 6.46733 30.7152 6.07244 31.1584 5.79119C31.6044 5.50994 32.1229 5.36932 32.7138 5.36932C33.3047 5.36932 33.8218 5.50994 34.265 5.79119C34.711 6.07244 35.0576 6.46733 35.3047 6.97585C35.5547 7.48437 35.6797 8.07955 35.6797 8.76136C35.6797 9.4375 35.5547 10.0284 35.3047 10.5341C35.0576 11.0398 34.711 11.4332 34.265 11.7145C33.8218 11.9957 33.3047 12.1364 32.7138 12.1364ZM32.7138 11.233C33.1627 11.233 33.532 11.1179 33.8218 10.8878C34.1116 10.6577 34.326 10.3551 34.4652 9.98011C34.6044 9.60511 34.6741 9.19886 34.6741 8.76136C34.6741 8.32386 34.6044 7.91619 34.4652 7.53835C34.326 7.16051 34.1116 6.85511 33.8218 6.62216C33.532 6.3892 33.1627 6.27273 32.7138 6.27273C32.265 6.27273 31.8956 6.3892 31.6059 6.62216C31.3161 6.85511 31.1016 7.16051 30.9624 7.53835C30.8232 7.91619 30.7536 8.32386 30.7536 8.76136C30.7536 9.19886 30.8232 9.60511 30.9624 9.98011C31.1016 10.3551 31.3161 10.6577 31.6059 10.8878C31.8956 11.1179 32.265 11.233 32.7138 11.233ZM37.2149 14.4545V5.45455H38.1865V6.49432H38.3058C38.3797 6.38068 38.4819 6.2358 38.6126 6.05966C38.7461 5.88068 38.9365 5.72159 39.1836 5.58239C39.4336 5.44034 39.7717 5.36932 40.1978 5.36932C40.749 5.36932 41.2348 5.5071 41.6552 5.78267C42.0757 6.05824 42.4038 6.44886 42.6396 6.95455C42.8754 7.46023 42.9933 8.05682 42.9933 8.74432C42.9933 9.4375 42.8754 10.0384 42.6396 10.5469C42.4038 11.0526 42.0771 11.4446 41.6595 11.723C41.2419 11.9986 40.7603 12.1364 40.2149 12.1364C39.7944 12.1364 39.4578 12.0668 39.2049 11.9276C38.9521 11.7855 38.7575 11.625 38.6211 11.446C38.4848 11.2642 38.3797 11.1136 38.3058 10.9943H38.2206V14.4545H37.2149ZM38.2035 8.72727C38.2035 9.22159 38.276 9.65767 38.4209 10.0355C38.5657 10.4105 38.7774 10.7045 39.0558 10.9176C39.3342 11.1278 39.6751 11.233 40.0785 11.233C40.499 11.233 40.8498 11.1222 41.1311 10.9006C41.4152 10.6761 41.6282 10.375 41.7703 9.99716C41.9152 9.61648 41.9876 9.19318 41.9876 8.72727C41.9876 8.26705 41.9166 7.85227 41.7745 7.48295C41.6353 7.1108 41.4237 6.81676 41.1396 6.60085C40.8584 6.3821 40.5047 6.27273 40.0785 6.27273C39.6694 6.27273 39.3257 6.37642 39.0473 6.58381C38.7689 6.78835 38.5586 7.07528 38.4166 7.4446C38.2745 7.81108 38.2035 8.23864 38.2035 8.72727ZM48.4649 12V6.375H46.7263C46.3342 6.375 46.026 6.46591 45.8015 6.64773C45.5771 6.82955 45.4649 7.07955 45.4649 7.39773C45.4649 7.71023 45.5657 7.95597 45.7674 8.13494C45.972 8.31392 46.2518 8.40341 46.6069 8.40341H48.7206V9.34091H46.6069C46.1638 9.34091 45.7816 9.26278 45.4606 9.10653C45.1396 8.95028 44.8924 8.72727 44.7191 8.4375C44.5459 8.14489 44.4592 7.7983 44.4592 7.39773C44.4592 6.99432 44.5501 6.64773 44.7319 6.35795C44.9138 6.06818 45.1737 5.84517 45.5118 5.68892C45.8527 5.53267 46.2575 5.45455 46.7263 5.45455H49.4194V12H48.4649ZM44.1013 12L45.9592 8.74432H47.0501L45.1922 12H44.1013ZM54.01 12.1364C53.3793 12.1364 52.8353 11.9972 52.3779 11.7188C51.9233 11.4375 51.5725 11.0455 51.3253 10.5426C51.081 10.0369 50.9589 9.44886 50.9589 8.77841C50.9589 8.10795 51.081 7.51705 51.3253 7.00568C51.5725 6.49148 51.9162 6.09091 52.3566 5.80398C52.7998 5.5142 53.3168 5.36932 53.9077 5.36932C54.2486 5.36932 54.5853 5.42614 54.9177 5.53977C55.25 5.65341 55.5526 5.83807 55.8253 6.09375C56.0981 6.34659 56.3154 6.68182 56.4773 7.09943C56.6392 7.51705 56.7202 8.03125 56.7202 8.64205V9.06818H51.6748V8.19886H55.6975C55.6975 7.82955 55.6236 7.5 55.4759 7.21023C55.331 6.92045 55.1236 6.69176 54.8537 6.52415C54.5867 6.35653 54.2714 6.27273 53.9077 6.27273C53.5071 6.27273 53.1606 6.37216 52.8679 6.57102C52.5782 6.76705 52.3552 7.02273 52.1989 7.33807C52.0427 7.65341 51.9645 7.99148 51.9645 8.35227V8.93182C51.9645 9.42614 52.0498 9.84517 52.2202 10.1889C52.3935 10.5298 52.6336 10.7898 52.9404 10.9688C53.2472 11.1449 53.6037 11.233 54.01 11.233C54.2742 11.233 54.5128 11.196 54.7259 11.1222C54.9418 11.0455 55.1279 10.9318 55.2841 10.7812C55.4404 10.6278 55.5611 10.4375 55.6464 10.2102L56.6179 10.483C56.5157 10.8125 56.3438 11.1023 56.1023 11.3523C55.8608 11.5994 55.5625 11.7926 55.2074 11.9318C54.8523 12.0682 54.4532 12.1364 54.01 12.1364ZM61.8296 10.6364L64.1137 5.45455H65.0682L62.2387 12H61.4205L58.6421 5.45455H59.5796L61.8296 10.6364ZM59.2557 5.45455V12H58.25V5.45455H59.2557ZM64.4035 12V5.45455H65.4091V12H64.4035ZM69.9091 12.1364C69.3182 12.1364 68.7998 11.9957 68.3537 11.7145C67.9106 11.4332 67.564 11.0398 67.314 10.5341C67.0668 10.0284 66.9432 9.4375 66.9432 8.76136C66.9432 8.07955 67.0668 7.48437 67.314 6.97585C67.564 6.46733 67.9106 6.07244 68.3537 5.79119C68.7998 5.50994 69.3182 5.36932 69.9091 5.36932C70.5 5.36932 71.0171 5.50994 71.4603 5.79119C71.9063 6.07244 72.2529 6.46733 72.5 6.97585C72.75 7.48437 72.875 8.07955 72.875 8.76136C72.875 9.4375 72.75 10.0284 72.5 10.5341C72.2529 11.0398 71.9063 11.4332 71.4603 11.7145C71.0171 11.9957 70.5 12.1364 69.9091 12.1364ZM69.9091 11.233C70.358 11.233 70.7273 11.1179 71.0171 10.8878C71.3069 10.6577 71.5214 10.3551 71.6606 9.98011C71.7998 9.60511 71.8694 9.19886 71.8694 8.76136C71.8694 8.32386 71.7998 7.91619 71.6606 7.53835C71.5214 7.16051 71.3069 6.85511 71.0171 6.62216C70.7273 6.3892 70.358 6.27273 69.9091 6.27273C69.4603 6.27273 69.091 6.3892 68.8012 6.62216C68.5114 6.85511 68.2969 7.16051 68.1577 7.53835C68.0185 7.91619 67.9489 8.32386 67.9489 8.76136C67.9489 9.19886 68.0185 9.60511 68.1577 9.98011C68.2969 10.3551 68.5114 10.6577 68.8012 10.8878C69.091 11.1179 69.4603 11.233 69.9091 11.233ZM77.0693 12.1364C76.4557 12.1364 75.9272 11.9915 75.4841 11.7017C75.0409 11.4119 74.7 11.0128 74.4613 10.5043C74.2227 9.99574 74.1034 9.41477 74.1034 8.76136C74.1034 8.09659 74.2255 7.50994 74.4699 7.00142C74.717 6.49006 75.0608 6.09091 75.5011 5.80398C75.9443 5.5142 76.4613 5.36932 77.0522 5.36932C77.5125 5.36932 77.9272 5.45455 78.2966 5.625C78.6659 5.79545 78.9684 6.03409 79.2042 6.34091C79.44 6.64773 79.5863 7.00568 79.6432 7.41477H78.6375C78.5608 7.11648 78.3903 6.85227 78.1261 6.62216C77.8647 6.3892 77.5125 6.27273 77.0693 6.27273C76.6772 6.27273 76.3335 6.375 76.038 6.57955C75.7454 6.78125 75.5167 7.06676 75.352 7.43608C75.19 7.80256 75.1091 8.23295 75.1091 8.72727C75.1091 9.23295 75.1886 9.6733 75.3477 10.0483C75.5096 10.4233 75.7369 10.7145 76.0295 10.9219C76.325 11.1293 76.6716 11.233 77.0693 11.233C77.3307 11.233 77.5679 11.1875 77.7809 11.0966C77.994 11.0057 78.1744 10.875 78.3221 10.7045C78.4699 10.5341 78.575 10.3295 78.6375 10.0909H79.6432C79.5863 10.4773 79.4457 10.8253 79.2213 11.1349C78.9997 11.4418 78.7057 11.6861 78.3392 11.8679C77.9755 12.0469 77.5522 12.1364 77.0693 12.1364ZM80.5977 6.39205V5.45455H85.9159V6.39205H83.7682V12H82.7625V6.39205H80.5977ZM88.2522 7.82386H90.1272C90.8942 7.82386 91.4809 8.01847 91.8871 8.40767C92.2934 8.79687 92.4965 9.28977 92.4965 9.88636C92.4965 10.2784 92.4056 10.6349 92.2238 10.956C92.0419 11.2741 91.7749 11.5284 91.4226 11.7188C91.0704 11.9062 90.6385 12 90.1272 12H87.3829V5.45455H88.3885V11.0625H90.1272C90.5249 11.0625 90.8516 10.9574 91.1073 10.7472C91.363 10.5369 91.4908 10.267 91.4908 9.9375C91.4908 9.59091 91.363 9.30824 91.1073 9.08949C90.8516 8.87074 90.5249 8.76136 90.1272 8.76136H88.2522V7.82386ZM100.061 12.1364C99.4478 12.1364 98.9194 11.9915 98.4763 11.7017C98.0331 11.4119 97.6922 11.0128 97.4535 10.5043C97.2149 9.99574 97.0956 9.41477 97.0956 8.76136C97.0956 8.09659 97.2177 7.50994 97.462 7.00142C97.7092 6.49006 98.053 6.09091 98.4933 5.80398C98.9365 5.5142 99.4535 5.36932 100.044 5.36932C100.505 5.36932 100.919 5.45455 101.289 5.625C101.658 5.79545 101.961 6.03409 102.196 6.34091C102.432 6.64773 102.579 7.00568 102.635 7.41477H101.63C101.553 7.11648 101.383 6.85227 101.118 6.62216C100.857 6.3892 100.505 6.27273 100.061 6.27273C99.6694 6.27273 99.3257 6.375 99.0302 6.57955C98.7376 6.78125 98.5089 7.06676 98.3441 7.43608C98.1822 7.80256 98.1013 8.23295 98.1013 8.72727C98.1013 9.23295 98.1808 9.6733 98.3399 10.0483C98.5018 10.4233 98.7291 10.7145 99.0217 10.9219C99.3172 11.1293 99.6638 11.233 100.061 11.233C100.323 11.233 100.56 11.1875 100.773 11.0966C100.986 11.0057 101.167 10.875 101.314 10.7045C101.462 10.5341 101.567 10.3295 101.63 10.0909H102.635C102.579 10.4773 102.438 10.8253 102.213 11.1349C101.992 11.4418 101.698 11.6861 101.331 11.8679C100.968 12.0469 100.544 12.1364 100.061 12.1364ZM103.526 12V11.0625H103.765C103.961 11.0625 104.124 11.0241 104.255 10.9474C104.385 10.8679 104.49 10.7301 104.57 10.5341C104.652 10.3352 104.715 10.0597 104.758 9.70739C104.803 9.35227 104.836 8.90057 104.856 8.35227L104.975 5.45455H109.338V12H108.333V6.39205H105.929L105.827 8.72727C105.804 9.2642 105.756 9.73722 105.682 10.1463C105.611 10.5526 105.502 10.8935 105.354 11.169C105.209 11.4446 105.016 11.652 104.775 11.7912C104.533 11.9304 104.231 12 103.867 12H103.526ZM113.843 12.1364C113.252 12.1364 112.733 11.9957 112.287 11.7145C111.844 11.4332 111.498 11.0398 111.248 10.5341C111 10.0284 110.877 9.4375 110.877 8.76136C110.877 8.07955 111 7.48437 111.248 6.97585C111.498 6.46733 111.844 6.07244 112.287 5.79119C112.733 5.50994 113.252 5.36932 113.843 5.36932C114.434 5.36932 114.951 5.50994 115.394 5.79119C115.84 6.07244 116.186 6.46733 116.434 6.97585C116.684 7.48437 116.809 8.07955 116.809 8.76136C116.809 9.4375 116.684 10.0284 116.434 10.5341C116.186 11.0398 115.84 11.4332 115.394 11.7145C114.951 11.9957 114.434 12.1364 113.843 12.1364ZM113.843 11.233C114.292 11.233 114.661 11.1179 114.951 10.8878C115.24 10.6577 115.455 10.3551 115.594 9.98011C115.733 9.60511 115.803 9.19886 115.803 8.76136C115.803 8.32386 115.733 7.91619 115.594 7.53835C115.455 7.16051 115.24 6.85511 114.951 6.62216C114.661 6.3892 114.292 6.27273 113.843 6.27273C113.394 6.27273 113.025 6.3892 112.735 6.62216C112.445 6.85511 112.231 7.16051 112.091 7.53835C111.952 7.91619 111.883 8.32386 111.883 8.76136C111.883 9.19886 111.952 9.60511 112.091 9.98011C112.231 10.3551 112.445 10.6577 112.735 10.8878C113.025 11.1179 113.394 11.233 113.843 11.233ZM118.344 12V5.45455H121.02C121.724 5.45455 122.284 5.61364 122.699 5.93182C123.114 6.25 123.321 6.67045 123.321 7.19318C123.321 7.59091 123.203 7.89915 122.967 8.1179C122.732 8.33381 122.429 8.48011 122.06 8.55682C122.301 8.59091 122.536 8.67614 122.763 8.8125C122.993 8.94886 123.183 9.13636 123.334 9.375C123.484 9.6108 123.56 9.90057 123.56 10.2443C123.56 10.5795 123.474 10.8793 123.304 11.1435C123.134 11.4077 122.889 11.6165 122.571 11.7699C122.253 11.9233 121.872 12 121.429 12H118.344ZM119.298 11.0795H121.429C121.776 11.0795 122.047 10.9972 122.243 10.8324C122.439 10.6676 122.537 10.4432 122.537 10.1591C122.537 9.82102 122.439 9.5554 122.243 9.36222C122.047 9.16619 121.776 9.06818 121.429 9.06818H119.298V11.0795ZM119.298 8.19886H121.02C121.29 8.19886 121.521 8.16193 121.715 8.08807C121.908 8.01136 122.055 7.90341 122.158 7.7642C122.263 7.62216 122.315 7.45455 122.315 7.26136C122.315 6.9858 122.2 6.76989 121.97 6.61364C121.74 6.45455 121.423 6.375 121.02 6.375H119.298V8.19886Z" fill="#525252"></path> <rect x="0.833496" y="25.5" width="225.667" height="49" rx="9.5" fill="#E0E0E0"></rect> <g clip-path="url(#clip0_509_2727)"> <path d="M34.5834 41H30.8334C30.6345 41 30.4438 41.079 30.3031 41.2197C30.1625 41.3603 30.0834 41.5511 30.0834 41.75C30.0834 41.9489 30.1625 42.1397 30.3031 42.2803C30.4438 42.421 30.6345 42.5 30.8334 42.5H34.5834C34.9176 42.5013 35.247 42.5782 35.5472 42.725L20.5532 57.7198C20.4816 57.7889 20.4244 57.8717 20.3851 57.9632C20.3458 58.0547 20.3251 58.1531 20.3242 58.2527C20.3234 58.3523 20.3424 58.451 20.3801 58.5432C20.4178 58.6354 20.4735 58.7191 20.5439 58.7895C20.6143 58.86 20.698 58.9157 20.7902 58.9534C20.8824 58.9911 20.9812 59.0101 21.0807 59.0092C21.1803 59.0083 21.2787 58.9876 21.3702 58.9483C21.4617 58.909 21.5445 58.8519 21.6137 58.7803L36.6084 43.7863C36.7552 44.0864 36.8321 44.4159 36.8334 44.75V48.5C36.8334 48.6989 36.9125 48.8897 37.0531 49.0303C37.1938 49.171 37.3845 49.25 37.5834 49.25C37.7823 49.25 37.9731 49.171 38.1138 49.0303C38.2544 48.8897 38.3334 48.6989 38.3334 48.5V44.75C38.3322 43.7558 37.9368 42.8027 37.2338 42.0997C36.5308 41.3967 35.5776 41.0012 34.5834 41V41Z" fill="#525252" fill-opacity="0.3"></path> <path d="M24.8335 48.5C25.4268 48.5 26.0069 48.3241 26.5002 47.9944C26.9936 47.6648 27.3781 47.1962 27.6051 46.6481C27.8322 46.0999 27.8916 45.4967 27.7759 44.9147C27.6601 44.3328 27.3744 43.7982 26.9548 43.3787C26.5353 42.9591 26.0007 42.6734 25.4188 42.5576C24.8368 42.4419 24.2336 42.5013 23.6854 42.7284C23.1373 42.9554 22.6687 43.3399 22.3391 43.8333C22.0094 44.3266 21.8335 44.9067 21.8335 45.5C21.8335 46.2957 22.1496 47.0587 22.7122 47.6213C23.2748 48.1839 24.0378 48.5 24.8335 48.5ZM24.8335 44C25.1302 44 25.4202 44.088 25.6669 44.2528C25.9135 44.4176 26.1058 44.6519 26.2193 44.926C26.3328 45.2001 26.3626 45.5017 26.3047 45.7926C26.2468 46.0836 26.1039 46.3509 25.8942 46.5607C25.6844 46.7704 25.4171 46.9133 25.1261 46.9712C24.8352 47.0291 24.5336 46.9994 24.2595 46.8858C23.9854 46.7723 23.7511 46.58 23.5863 46.3334C23.4215 46.0867 23.3335 45.7967 23.3335 45.5C23.3335 45.1022 23.4915 44.7206 23.7728 44.4393C24.0541 44.158 24.4357 44 24.8335 44V44Z" fill="#525252" fill-opacity="0.3"></path> <path d="M33.8335 51.5C33.2402 51.5 32.6601 51.6759 32.1668 52.0056C31.6734 52.3352 31.2889 52.8038 31.0619 53.352C30.8348 53.9001 30.7754 54.5033 30.8911 55.0853C31.0069 55.6672 31.2926 56.2018 31.7122 56.6213C32.1317 57.0409 32.6663 57.3266 33.2482 57.4424C33.8302 57.5581 34.4334 57.4987 34.9815 57.2716C35.5297 57.0446 35.9983 56.6601 36.3279 56.1667C36.6576 55.6734 36.8335 55.0933 36.8335 54.5C36.8335 53.7044 36.5174 52.9413 35.9548 52.3787C35.3922 51.8161 34.6291 51.5 33.8335 51.5V51.5ZM33.8335 56C33.5368 56 33.2468 55.912 33.0001 55.7472C32.7535 55.5824 32.5612 55.3481 32.4477 55.074C32.3341 54.7999 32.3044 54.4983 32.3623 54.2074C32.4202 53.9164 32.5631 53.6491 32.7728 53.4393C32.9826 53.2296 33.2499 53.0867 33.5409 53.0288C33.8318 52.9709 34.1334 53.0006 34.4075 53.1142C34.6816 53.2277 34.9159 53.42 35.0807 53.6666C35.2455 53.9133 35.3335 54.2033 35.3335 54.5C35.3335 54.8978 35.1755 55.2794 34.8942 55.5607C34.6129 55.842 34.2313 56 33.8335 56Z" fill="#525252" fill-opacity="0.3"></path> </g> <path d="M52.0835 54.6193C51.4415 54.6193 50.8946 54.4446 50.4429 54.0952C49.9912 53.7429 49.646 53.233 49.4074 52.5653C49.1687 51.8949 49.0494 51.0852 49.0494 50.1364C49.0494 49.1932 49.1687 48.3878 49.4074 47.7202C49.6488 47.0497 49.9954 46.5384 50.4471 46.1861C50.9017 45.831 51.4471 45.6534 52.0835 45.6534C52.7199 45.6534 53.2639 45.831 53.7156 46.1861C54.1701 46.5384 54.5167 47.0497 54.7554 47.7202C54.9968 48.3878 55.1176 49.1932 55.1176 50.1364C55.1176 51.0852 54.9983 51.8949 54.7596 52.5653C54.521 53.233 54.1758 53.7429 53.7241 54.0952C53.2724 54.4446 52.7255 54.6193 52.0835 54.6193ZM52.0835 53.6818C52.7199 53.6818 53.2142 53.375 53.5665 52.7614C53.9187 52.1477 54.0949 51.2727 54.0949 50.1364C54.0949 49.3807 54.0139 48.7372 53.852 48.206C53.6929 47.6747 53.4628 47.2699 53.1616 46.9915C52.8633 46.7131 52.504 46.5739 52.0835 46.5739C51.4528 46.5739 50.9599 46.8849 50.6048 47.5071C50.2497 48.1264 50.0721 49.0028 50.0721 50.1364C50.0721 50.892 50.1517 51.5341 50.3108 52.0625C50.4699 52.5909 50.6986 52.9929 50.9968 53.2685C51.298 53.544 51.6602 53.6818 52.0835 53.6818Z" fill="#525252"></path> <rect x="161" y="41" width="18" height="18" rx="9" fill="#525252" fill-opacity="0.1"></rect> <path d="M173.75 49.25H170.75V46.25C170.75 46.0511 170.671 45.8603 170.53 45.7197C170.39 45.579 170.199 45.5 170 45.5C169.801 45.5 169.61 45.579 169.47 45.7197C169.329 45.8603 169.25 46.0511 169.25 46.25V49.25H166.25C166.051 49.25 165.86 49.329 165.72 49.4697C165.579 49.6103 165.5 49.8011 165.5 50C165.5 50.1989 165.579 50.3897 165.72 50.5303C165.86 50.671 166.051 50.75 166.25 50.75H169.25V53.75C169.25 53.9489 169.329 54.1397 169.47 54.2803C169.61 54.421 169.801 54.5 170 54.5C170.199 54.5 170.39 54.421 170.53 54.2803C170.671 54.1397 170.75 53.9489 170.75 53.75V50.75H173.75C173.949 50.75 174.14 50.671 174.28 50.5303C174.421 50.3897 174.5 50.1989 174.5 50C174.5 49.8011 174.421 49.6103 174.28 49.4697C174.14 49.329 173.949 49.25 173.75 49.25Z" fill="#525252" fill-opacity="0.3"></path> <rect x="189" y="41" width="18" height="18" rx="9" fill="#525252" fill-opacity="0.1"></rect> <path d="M194.25 49.2498C194.051 49.2498 193.86 49.3288 193.72 49.4694C193.579 49.6101 193.5 49.8008 193.5 49.9998C193.5 50.1987 193.579 50.3894 193.72 50.5301C193.86 50.6707 194.051 50.7498 194.25 50.7498H201.75C201.949 50.7498 202.14 50.6707 202.28 50.5301C202.421 50.3894 202.5 50.1987 202.5 49.9998C202.5 49.8008 202.421 49.6101 202.28 49.4694C202.14 49.3288 201.949 49.2498 201.75 49.2498H194.25Z" fill="#525252" fill-opacity="0.3"></path> <rect x="0.833496" y="25.5" width="225.667" height="49" rx="9.5" stroke="#B3B3B3"></rect> <defs> <clipPath id="clip0_509_2727"> <rect width="18" height="18" fill="white" transform="translate(20.3335 41)"></rect> </clipPath> </defs> </svg> 