<?xml version="1.0" encoding="UTF-8"?> <svg xmlns="http://www.w3.org/2000/svg" width="601" height="447" viewBox="0 0 601 447" fill="none"> <rect width="600.681" height="446.34" fill="#0A234D"></rect> <rect x="118.5" y="60.5" width="364" height="325" rx="16.5" fill="#D9D9D9"></rect> <rect x="118.5" y="60.5" width="364" height="325" rx="16.5" fill="url(#paint0_linear_234_2009)"></rect> <path fill-rule="evenodd" clip-rule="evenodd" d="M340.21 95.9607C337.379 108.038 329.19 118.05 318.289 123.347H330.493C336.568 123.347 341.493 128.271 341.493 134.347V145.778C345.894 134.813 354.913 126.202 366.141 122.356C359.792 111.574 350.865 102.492 340.21 95.9607ZM328.573 90.1356C326.835 104.106 314.929 114.918 300.499 114.918C286.069 114.918 274.163 104.107 272.425 90.1366C276.767 88.4117 281.306 87.0751 285.998 86.1695C286.008 93.9256 292.294 100.21 300.047 100.21C307.806 100.21 314.096 93.9147 314.096 86.1493C314.096 86.0995 314.095 86.0497 314.095 86C319.109 86.9045 323.952 88.3002 328.573 90.1356ZM260.788 95.9621C263.619 108.039 271.808 118.051 282.709 123.347H270.917C264.842 123.347 259.917 128.271 259.917 134.347V144.6C255.251 133.956 246.177 125.687 235.008 122.106C241.347 111.434 250.216 102.443 260.788 95.9621ZM229.459 188.452C241.744 185.366 250.842 174.24 250.842 160.987C250.842 147.735 241.745 136.609 229.459 133.523C227.8 137.817 226.519 142.299 225.657 146.929C231.692 148.506 236.145 153.999 236.145 160.534C236.145 167.125 231.615 172.656 225.5 174.179C226.361 179.116 227.697 183.89 229.459 188.452ZM235.007 199.869C241.311 210.481 250.116 219.431 260.61 225.903C263.416 212.744 272.559 201.933 284.689 196.824H270.917C264.842 196.824 259.917 191.899 259.917 185.824V177.375C255.251 188.019 246.177 196.287 235.007 199.869ZM328.667 231.802C327.326 217.413 315.226 206.15 300.499 206.15C285.771 206.15 273.672 217.412 272.33 231.801C276.737 233.558 281.346 234.916 286.114 235.828C286.037 235.233 285.998 234.627 285.998 234.011C285.998 226.246 292.288 219.951 300.047 219.951C307.806 219.951 314.096 226.246 314.096 234.011C314.096 234.686 314.048 235.35 313.956 236C319.053 235.09 323.975 233.673 328.667 231.802ZM340.388 225.905C350.965 219.381 359.827 210.341 366.141 199.618C354.913 195.773 345.894 187.162 341.493 176.197V185.824C341.493 191.899 336.568 196.824 330.493 196.824H316.308C328.438 201.933 337.582 212.745 340.388 225.905ZM371.625 133.742C359.757 137.108 351.063 148.031 351.063 160.987C351.063 173.943 359.758 184.867 371.626 188.233C373.346 183.737 374.653 179.037 375.5 174.179C369.384 172.657 364.853 167.125 364.853 160.534C364.853 153.999 369.307 148.505 375.344 146.928C374.495 142.378 373.243 137.969 371.625 133.742Z" fill="url(#paint1_linear_234_2009)"></path> <path fill-rule="evenodd" clip-rule="evenodd" d="M340.21 95.9607C337.379 108.038 329.19 118.05 318.289 123.347H330.493C336.568 123.347 341.493 128.271 341.493 134.347V145.778C345.894 134.813 354.913 126.202 366.141 122.356C359.792 111.574 350.865 102.492 340.21 95.9607ZM328.573 90.1356C326.835 104.106 314.929 114.918 300.499 114.918C286.069 114.918 274.163 104.107 272.425 90.1366C276.767 88.4117 281.306 87.0751 285.998 86.1695C286.008 93.9256 292.294 100.21 300.047 100.21C307.806 100.21 314.096 93.9147 314.096 86.1493C314.096 86.0995 314.095 86.0497 314.095 86C319.109 86.9045 323.952 88.3002 328.573 90.1356ZM260.788 95.9621C263.619 108.039 271.808 118.051 282.709 123.347H270.917C264.842 123.347 259.917 128.271 259.917 134.347V144.6C255.251 133.956 246.177 125.687 235.008 122.106C241.347 111.434 250.216 102.443 260.788 95.9621ZM229.459 188.452C241.744 185.366 250.842 174.24 250.842 160.987C250.842 147.735 241.745 136.609 229.459 133.523C227.8 137.817 226.519 142.299 225.657 146.929C231.692 148.506 236.145 153.999 236.145 160.534C236.145 167.125 231.615 172.656 225.5 174.179C226.361 179.116 227.697 183.89 229.459 188.452ZM235.007 199.869C241.311 210.481 250.116 219.431 260.61 225.903C263.416 212.744 272.559 201.933 284.689 196.824H270.917C264.842 196.824 259.917 191.899 259.917 185.824V177.375C255.251 188.019 246.177 196.287 235.007 199.869ZM328.667 231.802C327.326 217.413 315.226 206.15 300.499 206.15C285.771 206.15 273.672 217.412 272.33 231.801C276.737 233.558 281.346 234.916 286.114 235.828C286.037 235.233 285.998 234.627 285.998 234.011C285.998 226.246 292.288 219.951 300.047 219.951C307.806 219.951 314.096 226.246 314.096 234.011C314.096 234.686 314.048 235.35 313.956 236C319.053 235.09 323.975 233.673 328.667 231.802ZM340.388 225.905C350.965 219.381 359.827 210.341 366.141 199.618C354.913 195.773 345.894 187.162 341.493 176.197V185.824C341.493 191.899 336.568 196.824 330.493 196.824H316.308C328.438 201.933 337.582 212.745 340.388 225.905ZM371.625 133.742C359.757 137.108 351.063 148.031 351.063 160.987C351.063 173.943 359.758 184.867 371.626 188.233C373.346 183.737 374.653 179.037 375.5 174.179C369.384 172.657 364.853 167.125 364.853 160.534C364.853 153.999 369.307 148.505 375.344 146.928C374.495 142.378 373.243 137.969 371.625 133.742Z" fill="url(#paint2_radial_234_2009)"></path> <path fill-rule="evenodd" clip-rule="evenodd" d="M340.21 95.9607C337.379 108.038 329.19 118.05 318.289 123.347H330.493C336.568 123.347 341.493 128.271 341.493 134.347V145.778C345.894 134.813 354.913 126.202 366.141 122.356C359.792 111.574 350.865 102.492 340.21 95.9607ZM328.573 90.1356C326.835 104.106 314.929 114.918 300.499 114.918C286.069 114.918 274.163 104.107 272.425 90.1366C276.767 88.4117 281.306 87.0751 285.998 86.1695C286.008 93.9256 292.294 100.21 300.047 100.21C307.806 100.21 314.096 93.9147 314.096 86.1493C314.096 86.0995 314.095 86.0497 314.095 86C319.109 86.9045 323.952 88.3002 328.573 90.1356ZM260.788 95.9621C263.619 108.039 271.808 118.051 282.709 123.347H270.917C264.842 123.347 259.917 128.271 259.917 134.347V144.6C255.251 133.956 246.177 125.687 235.008 122.106C241.347 111.434 250.216 102.443 260.788 95.9621ZM229.459 188.452C241.744 185.366 250.842 174.24 250.842 160.987C250.842 147.735 241.745 136.609 229.459 133.523C227.8 137.817 226.519 142.299 225.657 146.929C231.692 148.506 236.145 153.999 236.145 160.534C236.145 167.125 231.615 172.656 225.5 174.179C226.361 179.116 227.697 183.89 229.459 188.452ZM235.007 199.869C241.311 210.481 250.116 219.431 260.61 225.903C263.416 212.744 272.559 201.933 284.689 196.824H270.917C264.842 196.824 259.917 191.899 259.917 185.824V177.375C255.251 188.019 246.177 196.287 235.007 199.869ZM328.667 231.802C327.326 217.413 315.226 206.15 300.499 206.15C285.771 206.15 273.672 217.412 272.33 231.801C276.737 233.558 281.346 234.916 286.114 235.828C286.037 235.233 285.998 234.627 285.998 234.011C285.998 226.246 292.288 219.951 300.047 219.951C307.806 219.951 314.096 226.246 314.096 234.011C314.096 234.686 314.048 235.35 313.956 236C319.053 235.09 323.975 233.673 328.667 231.802ZM340.388 225.905C350.965 219.381 359.827 210.341 366.141 199.618C354.913 195.773 345.894 187.162 341.493 176.197V185.824C341.493 191.899 336.568 196.824 330.493 196.824H316.308C328.438 201.933 337.582 212.745 340.388 225.905ZM371.625 133.742C359.757 137.108 351.063 148.031 351.063 160.987C351.063 173.943 359.758 184.867 371.626 188.233C373.346 183.737 374.653 179.037 375.5 174.179C369.384 172.657 364.853 167.125 364.853 160.534C364.853 153.999 369.307 148.505 375.344 146.928C374.495 142.378 373.243 137.969 371.625 133.742Z" fill="url(#paint3_radial_234_2009)"></path> <path d="M309.059 155.473C307.635 155.473 306.923 156.383 306.923 158.202V173.518C306.923 173.927 306.777 174.28 306.485 174.577C306.193 174.874 305.846 175.022 305.444 175.022H295.805C295.404 175.022 295.057 174.874 294.765 174.577C294.473 174.28 294.327 173.927 294.327 173.518V158.202C294.327 156.383 293.596 155.473 292.136 155.473C290.676 155.473 289.945 156.383 289.945 158.202V173.518C289.945 173.927 289.799 174.28 289.507 174.577C289.215 174.874 288.868 175.022 288.467 175.022H278.609C278.207 175.022 277.86 174.874 277.568 174.577C277.276 174.28 277.13 173.927 277.13 173.518V147.564C277.13 147.156 277.276 146.803 277.568 146.506C277.86 146.209 278.207 146.06 278.609 146.06H287.645C288.047 146.06 288.394 146.209 288.686 146.506C288.978 146.803 289.124 147.156 289.124 147.564V149.402C289.452 148.993 289.854 148.566 290.329 148.121C290.84 147.675 291.406 147.267 292.026 146.896C292.684 146.524 293.396 146.209 294.162 145.949C294.966 145.689 295.824 145.54 296.736 145.503C301.045 145.355 303.929 146.877 305.39 150.07C306.229 148.771 307.416 147.694 308.949 146.84C310.483 145.949 312.089 145.503 313.769 145.503C315.156 145.503 316.453 145.745 317.657 146.227C318.899 146.673 319.976 147.397 320.889 148.399C321.801 149.402 322.513 150.702 323.025 152.298C323.572 153.858 323.846 155.733 323.846 157.923V173.518C323.846 173.927 323.7 174.28 323.408 174.577C323.116 174.874 322.769 175.022 322.367 175.022H312.728C312.327 175.022 311.98 174.874 311.688 174.577C311.396 174.28 311.25 173.927 311.25 173.518V158.202C311.25 156.383 310.519 155.473 309.059 155.473Z" fill="white"></path> <rect x="206.5" y="246" width="188" height="30" rx="15" fill="url(#paint4_linear_234_2009)" fill-opacity="0.2"></rect> <rect x="178.5" y="286" width="244" height="17" rx="8.5" fill="url(#paint5_linear_234_2009)" fill-opacity="0.2"></rect> <path d="M176.984 349.432C175.136 349.432 173.54 349.108 172.196 348.46C170.876 347.812 169.832 346.924 169.064 345.796C168.32 344.644 167.888 343.348 167.768 341.908H172.268C172.484 342.94 173.012 343.804 173.852 344.5C174.692 345.172 175.736 345.508 176.984 345.508C178.328 345.508 179.42 345.016 180.26 344.032C181.124 343.048 181.556 341.824 181.556 340.36C181.556 338.848 181.124 337.648 180.26 336.76C179.42 335.872 178.352 335.428 177.056 335.428C175.976 335.428 175.04 335.692 174.248 336.22C173.456 336.748 172.892 337.408 172.556 338.2H168.128L170.288 323.8H184.256V327.832H173.744L172.592 333.664C173.12 333.088 173.84 332.62 174.752 332.26C175.664 331.876 176.684 331.684 177.812 331.684C179.612 331.684 181.112 332.092 182.312 332.908C183.512 333.7 184.424 334.756 185.048 336.076C185.672 337.372 185.984 338.788 185.984 340.324C185.984 342.076 185.6 343.636 184.832 345.004C184.088 346.372 183.032 347.452 181.664 348.244C180.32 349.036 178.76 349.432 176.984 349.432ZM209.182 349.432C206.854 349.432 204.862 348.892 203.206 347.812C201.55 346.708 200.266 345.184 199.354 343.24C198.466 341.272 198.022 338.992 198.022 336.4C198.022 333.832 198.466 331.564 199.354 329.596C200.266 327.628 201.55 326.104 203.206 325.024C204.862 323.92 206.854 323.368 209.182 323.368C211.51 323.368 213.502 323.92 215.158 325.024C216.814 326.104 218.086 327.628 218.974 329.596C219.886 331.564 220.342 333.832 220.342 336.4C220.342 338.992 219.886 341.272 218.974 343.24C218.086 345.184 216.814 346.708 215.158 347.812C213.502 348.892 211.51 349.432 209.182 349.432ZM209.182 345.292C211.078 345.292 212.626 344.5 213.826 342.916C215.026 341.332 215.626 339.16 215.626 336.4C215.626 333.64 215.026 331.468 213.826 329.884C212.626 328.3 211.078 327.508 209.182 327.508C207.262 327.508 205.702 328.3 204.502 329.884C203.326 331.468 202.738 333.64 202.738 336.4C202.738 339.16 203.326 341.332 204.502 342.916C205.702 344.5 207.262 345.292 209.182 345.292ZM234.741 349.432C232.413 349.432 230.421 348.892 228.765 347.812C227.109 346.708 225.825 345.184 224.913 343.24C224.025 341.272 223.581 338.992 223.581 336.4C223.581 333.832 224.025 331.564 224.913 329.596C225.825 327.628 227.109 326.104 228.765 325.024C230.421 323.92 232.413 323.368 234.741 323.368C237.069 323.368 239.061 323.92 240.717 325.024C242.373 326.104 243.645 327.628 244.533 329.596C245.445 331.564 245.901 333.832 245.901 336.4C245.901 338.992 245.445 341.272 244.533 343.24C243.645 345.184 242.373 346.708 240.717 347.812C239.061 348.892 237.069 349.432 234.741 349.432ZM234.741 345.292C236.637 345.292 238.185 344.5 239.385 342.916C240.585 341.332 241.185 339.16 241.185 336.4C241.185 333.64 240.585 331.468 239.385 329.884C238.185 328.3 236.637 327.508 234.741 327.508C232.821 327.508 231.261 328.3 230.061 329.884C228.885 331.468 228.297 333.64 228.297 336.4C228.297 339.16 228.885 341.332 230.061 342.916C231.261 344.5 232.821 345.292 234.741 345.292ZM260.3 349.432C257.972 349.432 255.98 348.892 254.324 347.812C252.668 346.708 251.384 345.184 250.472 343.24C249.584 341.272 249.14 338.992 249.14 336.4C249.14 333.832 249.584 331.564 250.472 329.596C251.384 327.628 252.668 326.104 254.324 325.024C255.98 323.92 257.972 323.368 260.3 323.368C262.628 323.368 264.62 323.92 266.276 325.024C267.932 326.104 269.204 327.628 270.092 329.596C271.004 331.564 271.46 333.832 271.46 336.4C271.46 338.992 271.004 341.272 270.092 343.24C269.204 345.184 267.932 346.708 266.276 347.812C264.62 348.892 262.628 349.432 260.3 349.432ZM260.3 345.292C262.196 345.292 263.744 344.5 264.944 342.916C266.144 341.332 266.744 339.16 266.744 336.4C266.744 333.64 266.144 331.468 264.944 329.884C263.744 328.3 262.196 327.508 260.3 327.508C258.38 327.508 256.82 328.3 255.62 329.884C254.444 331.468 253.856 333.64 253.856 336.4C253.856 339.16 254.444 341.332 255.62 342.916C256.82 344.5 258.38 345.292 260.3 345.292ZM300.736 333.376H294.292V349H288.928V333.376H282.484V329.344H300.736V333.376ZM321.867 339.136C321.867 340.768 321.639 342.22 321.183 343.492C320.751 344.764 320.115 345.844 319.275 346.732C318.459 347.596 317.463 348.256 316.287 348.712C315.111 349.144 313.779 349.36 312.291 349.36C310.923 349.36 309.651 349.144 308.475 348.712C307.323 348.256 306.327 347.596 305.487 346.732C304.647 345.844 303.987 344.764 303.507 343.492C303.051 342.22 302.823 340.768 302.823 339.136C302.823 336.952 303.207 335.116 303.975 333.628C304.743 332.116 305.847 330.964 307.287 330.172C308.727 329.38 310.431 328.984 312.399 328.984C314.247 328.984 315.879 329.38 317.295 330.172C318.711 330.964 319.827 332.116 320.643 333.628C321.459 335.116 321.867 336.952 321.867 339.136ZM308.295 339.136C308.295 340.432 308.427 341.524 308.691 342.412C308.979 343.276 309.423 343.936 310.023 344.392C310.623 344.824 311.403 345.04 312.363 345.04C313.323 345.04 314.091 344.824 314.667 344.392C315.267 343.936 315.699 343.276 315.963 342.412C316.251 341.524 316.395 340.432 316.395 339.136C316.395 337.84 316.251 336.76 315.963 335.896C315.699 335.032 315.267 334.384 314.667 333.952C314.067 333.52 313.287 333.304 312.327 333.304C310.911 333.304 309.879 333.796 309.231 334.78C308.607 335.74 308.295 337.192 308.295 339.136ZM339.188 329.344H345.092L337.316 338.776L345.776 349H339.692L331.664 339.028V349H326.3V329.344H331.664V338.884L339.188 329.344ZM355.986 328.984C357.81 328.984 359.37 329.332 360.666 330.028C361.986 330.724 363.006 331.732 363.726 333.052C364.446 334.372 364.806 335.992 364.806 337.912V340.504H352.134C352.182 342.016 352.626 343.204 353.466 344.068C354.33 344.932 355.518 345.364 357.03 345.364C358.302 345.364 359.454 345.244 360.486 345.004C361.518 344.74 362.586 344.344 363.69 343.816V347.956C362.73 348.436 361.71 348.784 360.63 349C359.574 349.24 358.29 349.36 356.778 349.36C354.81 349.36 353.07 349 351.558 348.28C350.046 347.536 348.858 346.42 347.994 344.932C347.13 343.444 346.698 341.572 346.698 339.316C346.698 337.012 347.082 335.104 347.85 333.592C348.642 332.056 349.734 330.904 351.126 330.136C352.518 329.368 354.138 328.984 355.986 328.984ZM356.022 332.8C354.99 332.8 354.126 333.136 353.43 333.808C352.758 334.48 352.362 335.524 352.242 336.94H359.766C359.766 336.148 359.622 335.44 359.334 334.816C359.07 334.192 358.662 333.7 358.11 333.34C357.558 332.98 356.862 332.8 356.022 332.8ZM374.52 329.344V336.904H382.008V329.344H387.372V349H382.008V340.9H374.52V349H369.156V329.344H374.52ZM410.848 339.136C410.848 340.768 410.62 342.22 410.164 343.492C409.732 344.764 409.096 345.844 408.256 346.732C407.44 347.596 406.444 348.256 405.268 348.712C404.092 349.144 402.76 349.36 401.272 349.36C399.904 349.36 398.632 349.144 397.456 348.712C396.304 348.256 395.308 347.596 394.468 346.732C393.628 345.844 392.968 344.764 392.488 343.492C392.032 342.22 391.804 340.768 391.804 339.136C391.804 336.952 392.188 335.116 392.956 333.628C393.724 332.116 394.828 330.964 396.268 330.172C397.708 329.38 399.412 328.984 401.38 328.984C403.228 328.984 404.86 329.38 406.276 330.172C407.692 330.964 408.808 332.116 409.624 333.628C410.44 335.116 410.848 336.952 410.848 339.136ZM397.276 339.136C397.276 340.432 397.408 341.524 397.672 342.412C397.96 343.276 398.404 343.936 399.004 344.392C399.604 344.824 400.384 345.04 401.344 345.04C402.304 345.04 403.072 344.824 403.648 344.392C404.248 343.936 404.68 343.276 404.944 342.412C405.232 341.524 405.376 340.432 405.376 339.136C405.376 337.84 405.232 336.76 404.944 335.896C404.68 335.032 404.248 334.384 403.648 333.952C403.048 333.52 402.268 333.304 401.308 333.304C399.892 333.304 398.86 333.796 398.212 334.78C397.588 335.74 397.276 337.192 397.276 339.136ZM432.705 334.492C432.705 335.548 432.369 336.448 431.697 337.192C431.049 337.936 430.077 338.416 428.781 338.632V338.776C430.149 338.944 431.241 339.412 432.057 340.18C432.897 340.948 433.317 341.932 433.317 343.132C433.317 343.972 433.149 344.752 432.813 345.472C432.501 346.192 431.997 346.816 431.301 347.344C430.605 347.872 429.705 348.28 428.601 348.568C427.521 348.856 426.201 349 424.641 349H415.281V329.344H424.641C426.177 329.344 427.545 329.512 428.745 329.848C429.969 330.16 430.929 330.688 431.625 331.432C432.345 332.176 432.705 333.196 432.705 334.492ZM427.773 342.844C427.773 342.076 427.473 341.524 426.873 341.188C426.273 340.828 425.373 340.648 424.173 340.648H420.645V345.292H424.281C425.289 345.292 426.117 345.112 426.765 344.752C427.437 344.368 427.773 343.732 427.773 342.844ZM427.269 334.924C427.269 334.3 427.029 333.844 426.549 333.556C426.069 333.268 425.361 333.124 424.425 333.124H420.645V337.012H423.813C424.941 337.012 425.793 336.856 426.369 336.544C426.969 336.208 427.269 335.668 427.269 334.924Z" fill="white"></path> <rect x="118.5" y="60.5" width="364" height="325" rx="16.5" stroke="#3D4B64"></rect> <defs> <linearGradient id="paint0_linear_234_2009" x1="476.734" y1="60.0001" x2="104.71" y2="87.0365" gradientUnits="userSpaceOnUse"> <stop stop-color="#081A39"></stop> <stop offset="0.484375" stop-color="#162A4B"></stop> <stop offset="1" stop-color="#0D1D37"></stop> </linearGradient> <linearGradient id="paint1_linear_234_2009" x1="250.879" y1="103.689" x2="352.944" y2="222.894" gradientUnits="userSpaceOnUse"> <stop stop-color="#03E5FD"></stop> <stop offset="1" stop-color="#EA84F4"></stop> </linearGradient> <radialGradient id="paint2_radial_234_2009" cx="0" cy="0" r="1" gradientUnits="userSpaceOnUse" gradientTransform="translate(232.751 195.309) rotate(30.9897) scale(79.0295 79.1242)"> <stop stop-color="#8353FF"></stop> <stop offset="1" stop-color="#8353FF" stop-opacity="0"></stop> </radialGradient> <radialGradient id="paint3_radial_234_2009" cx="0" cy="0" r="1" gradientUnits="userSpaceOnUse" gradientTransform="translate(340.611 182.156) rotate(126.684) scale(67.1427 67.1818)"> <stop stop-color="#F4D2B2"></stop> <stop offset="1" stop-color="#8353FF" stop-opacity="0"></stop> </radialGradient> <linearGradient id="paint4_linear_234_2009" x1="206.5" y1="261.714" x2="394.5" y2="261.714" gradientUnits="userSpaceOnUse"> <stop stop-color="#D9D9D9"></stop> <stop offset="1" stop-color="#D9D9D9" stop-opacity="0"></stop> </linearGradient> <linearGradient id="paint5_linear_234_2009" x1="178.5" y1="294.905" x2="422.5" y2="294.905" gradientUnits="userSpaceOnUse"> <stop stop-color="#D9D9D9"></stop> <stop offset="1" stop-color="#D9D9D9" stop-opacity="0"></stop> </linearGradient> </defs> </svg> 