<?xml version="1.0" encoding="UTF-8"?> <svg xmlns="http://www.w3.org/2000/svg" width="228" height="75" viewBox="0 0 228 75" fill="none"> <path d="M1.95379 3.27273H2.99356V10.142H3.07879L7.85152 3.27273H8.87425V12H7.81743V5.14773H7.7322L2.97652 12H1.95379V3.27273ZM15.2333 8.26705V9.20455H11.6196V8.26705H15.2333ZM11.8583 5.45455V12H10.8526V5.45455H11.8583ZM16.0003 5.45455V12H14.9946V5.45455H16.0003ZM17.1381 13.875V11.0625H17.6835C17.8171 10.9233 17.9321 10.7727 18.0287 10.6108C18.1253 10.4489 18.2091 10.2571 18.2801 10.0355C18.354 9.81108 18.4165 9.53835 18.4676 9.21733C18.5188 8.89347 18.5642 8.50284 18.604 8.04545L18.8256 5.45455H22.9847V11.0625H23.9904V13.875H22.9847V12H18.1438V13.875H17.1381ZM18.8256 11.0625H21.979V6.39205H19.7631L19.5926 8.04545C19.5216 8.73011 19.4335 9.32812 19.3284 9.83949C19.2233 10.3509 19.0557 10.7585 18.8256 11.0625ZM28.0696 12.1364C27.4389 12.1364 26.8948 11.9972 26.4375 11.7188C25.9829 11.4375 25.6321 11.0455 25.3849 10.5426C25.1406 10.0369 25.0184 9.44886 25.0184 8.77841C25.0184 8.10795 25.1406 7.51705 25.3849 7.00568C25.6321 6.49148 25.9758 6.09091 26.4161 5.80398C26.8593 5.5142 27.3764 5.36932 27.9673 5.36932C28.3082 5.36932 28.6448 5.42614 28.9772 5.53977C29.3096 5.65341 29.6122 5.83807 29.8849 6.09375C30.1576 6.34659 30.375 6.68182 30.5369 7.09943C30.6988 7.51705 30.7798 8.03125 30.7798 8.64205V9.06818H25.7343V8.19886H29.7571C29.7571 7.82955 29.6832 7.5 29.5355 7.21023C29.3906 6.92045 29.1832 6.69176 28.9133 6.52415C28.6463 6.35653 28.3309 6.27273 27.9673 6.27273C27.5667 6.27273 27.2201 6.37216 26.9275 6.57102C26.6377 6.76705 26.4147 7.02273 26.2585 7.33807C26.1022 7.65341 26.0241 7.99148 26.0241 8.35227V8.93182C26.0241 9.42614 26.1093 9.84517 26.2798 10.1889C26.4531 10.5298 26.6931 10.7898 27 10.9688C27.3068 11.1449 27.6633 11.233 28.0696 11.233C28.3338 11.233 28.5724 11.196 28.7855 11.1222C29.0014 11.0455 29.1875 10.9318 29.3437 10.7812C29.5 10.6278 29.6207 10.4375 29.7059 10.2102L30.6775 10.483C30.5752 10.8125 30.4034 11.1023 30.1619 11.3523C29.9204 11.5994 29.6221 11.7926 29.267 11.9318C28.9119 12.0682 28.5127 12.1364 28.0696 12.1364ZM32.3096 12V5.45455H33.3153V8.30114H33.9801L36.3323 5.45455H37.6278L34.9858 8.60795L37.6619 12H36.3664L34.2187 9.23864H33.3153V12H32.3096ZM41.1445 12.1364C40.5309 12.1364 40.0024 11.9915 39.5593 11.7017C39.1161 11.4119 38.7752 11.0128 38.5365 10.5043C38.2979 9.99574 38.1786 9.41477 38.1786 8.76136C38.1786 8.09659 38.3007 7.50994 38.5451 7.00142C38.7922 6.49006 39.136 6.09091 39.5763 5.80398C40.0195 5.5142 40.5365 5.36932 41.1274 5.36932C41.5877 5.36932 42.0024 5.45455 42.3718 5.625C42.7411 5.79545 43.0436 6.03409 43.2794 6.34091C43.5152 6.64773 43.6615 7.00568 43.7184 7.41477H42.7127C42.636 7.11648 42.4655 6.85227 42.2013 6.62216C41.9399 6.3892 41.5877 6.27273 41.1445 6.27273C40.7524 6.27273 40.4087 6.375 40.1132 6.57955C39.8206 6.78125 39.5919 7.06676 39.4272 7.43608C39.2652 7.80256 39.1843 8.23295 39.1843 8.72727C39.1843 9.23295 39.2638 9.6733 39.4229 10.0483C39.5848 10.4233 39.8121 10.7145 40.1047 10.9219C40.4002 11.1293 40.7468 11.233 41.1445 11.233C41.4059 11.233 41.6431 11.1875 41.8561 11.0966C42.0692 11.0057 42.2496 10.875 42.3973 10.7045C42.5451 10.5341 42.6502 10.3295 42.7127 10.0909H43.7184C43.6615 10.4773 43.5209 10.8253 43.2965 11.1349C43.0749 11.4418 42.7809 11.6861 42.4144 11.8679C42.0507 12.0469 41.6274 12.1364 41.1445 12.1364ZM52.9442 8.26705V9.20455H49.3306V8.26705H52.9442ZM49.5692 5.45455V12H48.5635V5.45455H49.5692ZM53.7112 5.45455V12H52.7056V5.45455H53.7112ZM58.207 12.1364C57.6161 12.1364 57.0976 11.9957 56.6516 11.7145C56.2084 11.4332 55.8618 11.0398 55.6118 10.5341C55.3647 10.0284 55.2411 9.4375 55.2411 8.76136C55.2411 8.07955 55.3647 7.48437 55.6118 6.97585C55.8618 6.46733 56.2084 6.07244 56.6516 5.79119C57.0976 5.50994 57.6161 5.36932 58.207 5.36932C58.7979 5.36932 59.3149 5.50994 59.7581 5.79119C60.2041 6.07244 60.5507 6.46733 60.7979 6.97585C61.0479 7.48437 61.1729 8.07955 61.1729 8.76136C61.1729 9.4375 61.0479 10.0284 60.7979 10.5341C60.5507 11.0398 60.2041 11.4332 59.7581 11.7145C59.3149 11.9957 58.7979 12.1364 58.207 12.1364ZM58.207 11.233C58.6559 11.233 59.0252 11.1179 59.3149 10.8878C59.6047 10.6577 59.8192 10.3551 59.9584 9.98011C60.0976 9.60511 60.1672 9.19886 60.1672 8.76136C60.1672 8.32386 60.0976 7.91619 59.9584 7.53835C59.8192 7.16051 59.6047 6.85511 59.3149 6.62216C59.0252 6.3892 58.6559 6.27273 58.207 6.27273C57.7581 6.27273 57.3888 6.3892 57.099 6.62216C56.8093 6.85511 56.5948 7.16051 56.4556 7.53835C56.3164 7.91619 56.2468 8.32386 56.2468 8.76136C56.2468 9.19886 56.3164 9.60511 56.4556 9.98011C56.5948 10.3551 56.8093 10.6577 57.099 10.8878C57.3888 11.1179 57.7581 11.233 58.207 11.233ZM62.7081 12V5.45455H65.3842C66.0887 5.45455 66.6484 5.61364 67.0632 5.93182C67.4779 6.25 67.6853 6.67045 67.6853 7.19318C67.6853 7.59091 67.5674 7.89915 67.3316 8.1179C67.0958 8.33381 66.7933 8.48011 66.424 8.55682C66.6654 8.59091 66.8998 8.67614 67.1271 8.8125C67.3572 8.94886 67.5475 9.13636 67.6981 9.375C67.8487 9.6108 67.924 9.90057 67.924 10.2443C67.924 10.5795 67.8387 10.8793 67.6683 11.1435C67.4978 11.4077 67.2535 11.6165 66.9353 11.7699C66.6171 11.9233 66.2365 12 65.7933 12H62.7081ZM63.6626 11.0795H65.7933C66.1399 11.0795 66.4112 10.9972 66.6072 10.8324C66.8032 10.6676 66.9012 10.4432 66.9012 10.1591C66.9012 9.82102 66.8032 9.5554 66.6072 9.36222C66.4112 9.16619 66.1399 9.06818 65.7933 9.06818H63.6626V11.0795ZM63.6626 8.19886H65.3842C65.6541 8.19886 65.8856 8.16193 66.0788 8.08807C66.272 8.01136 66.4197 7.90341 66.522 7.7642C66.6271 7.62216 66.6796 7.45455 66.6796 7.26136C66.6796 6.9858 66.5646 6.76989 66.3345 6.61364C66.1044 6.45455 65.7876 6.375 65.3842 6.375H63.6626V8.19886ZM70.3157 7.82386H72.1907C72.9577 7.82386 73.5443 8.01847 73.9506 8.40767C74.3568 8.79687 74.56 9.28977 74.56 9.88636C74.56 10.2784 74.4691 10.6349 74.2872 10.956C74.1054 11.2741 73.8384 11.5284 73.4861 11.7188C73.1338 11.9062 72.702 12 72.1907 12H69.4463V5.45455H70.452V11.0625H72.1907C72.5884 11.0625 72.9151 10.9574 73.1708 10.7472C73.4264 10.5369 73.5543 10.267 73.5543 9.9375C73.5543 9.59091 73.4264 9.30824 73.1708 9.08949C72.9151 8.87074 72.5884 8.76136 72.1907 8.76136H70.3157V7.82386ZM75.5997 12V5.45455H76.6054V12H75.5997ZM79.1963 5.45455L80.7645 8.13068L82.3327 5.45455H83.4918L81.3782 8.72727L83.4918 12H82.3327L80.7645 9.46023L79.1963 12H78.0372L80.1168 8.72727L78.0372 5.45455H79.1963ZM87.9268 6.39205V5.45455H93.245V6.39205H91.0973V12H90.0916V6.39205H87.9268ZM97.1164 12.1364C96.4858 12.1364 95.9417 11.9972 95.4843 11.7188C95.0298 11.4375 94.6789 11.0455 94.4318 10.5426C94.1875 10.0369 94.0653 9.44886 94.0653 8.77841C94.0653 8.10795 94.1875 7.51705 94.4318 7.00568C94.6789 6.49148 95.0227 6.09091 95.463 5.80398C95.9062 5.5142 96.4233 5.36932 97.0142 5.36932C97.3551 5.36932 97.6917 5.42614 98.0241 5.53977C98.3565 5.65341 98.659 5.83807 98.9318 6.09375C99.2045 6.34659 99.4218 6.68182 99.5838 7.09943C99.7457 7.51705 99.8267 8.03125 99.8267 8.64205V9.06818H94.7812V8.19886H98.8039C98.8039 7.82955 98.7301 7.5 98.5823 7.21023C98.4375 6.92045 98.2301 6.69176 97.9602 6.52415C97.6931 6.35653 97.3778 6.27273 97.0142 6.27273C96.6136 6.27273 96.267 6.37216 95.9744 6.57102C95.6846 6.76705 95.4616 7.02273 95.3054 7.33807C95.1491 7.65341 95.071 7.99148 95.071 8.35227V8.93182C95.071 9.42614 95.1562 9.84517 95.3267 10.1889C95.5 10.5298 95.74 10.7898 96.0468 10.9688C96.3536 11.1449 96.7102 11.233 97.1164 11.233C97.3806 11.233 97.6193 11.196 97.8323 11.1222C98.0483 11.0455 98.2343 10.9318 98.3906 10.7812C98.5468 10.6278 98.6676 10.4375 98.7528 10.2102L99.7244 10.483C99.6221 10.8125 99.4502 11.1023 99.2088 11.3523C98.9673 11.5994 98.669 11.7926 98.3139 11.9318C97.9588 12.0682 97.5596 12.1364 97.1164 12.1364ZM104.936 10.6364L107.22 5.45455H108.175L105.345 12H104.527L101.749 5.45455H102.686L104.936 10.6364ZM102.362 5.45455V12H101.356V5.45455H102.362ZM107.51 12V5.45455H108.516V12H107.51Z" fill="#525252"></path> <rect x="1.1665" y="25.5" width="225.667" height="49" rx="9.5" fill="#E0E0E0"></rect> <g clip-path="url(#clip0_509_2719)"> <path d="M38.6662 49.625C38.6644 49.1194 38.5484 48.6207 38.3268 48.1661C38.1053 47.7116 37.7839 47.313 37.3867 47C37.9362 46.5668 38.3368 45.9729 38.5326 45.3012C38.7284 44.6294 38.7096 43.9132 38.4789 43.2526C38.2482 42.592 37.8171 42.0199 37.2456 41.6161C36.6742 41.2123 35.9909 40.9969 35.2912 41H24.0412C23.3415 40.9969 22.6582 41.2123 22.0868 41.6161C21.5153 42.0199 21.0842 42.592 20.8535 43.2526C20.6228 43.9132 20.604 44.6294 20.7998 45.3012C20.9956 45.9729 21.3962 46.5668 21.9457 47C21.5471 47.3117 21.2247 47.7101 21.003 48.1649C20.7813 48.6197 20.6661 49.119 20.6661 49.625C20.6661 50.131 20.7813 50.6304 21.003 51.0852C21.2247 51.54 21.5471 51.9384 21.9457 52.25C21.3962 52.6832 20.9956 53.2771 20.7998 53.9489C20.604 54.6207 20.6228 55.3368 20.8535 55.9974C21.0842 56.658 21.5153 57.2301 22.0868 57.6339C22.6582 58.0378 23.3415 58.2531 24.0412 58.25H35.2912C35.9909 58.2531 36.6742 58.0378 37.2456 57.6339C37.8171 57.2301 38.2482 56.658 38.4789 55.9974C38.7096 55.3368 38.7284 54.6207 38.5326 53.9489C38.3368 53.2771 37.9362 52.6832 37.3867 52.25C37.7839 51.9371 38.1053 51.5385 38.3268 51.0839C38.5484 50.6294 38.6644 50.1307 38.6662 49.625ZM22.1662 44.375C22.1662 43.8778 22.3637 43.4008 22.7154 43.0492C23.067 42.6976 23.5439 42.5 24.0412 42.5H24.4162V43.25C24.4162 43.4489 24.4952 43.6397 24.6359 43.7804C24.7765 43.921 24.9673 44 25.1662 44C25.3651 44 25.5559 43.921 25.6965 43.7804C25.8372 43.6397 25.9162 43.4489 25.9162 43.25V42.5H27.4162V43.25C27.4162 43.4489 27.4952 43.6397 27.6359 43.7804C27.7765 43.921 27.9673 44 28.1662 44C28.3651 44 28.5559 43.921 28.6965 43.7804C28.8372 43.6397 28.9162 43.4489 28.9162 43.25V42.5H35.2912C35.7885 42.5 36.2654 42.6976 36.617 43.0492C36.9686 43.4008 37.1662 43.8778 37.1662 44.375C37.1662 44.8723 36.9686 45.3492 36.617 45.7009C36.2654 46.0525 35.7885 46.25 35.2912 46.25H24.0412C23.5439 46.25 23.067 46.0525 22.7154 45.7009C22.3637 45.3492 22.1662 44.8723 22.1662 44.375V44.375ZM37.1662 54.875C37.1662 55.3723 36.9686 55.8492 36.617 56.2009C36.2654 56.5525 35.7885 56.75 35.2912 56.75H24.0412C23.5439 56.75 23.067 56.5525 22.7154 56.2009C22.3637 55.8492 22.1662 55.3723 22.1662 54.875C22.1662 54.3778 22.3637 53.9008 22.7154 53.5492C23.067 53.1976 23.5439 53 24.0412 53H24.4162V53.75C24.4162 53.9489 24.4952 54.1397 24.6359 54.2804C24.7765 54.421 24.9673 54.5 25.1662 54.5C25.3651 54.5 25.5559 54.421 25.6965 54.2804C25.8372 54.1397 25.9162 53.9489 25.9162 53.75V53H27.4162V53.75C27.4162 53.9489 27.4952 54.1397 27.6359 54.2804C27.7765 54.421 27.9673 54.5 28.1662 54.5C28.3651 54.5 28.5559 54.421 28.6965 54.2804C28.8372 54.1397 28.9162 53.9489 28.9162 53.75V53H35.2912C35.7885 53 36.2654 53.1976 36.617 53.5492C36.9686 53.9008 37.1662 54.3778 37.1662 54.875ZM24.0412 51.5C23.5439 51.5 23.067 51.3025 22.7154 50.9509C22.3637 50.5992 22.1662 50.1223 22.1662 49.625C22.1662 49.1278 22.3637 48.6508 22.7154 48.2992C23.067 47.9476 23.5439 47.75 24.0412 47.75H24.4162V48.5C24.4162 48.6989 24.4952 48.8897 24.6359 49.0304C24.7765 49.171 24.9673 49.25 25.1662 49.25C25.3651 49.25 25.5559 49.171 25.6965 49.0304C25.8372 48.8897 25.9162 48.6989 25.9162 48.5V47.75H27.4162V48.5C27.4162 48.6989 27.4952 48.8897 27.6359 49.0304C27.7765 49.171 27.9673 49.25 28.1662 49.25C28.3651 49.25 28.5559 49.171 28.6965 49.0304C28.8372 48.8897 28.9162 48.6989 28.9162 48.5V47.75H35.2912C35.7885 47.75 36.2654 47.9476 36.617 48.2992C36.9686 48.6508 37.1662 49.1278 37.1662 49.625C37.1662 50.1223 36.9686 50.5992 36.617 50.9509C36.2654 51.3025 35.7885 51.5 35.2912 51.5H24.0412Z" fill="#525252" fill-opacity="0.3"></path> </g> <path d="M52.4165 54.6193C51.7745 54.6193 51.2276 54.4446 50.7759 54.0952C50.3242 53.7429 49.979 53.233 49.7404 52.5653C49.5017 51.8949 49.3824 51.0852 49.3824 50.1364C49.3824 49.1932 49.5017 48.3878 49.7404 47.7202C49.9818 47.0497 50.3284 46.5384 50.7801 46.1861C51.2347 45.831 51.7801 45.6534 52.4165 45.6534C53.0529 45.6534 53.5969 45.831 54.0486 46.1861C54.5032 46.5384 54.8497 47.0497 55.0884 47.7202C55.3299 48.3878 55.4506 49.1932 55.4506 50.1364C55.4506 51.0852 55.3313 51.8949 55.0926 52.5653C54.854 53.233 54.5088 53.7429 54.0571 54.0952C53.6054 54.4446 53.0585 54.6193 52.4165 54.6193ZM52.4165 53.6818C53.0529 53.6818 53.5472 53.375 53.8995 52.7614C54.2517 52.1477 54.4279 51.2727 54.4279 50.1364C54.4279 49.3807 54.3469 48.7372 54.185 48.206C54.0259 47.6747 53.7958 47.2699 53.4946 46.9915C53.1963 46.7131 52.837 46.5739 52.4165 46.5739C51.7858 46.5739 51.2929 46.8849 50.9378 47.5071C50.5827 48.1264 50.4051 49.0028 50.4051 50.1364C50.4051 50.892 50.4847 51.5341 50.6438 52.0625C50.8029 52.5909 51.0316 52.9929 51.3299 53.2685C51.631 53.544 51.9932 53.6818 52.4165 53.6818ZM57.5152 54.5682C57.305 54.5682 57.1246 54.4929 56.974 54.3423C56.8235 54.1918 56.7482 54.0114 56.7482 53.8011C56.7482 53.5909 56.8235 53.4105 56.974 53.2599C57.1246 53.1094 57.305 53.0341 57.5152 53.0341C57.7255 53.0341 57.9059 53.1094 58.0564 53.2599C58.207 53.4105 58.2823 53.5909 58.2823 53.8011C58.2823 53.9403 58.2468 54.0682 58.1757 54.1847C58.1076 54.3011 58.0152 54.3949 57.8987 54.4659C57.7851 54.5341 57.6573 54.5682 57.5152 54.5682ZM62.6118 54.6193C61.9698 54.6193 61.4229 54.4446 60.9712 54.0952C60.5195 53.7429 60.1743 53.233 59.9357 52.5653C59.697 51.8949 59.5777 51.0852 59.5777 50.1364C59.5777 49.1932 59.697 48.3878 59.9357 47.7202C60.1772 47.0497 60.5237 46.5384 60.9755 46.1861C61.43 45.831 61.9755 45.6534 62.6118 45.6534C63.2482 45.6534 63.7922 45.831 64.2439 46.1861C64.6985 46.5384 65.0451 47.0497 65.2837 47.7202C65.5252 48.3878 65.6459 49.1932 65.6459 50.1364C65.6459 51.0852 65.5266 51.8949 65.288 52.5653C65.0493 53.233 64.7041 53.7429 64.2524 54.0952C63.8007 54.4446 63.2539 54.6193 62.6118 54.6193ZM62.6118 53.6818C63.2482 53.6818 63.7425 53.375 64.0948 52.7614C64.447 52.1477 64.6232 51.2727 64.6232 50.1364C64.6232 49.3807 64.5422 48.7372 64.3803 48.206C64.2212 47.6747 63.9911 47.2699 63.6899 46.9915C63.3916 46.7131 63.0323 46.5739 62.6118 46.5739C61.9811 46.5739 61.4882 46.8849 61.1331 47.5071C60.778 48.1264 60.6005 49.0028 60.6005 50.1364C60.6005 50.892 60.68 51.5341 60.8391 52.0625C60.9982 52.5909 61.2269 52.9929 61.5252 53.2685C61.8263 53.544 62.1885 53.6818 62.6118 53.6818Z" fill="#525252"></path> <rect x="161.333" y="41" width="18" height="18" rx="9" fill="#525252" fill-opacity="0.1"></rect> <path d="M174.083 49.25H171.083V46.25C171.083 46.0511 171.004 45.8603 170.863 45.7197C170.723 45.579 170.532 45.5 170.333 45.5C170.134 45.5 169.943 45.579 169.803 45.7197C169.662 45.8603 169.583 46.0511 169.583 46.25V49.25H166.583C166.384 49.25 166.193 49.329 166.053 49.4697C165.912 49.6103 165.833 49.8011 165.833 50C165.833 50.1989 165.912 50.3897 166.053 50.5303C166.193 50.671 166.384 50.75 166.583 50.75H169.583V53.75C169.583 53.9489 169.662 54.1397 169.803 54.2803C169.943 54.421 170.134 54.5 170.333 54.5C170.532 54.5 170.723 54.421 170.863 54.2803C171.004 54.1397 171.083 53.9489 171.083 53.75V50.75H174.083C174.282 50.75 174.473 50.671 174.613 50.5303C174.754 50.3897 174.833 50.1989 174.833 50C174.833 49.8011 174.754 49.6103 174.613 49.4697C174.473 49.329 174.282 49.25 174.083 49.25Z" fill="#525252" fill-opacity="0.3"></path> <rect x="189.333" y="41" width="18" height="18" rx="9" fill="#525252" fill-opacity="0.1"></rect> <path d="M194.583 49.2498C194.384 49.2498 194.193 49.3288 194.053 49.4694C193.912 49.6101 193.833 49.8008 193.833 49.9998C193.833 50.1987 193.912 50.3894 194.053 50.5301C194.193 50.6707 194.384 50.7498 194.583 50.7498H202.083C202.282 50.7498 202.473 50.6707 202.613 50.5301C202.754 50.3894 202.833 50.1987 202.833 49.9998C202.833 49.8008 202.754 49.6101 202.613 49.4694C202.473 49.3288 202.282 49.2498 202.083 49.2498H194.583Z" fill="#525252" fill-opacity="0.3"></path> <rect x="1.1665" y="25.5" width="225.667" height="49" rx="9.5" stroke="#B3B3B3"></rect> <defs> <clipPath id="clip0_509_2719"> <rect width="18" height="18" fill="white" transform="translate(20.6665 41)"></rect> </clipPath> </defs> </svg> 