<?xml version="1.0" encoding="UTF-8"?> <svg xmlns="http://www.w3.org/2000/svg" width="177" height="177" viewBox="0 0 177 177" fill="none"> <path fill-rule="evenodd" clip-rule="evenodd" d="M135.358 11.7541C131.852 26.7124 121.38 38.9852 107.555 44.9573H132.752C135.043 44.9573 136.901 46.8148 136.901 49.1062V70.4668C142.105 57.5625 152.733 47.431 165.957 42.9011C158.464 30.1774 147.932 19.4614 135.358 11.7541ZM121.627 4.88039C119.576 21.3657 105.527 34.1232 88.4994 34.1232C71.4725 34.1232 57.4227 21.3659 55.3723 4.88084C60.4959 2.8456 65.851 1.26847 71.3871 0.19996C71.3998 9.35229 78.8171 16.7678 87.965 16.7678C97.1207 16.7678 104.543 9.33956 104.543 0.176395C104.543 0.117525 104.543 0.0587258 104.542 0C110.458 1.06731 116.174 2.7144 121.627 4.88039ZM41.6409 11.7547C45.1468 26.7128 55.6186 38.9853 69.444 44.9573H44.7912C42.4999 44.9573 40.6423 46.8148 40.6423 49.1062V69.2146C35.1442 56.623 24.4225 46.8385 11.2188 42.6047C18.6993 30.0113 29.1656 19.4021 41.6409 11.7547ZM4.67142 120.894C19.1687 117.253 29.9037 104.124 29.9037 88.4853C29.9037 72.847 19.1687 59.718 4.67144 56.0769C2.71432 61.1441 1.20267 66.4331 0.184573 71.896C7.30633 73.7572 12.562 80.2394 12.562 87.9501C12.562 95.7273 7.21534 102.255 0 104.051C1.016 109.877 2.59235 115.511 4.67142 120.894ZM11.2188 134.366C18.6571 146.888 29.0478 157.449 41.4303 165.086C44.5869 150.283 54.539 137.999 67.8618 131.661H44.7912C42.4999 131.661 40.6423 129.803 40.6423 127.512V107.756C35.1442 120.348 24.4225 130.132 11.2188 134.366ZM121.738 172.046C120.156 155.067 105.878 141.777 88.4994 141.777C71.1208 141.777 56.8436 155.067 55.2607 172.045C60.4604 174.119 65.8992 175.72 71.5242 176.797C71.4337 176.095 71.3871 175.38 71.3871 174.653C71.3871 165.49 78.8092 158.062 87.965 158.062C97.1207 158.062 104.543 165.49 104.543 174.653C104.543 175.45 104.487 176.233 104.378 177C110.393 175.926 116.201 174.254 121.738 172.046ZM135.569 165.087C148.049 157.389 158.506 146.722 165.957 134.069C152.733 129.54 142.105 119.408 136.901 106.504V127.512C136.901 129.803 135.043 131.661 132.752 131.661H109.137C122.46 137.999 132.412 150.284 135.569 165.087ZM172.428 56.336C158.424 60.308 148.165 73.1976 148.165 88.4853C148.165 103.773 158.424 116.663 172.428 120.635C174.458 115.33 176 109.784 177 104.052C169.784 102.255 164.437 95.7277 164.437 87.9501C164.437 80.239 169.693 73.7566 176.815 71.8957C175.815 66.526 174.337 61.3242 172.428 56.336Z" fill="url(#paint0_linear_54_2113)"></path> <path fill-rule="evenodd" clip-rule="evenodd" d="M135.358 11.7541C131.852 26.7124 121.38 38.9852 107.555 44.9573H132.752C135.043 44.9573 136.901 46.8148 136.901 49.1062V70.4668C142.105 57.5625 152.733 47.431 165.957 42.9011C158.464 30.1774 147.932 19.4614 135.358 11.7541ZM121.627 4.88039C119.576 21.3657 105.527 34.1232 88.4994 34.1232C71.4725 34.1232 57.4227 21.3659 55.3723 4.88084C60.4959 2.8456 65.851 1.26847 71.3871 0.19996C71.3998 9.35229 78.8171 16.7678 87.965 16.7678C97.1207 16.7678 104.543 9.33956 104.543 0.176395C104.543 0.117525 104.543 0.0587258 104.542 0C110.458 1.06731 116.174 2.7144 121.627 4.88039ZM41.6409 11.7547C45.1468 26.7128 55.6186 38.9853 69.444 44.9573H44.7912C42.4999 44.9573 40.6423 46.8148 40.6423 49.1062V69.2146C35.1442 56.623 24.4225 46.8385 11.2188 42.6047C18.6993 30.0113 29.1656 19.4021 41.6409 11.7547ZM4.67142 120.894C19.1687 117.253 29.9037 104.124 29.9037 88.4853C29.9037 72.847 19.1687 59.718 4.67144 56.0769C2.71432 61.1441 1.20267 66.4331 0.184573 71.896C7.30633 73.7572 12.562 80.2394 12.562 87.9501C12.562 95.7273 7.21534 102.255 0 104.051C1.016 109.877 2.59235 115.511 4.67142 120.894ZM11.2188 134.366C18.6571 146.888 29.0478 157.449 41.4303 165.086C44.5869 150.283 54.539 137.999 67.8618 131.661H44.7912C42.4999 131.661 40.6423 129.803 40.6423 127.512V107.756C35.1442 120.348 24.4225 130.132 11.2188 134.366ZM121.738 172.046C120.156 155.067 105.878 141.777 88.4994 141.777C71.1208 141.777 56.8436 155.067 55.2607 172.045C60.4604 174.119 65.8992 175.72 71.5242 176.797C71.4337 176.095 71.3871 175.38 71.3871 174.653C71.3871 165.49 78.8092 158.062 87.965 158.062C97.1207 158.062 104.543 165.49 104.543 174.653C104.543 175.45 104.487 176.233 104.378 177C110.393 175.926 116.201 174.254 121.738 172.046ZM135.569 165.087C148.049 157.389 158.506 146.722 165.957 134.069C152.733 129.54 142.105 119.408 136.901 106.504V127.512C136.901 129.803 135.043 131.661 132.752 131.661H109.137C122.46 137.999 132.412 150.284 135.569 165.087ZM172.428 56.336C158.424 60.308 148.165 73.1976 148.165 88.4853C148.165 103.773 158.424 116.663 172.428 120.635C174.458 115.33 176 109.784 177 104.052C169.784 102.255 164.437 95.7277 164.437 87.9501C164.437 80.239 169.693 73.7566 176.815 71.8957C175.815 66.526 174.337 61.3242 172.428 56.336Z" fill="url(#paint1_radial_54_2113)"></path> <path fill-rule="evenodd" clip-rule="evenodd" d="M135.358 11.7541C131.852 26.7124 121.38 38.9852 107.555 44.9573H132.752C135.043 44.9573 136.901 46.8148 136.901 49.1062V70.4668C142.105 57.5625 152.733 47.431 165.957 42.9011C158.464 30.1774 147.932 19.4614 135.358 11.7541ZM121.627 4.88039C119.576 21.3657 105.527 34.1232 88.4994 34.1232C71.4725 34.1232 57.4227 21.3659 55.3723 4.88084C60.4959 2.8456 65.851 1.26847 71.3871 0.19996C71.3998 9.35229 78.8171 16.7678 87.965 16.7678C97.1207 16.7678 104.543 9.33956 104.543 0.176395C104.543 0.117525 104.543 0.0587258 104.542 0C110.458 1.06731 116.174 2.7144 121.627 4.88039ZM41.6409 11.7547C45.1468 26.7128 55.6186 38.9853 69.444 44.9573H44.7912C42.4999 44.9573 40.6423 46.8148 40.6423 49.1062V69.2146C35.1442 56.623 24.4225 46.8385 11.2188 42.6047C18.6993 30.0113 29.1656 19.4021 41.6409 11.7547ZM4.67142 120.894C19.1687 117.253 29.9037 104.124 29.9037 88.4853C29.9037 72.847 19.1687 59.718 4.67144 56.0769C2.71432 61.1441 1.20267 66.4331 0.184573 71.896C7.30633 73.7572 12.562 80.2394 12.562 87.9501C12.562 95.7273 7.21534 102.255 0 104.051C1.016 109.877 2.59235 115.511 4.67142 120.894ZM11.2188 134.366C18.6571 146.888 29.0478 157.449 41.4303 165.086C44.5869 150.283 54.539 137.999 67.8618 131.661H44.7912C42.4999 131.661 40.6423 129.803 40.6423 127.512V107.756C35.1442 120.348 24.4225 130.132 11.2188 134.366ZM121.738 172.046C120.156 155.067 105.878 141.777 88.4994 141.777C71.1208 141.777 56.8436 155.067 55.2607 172.045C60.4604 174.119 65.8992 175.72 71.5242 176.797C71.4337 176.095 71.3871 175.38 71.3871 174.653C71.3871 165.49 78.8092 158.062 87.965 158.062C97.1207 158.062 104.543 165.49 104.543 174.653C104.543 175.45 104.487 176.233 104.378 177C110.393 175.926 116.201 174.254 121.738 172.046ZM135.569 165.087C148.049 157.389 158.506 146.722 165.957 134.069C152.733 129.54 142.105 119.408 136.901 106.504V127.512C136.901 129.803 135.043 131.661 132.752 131.661H109.137C122.46 137.999 132.412 150.284 135.569 165.087ZM172.428 56.336C158.424 60.308 148.165 73.1976 148.165 88.4853C148.165 103.773 158.424 116.663 172.428 120.635C174.458 115.33 176 109.784 177 104.052C169.784 102.255 164.437 95.7277 164.437 87.9501C164.437 80.239 169.693 73.7566 176.815 71.8957C175.815 66.526 174.337 61.3242 172.428 56.336Z" fill="url(#paint2_radial_54_2113)"></path> <path d="M99.9475 81.59C98.1099 81.59 97.1911 82.7568 97.1911 85.0903V104.735C97.1911 105.259 97.0026 105.711 96.6256 106.092C96.2487 106.473 95.8011 106.664 95.2828 106.664H82.8435C82.3252 106.664 81.8775 106.473 81.5006 106.092C81.1236 105.711 80.9352 105.259 80.9352 104.735V85.0903C80.9352 82.7568 79.9928 81.59 78.108 81.59C76.2233 81.59 75.2809 82.7568 75.2809 85.0903V104.735C75.2809 105.259 75.0925 105.711 74.7155 106.092C74.3386 106.473 73.8909 106.664 73.3726 106.664H60.6506C60.1323 106.664 59.6847 106.473 59.3077 106.092C58.9308 105.711 58.7423 105.259 58.7423 104.735V71.4462C58.7423 70.9224 58.9308 70.4699 59.3077 70.0889C59.6847 69.708 60.1323 69.5175 60.6506 69.5175H72.3125C72.8308 69.5175 73.2784 69.708 73.6553 70.0889C74.0323 70.4699 74.2208 70.9224 74.2208 71.4462V73.8036C74.6448 73.2797 75.1631 72.732 75.7757 72.1606C76.4353 71.5891 77.1657 71.0652 77.9667 70.589C78.8148 70.1128 79.7336 69.708 80.7231 69.3746C81.7597 69.0412 82.867 68.8507 84.045 68.8031C89.605 68.6126 93.3273 70.5652 95.2121 74.6608C96.2958 72.994 97.8272 71.6129 99.8061 70.5175C101.785 69.3746 103.858 68.8031 106.026 68.8031C107.816 68.8031 109.489 69.1127 111.044 69.7318C112.646 70.3032 114.036 71.2319 115.214 72.5177C116.392 73.8036 117.311 75.4704 117.97 77.5182C118.677 79.5184 119.031 81.9234 119.031 84.7332V104.735C119.031 105.259 118.842 105.711 118.465 106.092C118.088 106.473 117.641 106.664 117.122 106.664H104.683C104.165 106.664 103.717 106.473 103.34 106.092C102.963 105.711 102.775 105.259 102.775 104.735V85.0903C102.775 82.7568 101.832 81.59 99.9475 81.59Z" fill="white"></path> <defs> <linearGradient id="paint0_linear_54_2113" x1="29.9471" y1="20.873" x2="150.384" y2="161.535" gradientUnits="userSpaceOnUse"> <stop stop-color="#03E5FD"></stop> <stop offset="1" stop-color="#EA84F4"></stop> </linearGradient> <radialGradient id="paint1_radial_54_2113" cx="0" cy="0" r="1" gradientUnits="userSpaceOnUse" gradientTransform="translate(8.55632 128.985) rotate(30.9897) scale(93.2549 93.3666)"> <stop stop-color="#8353FF"></stop> <stop offset="1" stop-color="#8353FF" stop-opacity="0"></stop> </radialGradient> <radialGradient id="paint2_radial_54_2113" cx="0" cy="0" r="1" gradientUnits="userSpaceOnUse" gradientTransform="translate(135.832 113.464) rotate(126.684) scale(79.2285 79.2746)"> <stop stop-color="#F4D2B2"></stop> <stop offset="1" stop-color="#8353FF" stop-opacity="0"></stop> </radialGradient> </defs> </svg> 