<svg width="18" height="18" viewBox="0 0 18 18" fill="none" xmlns="http://www.w3.org/2000/svg">
<g clip-path="url(#clip0_24_1712)">
<path d="M12.4726 2.17511C11.8823 1.67487 11.2636 1.14911 10.6336 0.576099C10.1503 0.136576 9.49757 -0.0671194 8.85006 0.0196111C8.2226 0.10251 7.66431 0.459662 7.32608 0.994599C6.43205 2.4886 5.79994 4.12438 5.45706 5.83136C5.32252 5.63709 5.20317 5.43276 5.10005 5.2201C4.74483 4.47169 3.85018 4.15293 3.10177 4.50815C2.92058 4.59414 2.75847 4.71561 2.62505 4.86534C1.36706 6.15086 0.669662 7.88248 0.685553 9.68108C0.649799 13.4615 3.19269 16.7806 6.85206 17.7301C7.53294 17.9014 8.23198 17.99 8.93405 17.9941C8.95655 17.9941 9.19579 17.9918 9.29254 17.9851C13.77 17.8401 17.3231 14.1654 17.3176 9.68558C17.3146 6.28811 15.0706 4.3831 12.4726 2.17511ZM8.91531 16.4888C8.35714 16.4464 7.80554 16.2203 7.38908 15.8843C6.73693 15.4229 6.30539 14.7462 6.20259 13.9666C6.07508 12.7501 6.8251 11.1593 8.35735 9.36235C8.51801 9.17469 8.75307 9.06714 9.00011 9.06834C9.24396 9.06658 9.47585 9.17384 9.63236 9.36084C11.0364 11.0273 11.8074 12.5648 11.8074 13.6906C11.803 15.1696 10.647 16.3396 9.17487 16.4821C9.11022 16.4883 9.00008 16.4978 8.91531 16.4888ZM13.1821 15.0623C13.1378 15.0968 13.0891 15.1246 13.0441 15.1576C13.2171 14.6873 13.3063 14.1902 13.3074 13.6891C13.3074 11.7938 11.9311 9.76281 10.7776 8.39256C10.3363 7.8699 9.68717 7.56811 9.0031 7.56755H9.00008C8.31463 7.56632 7.66315 7.86603 7.21808 8.38729C5.38433 10.5353 4.54209 12.465 4.71456 14.1233C4.75552 14.5082 4.85385 14.8849 5.00633 15.2408C3.22538 13.9503 2.176 11.8803 2.18781 9.68104C2.17333 8.25233 2.73674 6.87835 3.75005 5.87105C3.92306 6.2307 4.1308 6.57256 4.37031 6.89181C4.69927 7.33654 5.26124 7.54291 5.7998 7.4168C6.34891 7.29534 6.77525 6.86225 6.88806 6.31131C7.18939 4.7186 7.76521 3.19035 8.5898 1.79483C8.69126 1.63529 8.85885 1.52961 9.04655 1.50683C9.25633 1.4786 9.46779 1.54479 9.62406 1.68756C10.2676 2.27256 10.8991 2.81256 11.4991 3.32033C14.0026 5.44658 15.8123 6.98259 15.8123 9.68558C15.8188 11.7891 14.8478 13.7763 13.1843 15.0638L13.1821 15.0623Z" fill="white" fill-opacity="0.3"/>
</g>
<defs>
<clipPath id="clip0_24_1712">
<rect width="18" height="18" fill="white"/>
</clipPath>
</defs>
</svg>
