<svg width="18" height="18" viewBox="0 0 18 18" fill="none" xmlns="http://www.w3.org/2000/svg">
<g clip-path="url(#clip0_751_3205)">
<path d="M12.75 10.5C12.3522 10.5 11.9706 10.658 11.6893 10.9393C11.408 11.2206 11.25 11.6022 11.25 12C11.25 12.3978 11.408 12.7794 11.6893 13.0607C11.9706 13.342 12.3522 13.5 12.75 13.5C13.1478 13.5 13.5294 13.342 13.8107 13.0607C14.092 12.7794 14.25 12.3978 14.25 12C14.25 11.6022 14.092 11.2206 13.8107 10.9393C13.5294 10.658 13.1478 10.5 12.75 10.5Z" fill="white" fill-opacity="0.3"/>
<path d="M5.99987 8.25C5.20422 8.25 4.44116 8.56607 3.87856 9.12868C3.31595 9.69129 2.99988 10.4543 2.99988 11.25C2.99988 12.0456 3.31595 12.8087 3.87856 13.3713C4.44116 13.9339 5.20422 14.25 5.99987 14.25C6.79552 14.25 7.55858 13.9339 8.12119 13.3713C8.6838 12.8087 8.99987 12.0456 8.99987 11.25C8.99987 10.4543 8.6838 9.69129 8.12119 9.12868C7.55858 8.56607 6.79552 8.25 5.99987 8.25ZM5.99987 12.75C5.60205 12.75 5.22052 12.592 4.93921 12.3107C4.65791 12.0293 4.49988 11.6478 4.49988 11.25C4.49988 10.8522 4.65791 10.4706 4.93921 10.1893C5.22052 9.90803 5.60205 9.75 5.99987 9.75C6.3977 9.75 6.77923 9.90803 7.06053 10.1893C7.34184 10.4706 7.49987 10.8522 7.49987 11.25C7.49987 11.6478 7.34184 12.0293 7.06053 12.3107C6.77923 12.592 6.3977 12.75 5.99987 12.75Z" fill="white" fill-opacity="0.3"/>
<path d="M16.1919 5.02518L10.3134 0.636926C9.67816 0.208008 8.92597 -0.0141984 8.15967 0.000703356C7.39337 0.0156051 6.65039 0.266887 6.03235 0.720176C3.60431 2.53718 1.78783 5.05116 0.825101 7.92693C0.814233 7.96528 0.806211 8.00439 0.801101 8.04393C0.718476 8.2059 0.647545 8.37358 0.588851 8.54568C-0.199051 10.7815 -0.199051 13.2196 0.588851 15.4554C0.840906 16.1981 1.31944 16.843 1.95714 17.2995C2.59484 17.7559 3.35961 18.001 4.14385 18.0002H6.86185C7.18711 17.995 7.50226 17.8863 7.76149 17.6898C8.02073 17.4933 8.21054 17.2192 8.30335 16.9074C8.37934 16.6835 8.52357 16.4889 8.7158 16.3512C8.90803 16.2134 9.1386 16.1393 9.3751 16.1393C9.61161 16.1393 9.84217 16.2134 10.0344 16.3512C10.2266 16.4889 10.3709 16.6835 10.4469 16.9074C10.5397 17.2192 10.7295 17.4933 10.9887 17.6898C11.2479 17.8863 11.5631 17.995 11.8884 18.0002H14.2501C15.2443 17.999 16.1974 17.6035 16.9004 16.9005C17.6034 16.1975 17.9989 15.2444 18.0001 14.2502V8.63043C17.9984 7.93051 17.8342 7.24054 17.5205 6.6149C17.2067 5.98926 16.7518 5.44506 16.1919 5.02518ZM6.9301 1.92168C7.29364 1.6556 7.72994 1.50723 8.18032 1.4965C8.63069 1.48578 9.07356 1.61321 9.44935 1.86168L14.9919 6.00018H4.1446C3.85263 5.99989 3.56164 6.03387 3.2776 6.10143C4.19579 4.47258 5.43902 3.04989 6.9301 1.92168ZM16.5001 14.2502C16.5001 14.8469 16.263 15.4192 15.8411 15.8412C15.4191 16.2631 14.8468 16.5002 14.2501 16.5002L11.8756 16.4507C11.6998 15.9216 11.3606 15.4619 10.9068 15.1379C10.4531 14.8139 9.9082 14.6423 9.35068 14.6479C8.79316 14.6534 8.25178 14.8357 7.80451 15.1686C7.35724 15.5014 7.02717 15.9677 6.86185 16.5002H4.14385C3.67323 16.5004 3.21439 16.353 2.8319 16.0789C2.4494 15.8047 2.16251 15.4174 2.0116 14.9717C1.33097 13.0494 1.33097 10.9517 2.0116 9.02943C2.16301 8.58377 2.45011 8.19667 2.83263 7.92242C3.21516 7.64817 3.67392 7.50052 4.1446 7.50018H16.2751C16.4224 7.85884 16.4988 8.24268 16.5001 8.63043V14.2502Z" fill="white" fill-opacity="0.3"/>
</g>
<defs>
<clipPath id="clip0_751_3205">
<rect width="18" height="18" fill="white"/>
</clipPath>
</defs>
</svg>
