<svg width="18" height="19" viewBox="0 0 18 19" fill="none" xmlns="http://www.w3.org/2000/svg">
<g clip-path="url(#clip0_642_3263)">
<path d="M9 9.49994C9.89002 9.49994 10.76 9.23602 11.5001 8.74155C12.2401 8.24709 12.8169 7.54428 13.1575 6.72202C13.4981 5.89975 13.5872 4.99495 13.4135 4.12203C13.2399 3.24912 12.8113 2.4473 12.182 1.81796C11.5526 1.18862 10.7508 0.760041 9.87791 0.586407C9.00499 0.412774 8.10019 0.501889 7.27792 0.842483C6.45566 1.18308 5.75285 1.75985 5.25839 2.49987C4.76392 3.2399 4.5 4.10993 4.5 4.99994C4.50119 6.19305 4.97568 7.33695 5.81934 8.18061C6.66299 9.02426 7.80689 9.49875 9 9.49994ZM9 1.99994C9.59334 1.99994 10.1734 2.17589 10.6667 2.50553C11.1601 2.83518 11.5446 3.30371 11.7716 3.85189C11.9987 4.40007 12.0581 5.00327 11.9424 5.58521C11.8266 6.16715 11.5409 6.7017 11.1213 7.12126C10.7018 7.54082 10.1672 7.82654 9.58527 7.9423C9.00333 8.05805 8.40013 7.99864 7.85195 7.77158C7.30377 7.54452 6.83524 7.16 6.50559 6.66665C6.17595 6.1733 6 5.59329 6 4.99994C6 4.20429 6.31607 3.44123 6.87868 2.87862C7.44129 2.31601 8.20435 1.99994 9 1.99994Z" fill="white" fill-opacity="0.3"/>
<path d="M9 11.0005C7.2104 11.0025 5.49466 11.7143 4.22922 12.9797C2.96378 14.2452 2.25199 15.9609 2.25 17.7505C2.25 17.9494 2.32902 18.1402 2.46967 18.2808C2.61032 18.4215 2.80109 18.5005 3 18.5005C3.19891 18.5005 3.38968 18.4215 3.53033 18.2808C3.67098 18.1402 3.75 17.9494 3.75 17.7505C3.75 16.3581 4.30312 15.0227 5.28769 14.0382C6.27226 13.0536 7.60761 12.5005 9 12.5005C10.3924 12.5005 11.7277 13.0536 12.7123 14.0382C13.6969 15.0227 14.25 16.3581 14.25 17.7505C14.25 17.9494 14.329 18.1402 14.4697 18.2808C14.6103 18.4215 14.8011 18.5005 15 18.5005C15.1989 18.5005 15.3897 18.4215 15.5303 18.2808C15.671 18.1402 15.75 17.9494 15.75 17.7505C15.748 15.9609 15.0362 14.2452 13.7708 12.9797C12.5053 11.7143 10.7896 11.0025 9 11.0005Z" fill="white" fill-opacity="0.3"/>
</g>
<defs>
<clipPath id="clip0_642_3263">
<rect width="18" height="18" fill="white" transform="translate(0 0.5)"/>
</clipPath>
</defs>
</svg>
