<svg width="18" height="18" viewBox="0 0 18 18" fill="none" xmlns="http://www.w3.org/2000/svg">
<g clip-path="url(#clip0_875_5314)">
<path d="M14.25 16.5005H3.75C2.7558 16.4993 1.80267 16.1038 1.09966 15.4008C0.396661 14.6978 0.00119089 13.7447 0 12.7505L0 5.25049C0.00119089 4.25629 0.396661 3.30316 1.09966 2.60015C1.80267 1.89715 2.7558 1.50168 3.75 1.50049H14.25C15.2442 1.50168 16.1973 1.89715 16.9003 2.60015C17.6033 3.30316 17.9988 4.25629 18 5.25049V12.7505C17.9988 13.7447 17.6033 14.6978 16.9003 15.4008C16.1973 16.1038 15.2442 16.4993 14.25 16.5005ZM3.75 3.00049C3.15326 3.00049 2.58097 3.23754 2.15901 3.6595C1.73705 4.08146 1.5 4.65375 1.5 5.25049V12.7505C1.5 13.3472 1.73705 13.9195 2.15901 14.3415C2.58097 14.7634 3.15326 15.0005 3.75 15.0005H14.25C14.8467 15.0005 15.419 14.7634 15.841 14.3415C16.2629 13.9195 16.5 13.3472 16.5 12.7505V5.25049C16.5 4.65375 16.2629 4.08146 15.841 3.6595C15.419 3.23754 14.8467 3.00049 14.25 3.00049H3.75Z" fill="white" fill-opacity="0.3"/>
<path d="M14.25 9.7505H8.25C8.05109 9.7505 7.86032 9.67148 7.71967 9.53083C7.57902 9.39017 7.5 9.19941 7.5 9.00049C7.5 8.80158 7.57902 8.61081 7.71967 8.47016C7.86032 8.32951 8.05109 8.25049 8.25 8.25049H14.25C14.4489 8.25049 14.6397 8.32951 14.7803 8.47016C14.921 8.61081 15 8.80158 15 9.00049C15 9.19941 14.921 9.39017 14.7803 9.53083C14.6397 9.67148 14.4489 9.7505 14.25 9.7505Z" fill="white" fill-opacity="0.3"/>
<path d="M5.25 9.7505H3.75C3.55109 9.7505 3.36032 9.67148 3.21967 9.53083C3.07902 9.39017 3 9.19941 3 9.00049C3 8.80158 3.07902 8.61081 3.21967 8.47016C3.36032 8.32951 3.55109 8.25049 3.75 8.25049H5.25C5.44891 8.25049 5.63967 8.32951 5.78032 8.47016C5.92098 8.61081 5.99999 8.80158 5.99999 9.00049C5.99999 9.19941 5.92098 9.39017 5.78032 9.53083C5.63967 9.67148 5.44891 9.7505 5.25 9.7505Z" fill="white" fill-opacity="0.3"/>
<path d="M9.75 13.4995H3.75C3.55109 13.4995 3.36032 13.4205 3.21967 13.2798C3.07902 13.1392 3 12.9484 3 12.7495C3 12.5506 3.07902 12.3598 3.21967 12.2192C3.36032 12.0785 3.55109 11.9995 3.75 11.9995H9.75C9.94891 11.9995 10.1397 12.0785 10.2803 12.2192C10.421 12.3598 10.5 12.5506 10.5 12.7495C10.5 12.9484 10.421 13.1392 10.2803 13.2798C10.1397 13.4205 9.94891 13.4995 9.75 13.4995Z" fill="white" fill-opacity="0.3"/>
<path d="M14.25 13.4995H12.75C12.5511 13.4995 12.3603 13.4205 12.2197 13.2798C12.079 13.1392 12 12.9484 12 12.7495C12 12.5506 12.079 12.3598 12.2197 12.2192C12.3603 12.0785 12.5511 11.9995 12.75 11.9995H14.25C14.4489 11.9995 14.6397 12.0785 14.7803 12.2192C14.921 12.3598 15 12.5506 15 12.7495C15 12.9484 14.921 13.1392 14.7803 13.2798C14.6397 13.4205 14.4489 13.4995 14.25 13.4995Z" fill="white" fill-opacity="0.3"/>
</g>
<defs>
<clipPath id="clip0_875_5314">
<rect width="18" height="18" fill="white"/>
</clipPath>
</defs>
</svg>
