<svg width="19" height="16" viewBox="0 0 19 16" fill="none" xmlns="http://www.w3.org/2000/svg">
<path d="M8.97266 4.29103V7.45508H16.3554V4.29103H8.97266ZM11.6372 10.5048C9.26165 9.9853 7.54012 7.64436 7.99522 5.03416C8.04261 4.75864 7.86546 4.49342 7.5925 4.43113C7.18772 4.33793 6.7644 4.29107 6.33595 4.29107C3.13791 4.29107 0.500041 6.89329 0.500041 10.0918C0.500041 11.1089 0.797848 12.1023 1.29738 12.9814L0.526794 15.2345C0.496014 15.3273 0.491659 15.4269 0.514215 15.522C0.536772 15.6171 0.58535 15.7041 0.654516 15.7732C0.796442 15.9144 1.00337 15.9636 1.19318 15.9009L3.44686 15.1298C4.32439 15.6294 5.31829 15.8925 6.33592 15.8925C9.14669 15.8925 11.5465 13.8825 12.044 11.113C12.0945 10.8339 11.9142 10.5651 11.6372 10.5048Z" fill="#9DE3FF"/>
<path d="M17.7055 8.76286C18.2011 7.88743 18.5 6.88548 18.5 5.87302C18.5 2.6773 15.8598 0.0722656 12.664 0.0722656C9.83749 0.0722656 7.44336 2.08668 6.95824 4.86049C6.89496 5.21912 6.86328 5.54607 6.86328 5.87302C6.86328 8.57301 8.77226 10.9566 11.409 11.5367C12.7695 11.8531 14.3093 11.6211 15.5539 10.9144L17.8039 11.6773C17.9726 11.7448 18.2029 11.705 18.3417 11.5507C18.4894 11.4136 18.5316 11.2026 18.4683 11.0128L17.7055 8.76286ZM10.5547 6.4004C10.2593 6.4004 10.0273 6.16834 10.0273 5.87306C10.0273 5.57771 10.2593 5.34572 10.5547 5.34572C10.85 5.34572 11.082 5.57771 11.082 5.87306C11.082 6.16834 10.85 6.4004 10.5547 6.4004ZM12.664 6.4004C12.3687 6.4004 12.1367 6.16834 12.1367 5.87306C12.1367 5.57771 12.3687 5.34572 12.664 5.34572C12.9594 5.34572 13.1914 5.57771 13.1914 5.87306C13.1914 6.16834 12.9594 6.4004 12.664 6.4004ZM14.7734 6.4004C14.4781 6.4004 14.2461 6.16834 14.2461 5.87306C14.2461 5.57771 14.4781 5.34572 14.7734 5.34572C15.0688 5.34572 15.3007 5.57771 15.3007 5.87306C15.3007 6.16834 15.0688 6.4004 14.7734 6.4004Z" fill="white"/>
</svg>
