<svg width="19" height="16" viewBox="0 0 19 16" fill="none" xmlns="http://www.w3.org/2000/svg">
<path d="M18.5007 0.773993L15.653 15.1295C15.653 15.1295 15.2546 16.1248 14.16 15.6474L7.58973 10.6099L5.19989 9.45524L1.17801 8.10134C1.17801 8.10134 0.560826 7.88181 0.501451 7.40446C0.441295 6.92634 1.19833 6.66774 1.19833 6.66774L17.1866 0.395868C17.1866 0.395868 18.5007 -0.181476 18.5007 0.773993Z" fill="#FEFEFE"/>
<path d="M10.1559 12.8873L7.3582 15.4381C7.3582 15.4381 7.14023 15.6037 6.90039 15.4998C6.54805 15.449 5.51445 11.7646 4.87305 9.56618L5.40977 9.22478L10.1559 12.8873Z" fill="#B5D2E5"/>
<path d="M6.90039 15.4998C6.51914 15.4638 5.06914 10.2084 4.87305 9.56618L15.266 2.9654C15.8066 2.63727 16.0957 2.89586 15.6301 3.33024C15.309 3.63024 7.46602 10.6802 7.46602 10.6802L6.90039 15.4998Z" fill="#D3E7F2"/>
</svg>
