<svg width="100" height="100" viewBox="0 0 100 100" fill="none" xmlns="http://www.w3.org/2000/svg">
<rect width="100" height="100" fill="#272B34"/>
<path fill-rule="evenodd" clip-rule="evenodd" d="M73.5322 12.7729C71.8904 19.7722 67.1405 25.5742 60.818 28.6434H63.2765C69.3517 28.6434 74.2765 33.5683 74.2765 39.6434V41.6424C76.8295 35.2884 82.0602 30.2986 88.5718 28.0698C84.8894 21.821 79.7123 16.5581 73.5322 12.7729ZM66.7828 9.39698C65.775 17.4932 58.8692 23.7587 50.5 23.7587C42.1308 23.7587 35.225 17.4932 34.2172 9.39697C36.7355 8.39746 39.3676 7.62293 42.0886 7.09817C42.0949 11.5931 45.7407 15.235 50.2371 15.235C54.7374 15.235 58.3855 11.5869 58.3855 7.0866C58.3855 7.0577 58.3854 7.02883 58.3851 7C61.2933 7.5242 64.1025 8.33316 66.7828 9.39698ZM27.4678 12.7729C29.1096 19.7722 33.8596 25.5742 40.182 28.6434H37.963C31.8878 28.6434 26.963 33.5683 26.963 39.6434V40.9614C24.2563 34.7926 18.9933 30 12.5143 27.9243C16.1912 21.7392 21.3358 16.5287 27.4678 12.7729ZM9.29614 66.374C16.4219 64.5858 21.6985 58.1378 21.6985 50.4574C21.6985 42.777 16.4219 36.329 9.29614 34.5408C8.33418 37.0294 7.59117 39.6269 7.09075 42.3098C10.5913 43.2239 13.1747 46.4075 13.1747 50.1945C13.1747 54.0141 10.5466 57.2199 7 58.1022C7.49939 60.9636 8.27421 63.7303 9.29614 66.374ZM12.5143 72.9905C16.1705 79.1407 21.2779 84.3274 27.3643 88.0783C28.9919 80.4519 34.2948 74.1866 41.3303 71.2257H37.963C31.8878 71.2257 26.963 66.3008 26.963 60.2256V59.9534C24.2563 66.1222 18.9933 70.9148 12.5143 72.9905ZM66.8377 91.496C66.0597 83.1572 59.0421 76.6303 50.5 76.6303C41.9579 76.6303 34.9403 83.1572 34.1623 91.496C36.718 92.5143 39.3913 93.3008 42.156 93.8295C42.1116 93.4849 42.0886 93.1335 42.0886 92.7767C42.0886 88.2765 45.7368 84.6283 50.2371 84.6283C54.7374 84.6283 58.3855 88.2765 58.3855 92.7767C58.3855 93.1679 58.358 93.5527 58.3047 93.9292C61.2613 93.4019 64.1161 92.5804 66.8377 91.496ZM73.6357 88.0783C79.7701 84.2978 84.9099 79.0589 88.5718 72.8449C82.0602 70.6162 76.8295 65.6264 74.2765 59.2724V60.2257C74.2765 66.3008 69.3517 71.2257 63.2765 71.2257H59.6698C66.7052 74.1866 72.0082 80.4519 73.6357 88.0783ZM91.7528 34.6681C84.8696 36.6188 79.8271 42.9492 79.8271 50.4574C79.8271 57.9655 84.8696 64.2959 91.7529 66.2467C92.7506 63.6415 93.5086 60.9177 94 58.1023C90.4533 57.22 87.8251 54.0142 87.8251 50.1945C87.8251 46.4074 90.4086 43.2238 93.9092 42.3098C93.4174 39.6726 92.6911 37.1179 91.7528 34.6681Z" fill="url(#paint0_linear_62_2193)"/>
<path fill-rule="evenodd" clip-rule="evenodd" d="M73.5322 12.7729C71.8904 19.7722 67.1405 25.5742 60.818 28.6434H63.2765C69.3517 28.6434 74.2765 33.5683 74.2765 39.6434V41.6424C76.8295 35.2884 82.0602 30.2986 88.5718 28.0698C84.8894 21.821 79.7123 16.5581 73.5322 12.7729ZM66.7828 9.39698C65.775 17.4932 58.8692 23.7587 50.5 23.7587C42.1308 23.7587 35.225 17.4932 34.2172 9.39697C36.7355 8.39746 39.3676 7.62293 42.0886 7.09817C42.0949 11.5931 45.7407 15.235 50.2371 15.235C54.7374 15.235 58.3855 11.5869 58.3855 7.0866C58.3855 7.0577 58.3854 7.02883 58.3851 7C61.2933 7.5242 64.1025 8.33316 66.7828 9.39698ZM27.4678 12.7729C29.1096 19.7722 33.8596 25.5742 40.182 28.6434H37.963C31.8878 28.6434 26.963 33.5683 26.963 39.6434V40.9614C24.2563 34.7926 18.9933 30 12.5143 27.9243C16.1912 21.7392 21.3358 16.5287 27.4678 12.7729ZM9.29614 66.374C16.4219 64.5858 21.6985 58.1378 21.6985 50.4574C21.6985 42.777 16.4219 36.329 9.29614 34.5408C8.33418 37.0294 7.59117 39.6269 7.09075 42.3098C10.5913 43.2239 13.1747 46.4075 13.1747 50.1945C13.1747 54.0141 10.5466 57.2199 7 58.1022C7.49939 60.9636 8.27421 63.7303 9.29614 66.374ZM12.5143 72.9905C16.1705 79.1407 21.2779 84.3274 27.3643 88.0783C28.9919 80.4519 34.2948 74.1866 41.3303 71.2257H37.963C31.8878 71.2257 26.963 66.3008 26.963 60.2256V59.9534C24.2563 66.1222 18.9933 70.9148 12.5143 72.9905ZM66.8377 91.496C66.0597 83.1572 59.0421 76.6303 50.5 76.6303C41.9579 76.6303 34.9403 83.1572 34.1623 91.496C36.718 92.5143 39.3913 93.3008 42.156 93.8295C42.1116 93.4849 42.0886 93.1335 42.0886 92.7767C42.0886 88.2765 45.7368 84.6283 50.2371 84.6283C54.7374 84.6283 58.3855 88.2765 58.3855 92.7767C58.3855 93.1679 58.358 93.5527 58.3047 93.9292C61.2613 93.4019 64.1161 92.5804 66.8377 91.496ZM73.6357 88.0783C79.7701 84.2978 84.9099 79.0589 88.5718 72.8449C82.0602 70.6162 76.8295 65.6264 74.2765 59.2724V60.2257C74.2765 66.3008 69.3517 71.2257 63.2765 71.2257H59.6698C66.7052 74.1866 72.0082 80.4519 73.6357 88.0783ZM91.7528 34.6681C84.8696 36.6188 79.8271 42.9492 79.8271 50.4574C79.8271 57.9655 84.8696 64.2959 91.7529 66.2467C92.7506 63.6415 93.5086 60.9177 94 58.1023C90.4533 57.22 87.8251 54.0142 87.8251 50.1945C87.8251 46.4074 90.4086 43.2238 93.9092 42.3098C93.4174 39.6726 92.6911 37.1179 91.7528 34.6681Z" fill="url(#paint1_radial_62_2193)"/>
<path fill-rule="evenodd" clip-rule="evenodd" d="M73.5322 12.7729C71.8904 19.7722 67.1405 25.5742 60.818 28.6434H63.2765C69.3517 28.6434 74.2765 33.5683 74.2765 39.6434V41.6424C76.8295 35.2884 82.0602 30.2986 88.5718 28.0698C84.8894 21.821 79.7123 16.5581 73.5322 12.7729ZM66.7828 9.39698C65.775 17.4932 58.8692 23.7587 50.5 23.7587C42.1308 23.7587 35.225 17.4932 34.2172 9.39697C36.7355 8.39746 39.3676 7.62293 42.0886 7.09817C42.0949 11.5931 45.7407 15.235 50.2371 15.235C54.7374 15.235 58.3855 11.5869 58.3855 7.0866C58.3855 7.0577 58.3854 7.02883 58.3851 7C61.2933 7.5242 64.1025 8.33316 66.7828 9.39698ZM27.4678 12.7729C29.1096 19.7722 33.8596 25.5742 40.182 28.6434H37.963C31.8878 28.6434 26.963 33.5683 26.963 39.6434V40.9614C24.2563 34.7926 18.9933 30 12.5143 27.9243C16.1912 21.7392 21.3358 16.5287 27.4678 12.7729ZM9.29614 66.374C16.4219 64.5858 21.6985 58.1378 21.6985 50.4574C21.6985 42.777 16.4219 36.329 9.29614 34.5408C8.33418 37.0294 7.59117 39.6269 7.09075 42.3098C10.5913 43.2239 13.1747 46.4075 13.1747 50.1945C13.1747 54.0141 10.5466 57.2199 7 58.1022C7.49939 60.9636 8.27421 63.7303 9.29614 66.374ZM12.5143 72.9905C16.1705 79.1407 21.2779 84.3274 27.3643 88.0783C28.9919 80.4519 34.2948 74.1866 41.3303 71.2257H37.963C31.8878 71.2257 26.963 66.3008 26.963 60.2256V59.9534C24.2563 66.1222 18.9933 70.9148 12.5143 72.9905ZM66.8377 91.496C66.0597 83.1572 59.0421 76.6303 50.5 76.6303C41.9579 76.6303 34.9403 83.1572 34.1623 91.496C36.718 92.5143 39.3913 93.3008 42.156 93.8295C42.1116 93.4849 42.0886 93.1335 42.0886 92.7767C42.0886 88.2765 45.7368 84.6283 50.2371 84.6283C54.7374 84.6283 58.3855 88.2765 58.3855 92.7767C58.3855 93.1679 58.358 93.5527 58.3047 93.9292C61.2613 93.4019 64.1161 92.5804 66.8377 91.496ZM73.6357 88.0783C79.7701 84.2978 84.9099 79.0589 88.5718 72.8449C82.0602 70.6162 76.8295 65.6264 74.2765 59.2724V60.2257C74.2765 66.3008 69.3517 71.2257 63.2765 71.2257H59.6698C66.7052 74.1866 72.0082 80.4519 73.6357 88.0783ZM91.7528 34.6681C84.8696 36.6188 79.8271 42.9492 79.8271 50.4574C79.8271 57.9655 84.8696 64.2959 91.7529 66.2467C92.7506 63.6415 93.5086 60.9177 94 58.1023C90.4533 57.22 87.8251 54.0142 87.8251 50.1945C87.8251 46.4074 90.4086 43.2238 93.9092 42.3098C93.4174 39.6726 92.6911 37.1179 91.7528 34.6681Z" fill="url(#paint2_radial_62_2193)"/>
<path d="M55.4644 47.2614C54.6385 47.2614 54.2255 47.7886 54.2255 48.843V57.7194C54.2255 57.9561 54.1408 58.1605 53.9714 58.3327C53.802 58.5048 53.6008 58.5909 53.3679 58.5909H47.7773C47.5443 58.5909 47.3431 58.5048 47.1737 58.3327C47.0043 58.1605 46.9196 57.9561 46.9196 57.7194V48.843C46.9196 47.7886 46.4961 47.2614 45.649 47.2614C44.802 47.2614 44.3784 47.7886 44.3784 48.843V57.7194C44.3784 57.9561 44.2937 58.1605 44.1243 58.3327C43.9549 58.5048 43.7537 58.5909 43.5208 58.5909H37.8031C37.5702 58.5909 37.369 58.5048 37.1996 58.3327C37.0302 58.1605 36.9455 57.9561 36.9455 57.7194V42.678C36.9455 42.4413 37.0302 42.2369 37.1996 42.0647C37.369 41.8926 37.5702 41.8065 37.8031 41.8065H43.0443C43.2772 41.8065 43.4784 41.8926 43.6478 42.0647C43.8172 42.2369 43.902 42.4413 43.902 42.678V43.7432C44.0925 43.5065 44.3255 43.259 44.6008 43.0008C44.8973 42.7426 45.2255 42.5059 45.5855 42.2907C45.9667 42.0755 46.3796 41.8926 46.8243 41.742C47.2902 41.5913 47.7879 41.5053 48.3173 41.4837C50.8161 41.3977 52.489 42.2799 53.3361 44.1305C53.8232 43.3774 54.5114 42.7533 55.4008 42.2584C56.2902 41.742 57.222 41.4837 58.1961 41.4837C59.0008 41.4837 59.7526 41.6236 60.4514 41.9034C61.1714 42.1616 61.7961 42.5812 62.3256 43.1622C62.855 43.7432 63.2679 44.4963 63.5644 45.4216C63.882 46.3254 64.0409 47.4121 64.0409 48.6817V57.7194C64.0409 57.9561 63.9561 58.1605 63.7867 58.3327C63.6173 58.5048 63.4161 58.5909 63.1832 58.5909H57.5926C57.3597 58.5909 57.1585 58.5048 56.9891 58.3327C56.8197 58.1605 56.7349 57.9561 56.7349 57.7194V48.843C56.7349 47.7886 56.3114 47.2614 55.4644 47.2614Z" fill="white"/>
<defs>
<linearGradient id="paint0_linear_62_2193" x1="21.7198" y1="17.2513" x2="80.8617" y2="86.3816" gradientUnits="userSpaceOnUse">
<stop stop-color="#03E5FD"/>
<stop offset="1" stop-color="#EA84F4"/>
</linearGradient>
<radialGradient id="paint1_radial_62_2193" cx="0" cy="0" r="1" gradientUnits="userSpaceOnUse" gradientTransform="translate(11.2056 70.3476) rotate(30.9691) scale(45.8272 45.8646)">
<stop stop-color="#8353FF"/>
<stop offset="1" stop-color="#8353FF" stop-opacity="0"/>
</radialGradient>
<radialGradient id="paint2_radial_62_2193" cx="0" cy="0" r="1" gradientUnits="userSpaceOnUse" gradientTransform="translate(73.7647 62.7249) rotate(126.707) scale(38.9224 38.9541)">
<stop stop-color="#F4D2B2"/>
<stop offset="1" stop-color="#8353FF" stop-opacity="0"/>
</radialGradient>
</defs>
</svg>
